G04 #@! TF.GenerationSoftware,KiCad,Pcbnew,(5.1.5-0-10_14)*
G04 #@! TF.CreationDate,2020-11-05T18:46:50+01:00*
G04 #@! TF.ProjectId,vm000-powerdist,766d3030-302d-4706-9f77-657264697374,rev?*
G04 #@! TF.SameCoordinates,Original*
G04 #@! TF.FileFunction,Soldermask,Top*
G04 #@! TF.FilePolarity,Negative*
%FSLAX46Y46*%
G04 Gerber Fmt 4.6, Leading zero omitted, Abs format (unit mm)*
G04 Created by KiCad (PCBNEW (5.1.5-0-10_14)) date 2020-11-05 18:46:50*
%MOMM*%
%LPD*%
G04 APERTURE LIST*
%ADD10C,0.100000*%
G04 APERTURE END LIST*
D10*
G36*
X162935256Y-124121298D02*
G01*
X163041579Y-124142447D01*
X163342042Y-124266903D01*
X163612451Y-124447585D01*
X163842415Y-124677549D01*
X164023097Y-124947958D01*
X164147553Y-125248421D01*
X164211000Y-125567391D01*
X164211000Y-125892609D01*
X164147553Y-126211579D01*
X164023097Y-126512042D01*
X163842415Y-126782451D01*
X163612451Y-127012415D01*
X163342042Y-127193097D01*
X163041579Y-127317553D01*
X162935256Y-127338702D01*
X162722611Y-127381000D01*
X162397389Y-127381000D01*
X162184744Y-127338702D01*
X162078421Y-127317553D01*
X161777958Y-127193097D01*
X161507549Y-127012415D01*
X161277585Y-126782451D01*
X161096903Y-126512042D01*
X160972447Y-126211579D01*
X160909000Y-125892609D01*
X160909000Y-125567391D01*
X160972447Y-125248421D01*
X161096903Y-124947958D01*
X161277585Y-124677549D01*
X161507549Y-124447585D01*
X161777958Y-124266903D01*
X162078421Y-124142447D01*
X162184744Y-124121298D01*
X162397389Y-124079000D01*
X162722611Y-124079000D01*
X162935256Y-124121298D01*
G37*
G36*
X170360547Y-115702326D02*
G01*
X170534156Y-115754990D01*
X170534158Y-115754991D01*
X170694155Y-115840511D01*
X170834397Y-115955603D01*
X170913729Y-116052271D01*
X170949489Y-116095844D01*
X171035010Y-116255843D01*
X171087674Y-116429452D01*
X171101000Y-116564756D01*
X171101000Y-117115243D01*
X171087674Y-117250548D01*
X171035010Y-117424157D01*
X170949489Y-117584156D01*
X170913729Y-117627729D01*
X170834397Y-117724397D01*
X170747810Y-117795456D01*
X170694156Y-117839489D01*
X170534157Y-117925010D01*
X170360548Y-117977674D01*
X170180000Y-117995456D01*
X169999453Y-117977674D01*
X169825844Y-117925010D01*
X169665845Y-117839489D01*
X169612191Y-117795456D01*
X169525604Y-117724397D01*
X169410513Y-117584157D01*
X169410512Y-117584155D01*
X169324990Y-117424157D01*
X169272326Y-117250548D01*
X169259000Y-117115244D01*
X169259000Y-116564757D01*
X169272326Y-116429453D01*
X169324990Y-116255844D01*
X169410511Y-116095845D01*
X169443339Y-116055844D01*
X169525603Y-115955603D01*
X169651388Y-115852375D01*
X169665844Y-115840511D01*
X169825843Y-115754990D01*
X169999452Y-115702326D01*
X170180000Y-115684544D01*
X170360547Y-115702326D01*
G37*
G36*
X160200547Y-115702326D02*
G01*
X160374156Y-115754990D01*
X160374158Y-115754991D01*
X160534155Y-115840511D01*
X160674397Y-115955603D01*
X160753729Y-116052271D01*
X160789489Y-116095844D01*
X160875010Y-116255843D01*
X160927674Y-116429452D01*
X160941000Y-116564756D01*
X160941000Y-117115243D01*
X160927674Y-117250548D01*
X160875010Y-117424157D01*
X160789489Y-117584156D01*
X160753729Y-117627729D01*
X160674397Y-117724397D01*
X160587810Y-117795456D01*
X160534156Y-117839489D01*
X160374157Y-117925010D01*
X160200548Y-117977674D01*
X160020000Y-117995456D01*
X159839453Y-117977674D01*
X159665844Y-117925010D01*
X159505845Y-117839489D01*
X159452191Y-117795456D01*
X159365604Y-117724397D01*
X159250513Y-117584157D01*
X159250512Y-117584155D01*
X159164990Y-117424157D01*
X159112326Y-117250548D01*
X159099000Y-117115244D01*
X159099000Y-116564757D01*
X159112326Y-116429453D01*
X159164990Y-116255844D01*
X159250511Y-116095845D01*
X159283339Y-116055844D01*
X159365603Y-115955603D01*
X159491388Y-115852375D01*
X159505844Y-115840511D01*
X159665843Y-115754990D01*
X159839452Y-115702326D01*
X160020000Y-115684544D01*
X160200547Y-115702326D01*
G37*
G36*
X165879561Y-115692966D02*
G01*
X165912383Y-115702923D01*
X165942632Y-115719092D01*
X165969148Y-115740852D01*
X165990908Y-115767368D01*
X166007077Y-115797617D01*
X166017034Y-115830439D01*
X166021000Y-115870713D01*
X166021000Y-117809287D01*
X166017034Y-117849561D01*
X166007077Y-117882383D01*
X165990908Y-117912632D01*
X165969148Y-117939148D01*
X165942632Y-117960908D01*
X165912383Y-117977077D01*
X165879561Y-117987034D01*
X165839287Y-117991000D01*
X164360713Y-117991000D01*
X164320439Y-117987034D01*
X164287617Y-117977077D01*
X164257368Y-117960908D01*
X164230852Y-117939148D01*
X164209092Y-117912632D01*
X164192923Y-117882383D01*
X164182966Y-117849561D01*
X164179000Y-117809287D01*
X164179000Y-115870713D01*
X164182966Y-115830439D01*
X164192923Y-115797617D01*
X164209092Y-115767368D01*
X164230852Y-115740852D01*
X164257368Y-115719092D01*
X164287617Y-115702923D01*
X164320439Y-115692966D01*
X164360713Y-115689000D01*
X165839287Y-115689000D01*
X165879561Y-115692966D01*
G37*
G36*
X155719561Y-115692966D02*
G01*
X155752383Y-115702923D01*
X155782632Y-115719092D01*
X155809148Y-115740852D01*
X155830908Y-115767368D01*
X155847077Y-115797617D01*
X155857034Y-115830439D01*
X155861000Y-115870713D01*
X155861000Y-117809287D01*
X155857034Y-117849561D01*
X155847077Y-117882383D01*
X155830908Y-117912632D01*
X155809148Y-117939148D01*
X155782632Y-117960908D01*
X155752383Y-117977077D01*
X155719561Y-117987034D01*
X155679287Y-117991000D01*
X154200713Y-117991000D01*
X154160439Y-117987034D01*
X154127617Y-117977077D01*
X154097368Y-117960908D01*
X154070852Y-117939148D01*
X154049092Y-117912632D01*
X154032923Y-117882383D01*
X154022966Y-117849561D01*
X154019000Y-117809287D01*
X154019000Y-115870713D01*
X154022966Y-115830439D01*
X154032923Y-115797617D01*
X154049092Y-115767368D01*
X154070852Y-115740852D01*
X154097368Y-115719092D01*
X154127617Y-115702923D01*
X154160439Y-115692966D01*
X154200713Y-115689000D01*
X155679287Y-115689000D01*
X155719561Y-115692966D01*
G37*
G36*
X157660547Y-115502326D02*
G01*
X157834156Y-115554990D01*
X157834158Y-115554991D01*
X157994155Y-115640511D01*
X158134397Y-115755603D01*
X158195812Y-115830439D01*
X158249489Y-115895844D01*
X158335010Y-116055843D01*
X158387674Y-116229452D01*
X158401000Y-116364756D01*
X158401000Y-116915243D01*
X158387674Y-117050548D01*
X158335010Y-117224157D01*
X158249489Y-117384156D01*
X158216661Y-117424157D01*
X158134397Y-117524397D01*
X158061579Y-117584156D01*
X157994156Y-117639489D01*
X157834157Y-117725010D01*
X157660548Y-117777674D01*
X157480000Y-117795456D01*
X157299453Y-117777674D01*
X157125844Y-117725010D01*
X156965845Y-117639489D01*
X156898422Y-117584156D01*
X156825604Y-117524397D01*
X156710513Y-117384157D01*
X156710512Y-117384155D01*
X156624990Y-117224157D01*
X156572326Y-117050548D01*
X156559000Y-116915244D01*
X156559000Y-116364757D01*
X156572326Y-116229453D01*
X156624990Y-116055844D01*
X156710511Y-115895845D01*
X156731136Y-115870713D01*
X156825603Y-115755603D01*
X156922271Y-115676271D01*
X156965844Y-115640511D01*
X157125843Y-115554990D01*
X157299452Y-115502326D01*
X157480000Y-115484544D01*
X157660547Y-115502326D01*
G37*
G36*
X167820547Y-115502326D02*
G01*
X167994156Y-115554990D01*
X167994158Y-115554991D01*
X168154155Y-115640511D01*
X168294397Y-115755603D01*
X168355812Y-115830439D01*
X168409489Y-115895844D01*
X168495010Y-116055843D01*
X168547674Y-116229452D01*
X168561000Y-116364756D01*
X168561000Y-116915243D01*
X168547674Y-117050548D01*
X168495010Y-117224157D01*
X168409489Y-117384156D01*
X168376661Y-117424157D01*
X168294397Y-117524397D01*
X168221579Y-117584156D01*
X168154156Y-117639489D01*
X167994157Y-117725010D01*
X167820548Y-117777674D01*
X167640000Y-117795456D01*
X167459453Y-117777674D01*
X167285844Y-117725010D01*
X167125845Y-117639489D01*
X167058422Y-117584156D01*
X166985604Y-117524397D01*
X166870513Y-117384157D01*
X166870512Y-117384155D01*
X166784990Y-117224157D01*
X166732326Y-117050548D01*
X166719000Y-116915244D01*
X166719000Y-116364757D01*
X166732326Y-116229453D01*
X166784990Y-116055844D01*
X166870511Y-115895845D01*
X166891136Y-115870713D01*
X166985603Y-115755603D01*
X167082271Y-115676271D01*
X167125844Y-115640511D01*
X167285843Y-115554990D01*
X167459452Y-115502326D01*
X167640000Y-115484544D01*
X167820547Y-115502326D01*
G37*
G36*
X160200547Y-108082326D02*
G01*
X160374156Y-108134990D01*
X160374158Y-108134991D01*
X160534155Y-108220511D01*
X160674397Y-108335603D01*
X160753729Y-108432271D01*
X160789489Y-108475844D01*
X160875010Y-108635843D01*
X160927674Y-108809452D01*
X160941000Y-108944756D01*
X160941000Y-109495243D01*
X160927674Y-109630548D01*
X160875010Y-109804157D01*
X160789489Y-109964156D01*
X160753729Y-110007729D01*
X160674397Y-110104397D01*
X160587810Y-110175456D01*
X160534156Y-110219489D01*
X160374157Y-110305010D01*
X160200548Y-110357674D01*
X160020000Y-110375456D01*
X159839453Y-110357674D01*
X159665844Y-110305010D01*
X159505845Y-110219489D01*
X159452191Y-110175456D01*
X159365604Y-110104397D01*
X159250513Y-109964157D01*
X159250512Y-109964155D01*
X159164990Y-109804157D01*
X159112326Y-109630548D01*
X159099000Y-109495244D01*
X159099000Y-108944757D01*
X159112326Y-108809453D01*
X159164990Y-108635844D01*
X159250511Y-108475845D01*
X159283339Y-108435844D01*
X159365603Y-108335603D01*
X159491388Y-108232375D01*
X159505844Y-108220511D01*
X159665843Y-108134990D01*
X159839452Y-108082326D01*
X160020000Y-108064544D01*
X160200547Y-108082326D01*
G37*
G36*
X170360547Y-108082326D02*
G01*
X170534156Y-108134990D01*
X170534158Y-108134991D01*
X170694155Y-108220511D01*
X170834397Y-108335603D01*
X170913729Y-108432271D01*
X170949489Y-108475844D01*
X171035010Y-108635843D01*
X171087674Y-108809452D01*
X171101000Y-108944756D01*
X171101000Y-109495243D01*
X171087674Y-109630548D01*
X171035010Y-109804157D01*
X170949489Y-109964156D01*
X170913729Y-110007729D01*
X170834397Y-110104397D01*
X170747810Y-110175456D01*
X170694156Y-110219489D01*
X170534157Y-110305010D01*
X170360548Y-110357674D01*
X170180000Y-110375456D01*
X169999453Y-110357674D01*
X169825844Y-110305010D01*
X169665845Y-110219489D01*
X169612191Y-110175456D01*
X169525604Y-110104397D01*
X169410513Y-109964157D01*
X169410512Y-109964155D01*
X169324990Y-109804157D01*
X169272326Y-109630548D01*
X169259000Y-109495244D01*
X169259000Y-108944757D01*
X169272326Y-108809453D01*
X169324990Y-108635844D01*
X169410511Y-108475845D01*
X169443339Y-108435844D01*
X169525603Y-108335603D01*
X169651388Y-108232375D01*
X169665844Y-108220511D01*
X169825843Y-108134990D01*
X169999452Y-108082326D01*
X170180000Y-108064544D01*
X170360547Y-108082326D01*
G37*
G36*
X165879561Y-108072966D02*
G01*
X165912383Y-108082923D01*
X165942632Y-108099092D01*
X165969148Y-108120852D01*
X165990908Y-108147368D01*
X166007077Y-108177617D01*
X166017034Y-108210439D01*
X166021000Y-108250713D01*
X166021000Y-110189287D01*
X166017034Y-110229561D01*
X166007077Y-110262383D01*
X165990908Y-110292632D01*
X165969148Y-110319148D01*
X165942632Y-110340908D01*
X165912383Y-110357077D01*
X165879561Y-110367034D01*
X165839287Y-110371000D01*
X164360713Y-110371000D01*
X164320439Y-110367034D01*
X164287617Y-110357077D01*
X164257368Y-110340908D01*
X164230852Y-110319148D01*
X164209092Y-110292632D01*
X164192923Y-110262383D01*
X164182966Y-110229561D01*
X164179000Y-110189287D01*
X164179000Y-108250713D01*
X164182966Y-108210439D01*
X164192923Y-108177617D01*
X164209092Y-108147368D01*
X164230852Y-108120852D01*
X164257368Y-108099092D01*
X164287617Y-108082923D01*
X164320439Y-108072966D01*
X164360713Y-108069000D01*
X165839287Y-108069000D01*
X165879561Y-108072966D01*
G37*
G36*
X155719561Y-108072966D02*
G01*
X155752383Y-108082923D01*
X155782632Y-108099092D01*
X155809148Y-108120852D01*
X155830908Y-108147368D01*
X155847077Y-108177617D01*
X155857034Y-108210439D01*
X155861000Y-108250713D01*
X155861000Y-110189287D01*
X155857034Y-110229561D01*
X155847077Y-110262383D01*
X155830908Y-110292632D01*
X155809148Y-110319148D01*
X155782632Y-110340908D01*
X155752383Y-110357077D01*
X155719561Y-110367034D01*
X155679287Y-110371000D01*
X154200713Y-110371000D01*
X154160439Y-110367034D01*
X154127617Y-110357077D01*
X154097368Y-110340908D01*
X154070852Y-110319148D01*
X154049092Y-110292632D01*
X154032923Y-110262383D01*
X154022966Y-110229561D01*
X154019000Y-110189287D01*
X154019000Y-108250713D01*
X154022966Y-108210439D01*
X154032923Y-108177617D01*
X154049092Y-108147368D01*
X154070852Y-108120852D01*
X154097368Y-108099092D01*
X154127617Y-108082923D01*
X154160439Y-108072966D01*
X154200713Y-108069000D01*
X155679287Y-108069000D01*
X155719561Y-108072966D01*
G37*
G36*
X157660547Y-107882326D02*
G01*
X157834156Y-107934990D01*
X157834158Y-107934991D01*
X157994155Y-108020511D01*
X158134397Y-108135603D01*
X158195812Y-108210439D01*
X158249489Y-108275844D01*
X158335010Y-108435843D01*
X158387674Y-108609452D01*
X158401000Y-108744756D01*
X158401000Y-109295243D01*
X158387674Y-109430548D01*
X158335010Y-109604157D01*
X158249489Y-109764156D01*
X158216661Y-109804157D01*
X158134397Y-109904397D01*
X158061579Y-109964156D01*
X157994156Y-110019489D01*
X157834157Y-110105010D01*
X157660548Y-110157674D01*
X157480000Y-110175456D01*
X157299453Y-110157674D01*
X157125844Y-110105010D01*
X156965845Y-110019489D01*
X156898422Y-109964156D01*
X156825604Y-109904397D01*
X156710513Y-109764157D01*
X156710512Y-109764155D01*
X156624990Y-109604157D01*
X156572326Y-109430548D01*
X156559000Y-109295244D01*
X156559000Y-108744757D01*
X156572326Y-108609453D01*
X156624990Y-108435844D01*
X156710511Y-108275845D01*
X156731136Y-108250713D01*
X156825603Y-108135603D01*
X156922271Y-108056271D01*
X156965844Y-108020511D01*
X157125843Y-107934990D01*
X157299452Y-107882326D01*
X157480000Y-107864544D01*
X157660547Y-107882326D01*
G37*
G36*
X167820547Y-107882326D02*
G01*
X167994156Y-107934990D01*
X167994158Y-107934991D01*
X168154155Y-108020511D01*
X168294397Y-108135603D01*
X168355812Y-108210439D01*
X168409489Y-108275844D01*
X168495010Y-108435843D01*
X168547674Y-108609452D01*
X168561000Y-108744756D01*
X168561000Y-109295243D01*
X168547674Y-109430548D01*
X168495010Y-109604157D01*
X168409489Y-109764156D01*
X168376661Y-109804157D01*
X168294397Y-109904397D01*
X168221579Y-109964156D01*
X168154156Y-110019489D01*
X167994157Y-110105010D01*
X167820548Y-110157674D01*
X167640000Y-110175456D01*
X167459453Y-110157674D01*
X167285844Y-110105010D01*
X167125845Y-110019489D01*
X167058422Y-109964156D01*
X166985604Y-109904397D01*
X166870513Y-109764157D01*
X166870512Y-109764155D01*
X166784990Y-109604157D01*
X166732326Y-109430548D01*
X166719000Y-109295244D01*
X166719000Y-108744757D01*
X166732326Y-108609453D01*
X166784990Y-108435844D01*
X166870511Y-108275845D01*
X166891136Y-108250713D01*
X166985603Y-108135603D01*
X167082271Y-108056271D01*
X167125844Y-108020511D01*
X167285843Y-107934990D01*
X167459452Y-107882326D01*
X167640000Y-107864544D01*
X167820547Y-107882326D01*
G37*
G36*
X157998604Y-103218347D02*
G01*
X158035144Y-103229432D01*
X158068821Y-103247433D01*
X158098341Y-103271659D01*
X158122567Y-103301179D01*
X158140568Y-103334856D01*
X158151653Y-103371396D01*
X158156000Y-103415538D01*
X158156000Y-104864462D01*
X158151653Y-104908604D01*
X158140568Y-104945144D01*
X158122567Y-104978821D01*
X158098341Y-105008341D01*
X158068821Y-105032567D01*
X158035144Y-105050568D01*
X157998604Y-105061653D01*
X157954462Y-105066000D01*
X157005538Y-105066000D01*
X156961396Y-105061653D01*
X156924856Y-105050568D01*
X156891179Y-105032567D01*
X156861659Y-105008341D01*
X156837433Y-104978821D01*
X156819432Y-104945144D01*
X156808347Y-104908604D01*
X156804000Y-104864462D01*
X156804000Y-103415538D01*
X156808347Y-103371396D01*
X156819432Y-103334856D01*
X156837433Y-103301179D01*
X156861659Y-103271659D01*
X156891179Y-103247433D01*
X156924856Y-103229432D01*
X156961396Y-103218347D01*
X157005538Y-103214000D01*
X157954462Y-103214000D01*
X157998604Y-103218347D01*
G37*
G36*
X167898604Y-103218347D02*
G01*
X167935144Y-103229432D01*
X167968821Y-103247433D01*
X167998341Y-103271659D01*
X168022567Y-103301179D01*
X168040568Y-103334856D01*
X168051653Y-103371396D01*
X168056000Y-103415538D01*
X168056000Y-104864462D01*
X168051653Y-104908604D01*
X168040568Y-104945144D01*
X168022567Y-104978821D01*
X167998341Y-105008341D01*
X167968821Y-105032567D01*
X167935144Y-105050568D01*
X167898604Y-105061653D01*
X167854462Y-105066000D01*
X166905538Y-105066000D01*
X166861396Y-105061653D01*
X166824856Y-105050568D01*
X166791179Y-105032567D01*
X166761659Y-105008341D01*
X166737433Y-104978821D01*
X166719432Y-104945144D01*
X166708347Y-104908604D01*
X166704000Y-104864462D01*
X166704000Y-103415538D01*
X166708347Y-103371396D01*
X166719432Y-103334856D01*
X166737433Y-103301179D01*
X166761659Y-103271659D01*
X166791179Y-103247433D01*
X166824856Y-103229432D01*
X166861396Y-103218347D01*
X166905538Y-103214000D01*
X167854462Y-103214000D01*
X167898604Y-103218347D01*
G37*
G36*
X170698604Y-103218347D02*
G01*
X170735144Y-103229432D01*
X170768821Y-103247433D01*
X170798341Y-103271659D01*
X170822567Y-103301179D01*
X170840568Y-103334856D01*
X170851653Y-103371396D01*
X170856000Y-103415538D01*
X170856000Y-104864462D01*
X170851653Y-104908604D01*
X170840568Y-104945144D01*
X170822567Y-104978821D01*
X170798341Y-105008341D01*
X170768821Y-105032567D01*
X170735144Y-105050568D01*
X170698604Y-105061653D01*
X170654462Y-105066000D01*
X169705538Y-105066000D01*
X169661396Y-105061653D01*
X169624856Y-105050568D01*
X169591179Y-105032567D01*
X169561659Y-105008341D01*
X169537433Y-104978821D01*
X169519432Y-104945144D01*
X169508347Y-104908604D01*
X169504000Y-104864462D01*
X169504000Y-103415538D01*
X169508347Y-103371396D01*
X169519432Y-103334856D01*
X169537433Y-103301179D01*
X169561659Y-103271659D01*
X169591179Y-103247433D01*
X169624856Y-103229432D01*
X169661396Y-103218347D01*
X169705538Y-103214000D01*
X170654462Y-103214000D01*
X170698604Y-103218347D01*
G37*
G36*
X155198604Y-103218347D02*
G01*
X155235144Y-103229432D01*
X155268821Y-103247433D01*
X155298341Y-103271659D01*
X155322567Y-103301179D01*
X155340568Y-103334856D01*
X155351653Y-103371396D01*
X155356000Y-103415538D01*
X155356000Y-104864462D01*
X155351653Y-104908604D01*
X155340568Y-104945144D01*
X155322567Y-104978821D01*
X155298341Y-105008341D01*
X155268821Y-105032567D01*
X155235144Y-105050568D01*
X155198604Y-105061653D01*
X155154462Y-105066000D01*
X154205538Y-105066000D01*
X154161396Y-105061653D01*
X154124856Y-105050568D01*
X154091179Y-105032567D01*
X154061659Y-105008341D01*
X154037433Y-104978821D01*
X154019432Y-104945144D01*
X154008347Y-104908604D01*
X154004000Y-104864462D01*
X154004000Y-103415538D01*
X154008347Y-103371396D01*
X154019432Y-103334856D01*
X154037433Y-103301179D01*
X154061659Y-103271659D01*
X154091179Y-103247433D01*
X154124856Y-103229432D01*
X154161396Y-103218347D01*
X154205538Y-103214000D01*
X155154462Y-103214000D01*
X155198604Y-103218347D01*
G37*
G36*
X161071000Y-100111000D02*
G01*
X158969000Y-100111000D01*
X158969000Y-98009000D01*
X161071000Y-98009000D01*
X161071000Y-100111000D01*
G37*
G36*
X165326564Y-98049389D02*
G01*
X165517833Y-98128615D01*
X165517835Y-98128616D01*
X165689973Y-98243635D01*
X165836365Y-98390027D01*
X165951385Y-98562167D01*
X166030611Y-98753436D01*
X166071000Y-98956484D01*
X166071000Y-99163516D01*
X166030611Y-99366564D01*
X165951385Y-99557833D01*
X165951384Y-99557835D01*
X165836365Y-99729973D01*
X165689973Y-99876365D01*
X165517835Y-99991384D01*
X165517834Y-99991385D01*
X165517833Y-99991385D01*
X165326564Y-100070611D01*
X165123516Y-100111000D01*
X164916484Y-100111000D01*
X164713436Y-100070611D01*
X164522167Y-99991385D01*
X164522166Y-99991385D01*
X164522165Y-99991384D01*
X164350027Y-99876365D01*
X164203635Y-99729973D01*
X164088616Y-99557835D01*
X164088615Y-99557833D01*
X164009389Y-99366564D01*
X163969000Y-99163516D01*
X163969000Y-98956484D01*
X164009389Y-98753436D01*
X164088615Y-98562167D01*
X164203635Y-98390027D01*
X164350027Y-98243635D01*
X164522165Y-98128616D01*
X164522167Y-98128615D01*
X164713436Y-98049389D01*
X164916484Y-98009000D01*
X165123516Y-98009000D01*
X165326564Y-98049389D01*
G37*
G36*
X165280547Y-87962326D02*
G01*
X165454156Y-88014990D01*
X165454158Y-88014991D01*
X165614155Y-88100511D01*
X165754397Y-88215603D01*
X165815369Y-88289899D01*
X165869489Y-88355844D01*
X165955010Y-88515843D01*
X166007674Y-88689452D01*
X166021000Y-88824756D01*
X166021000Y-89375243D01*
X166007674Y-89510548D01*
X165955010Y-89684157D01*
X165869489Y-89844156D01*
X165838813Y-89881534D01*
X165754397Y-89984397D01*
X165667810Y-90055456D01*
X165614156Y-90099489D01*
X165454157Y-90185010D01*
X165280548Y-90237674D01*
X165100000Y-90255456D01*
X164919453Y-90237674D01*
X164745844Y-90185010D01*
X164585845Y-90099489D01*
X164532191Y-90055456D01*
X164445604Y-89984397D01*
X164330513Y-89844157D01*
X164330512Y-89844155D01*
X164244990Y-89684157D01*
X164192326Y-89510548D01*
X164179000Y-89375244D01*
X164179000Y-88824757D01*
X164192326Y-88689453D01*
X164244990Y-88515844D01*
X164330511Y-88355845D01*
X164348888Y-88333452D01*
X164445603Y-88215603D01*
X164571388Y-88112375D01*
X164585844Y-88100511D01*
X164745843Y-88014990D01*
X164919452Y-87962326D01*
X165100000Y-87944544D01*
X165280547Y-87962326D01*
G37*
G36*
X160799561Y-87952966D02*
G01*
X160832383Y-87962923D01*
X160862632Y-87979092D01*
X160889148Y-88000852D01*
X160910908Y-88027368D01*
X160927077Y-88057617D01*
X160937034Y-88090439D01*
X160941000Y-88130713D01*
X160941000Y-90069287D01*
X160937034Y-90109561D01*
X160927077Y-90142383D01*
X160910908Y-90172632D01*
X160889148Y-90199148D01*
X160862632Y-90220908D01*
X160832383Y-90237077D01*
X160799561Y-90247034D01*
X160759287Y-90251000D01*
X159280713Y-90251000D01*
X159240439Y-90247034D01*
X159207617Y-90237077D01*
X159177368Y-90220908D01*
X159150852Y-90199148D01*
X159129092Y-90172632D01*
X159112923Y-90142383D01*
X159102966Y-90109561D01*
X159099000Y-90069287D01*
X159099000Y-88130713D01*
X159102966Y-88090439D01*
X159112923Y-88057617D01*
X159129092Y-88027368D01*
X159150852Y-88000852D01*
X159177368Y-87979092D01*
X159207617Y-87962923D01*
X159240439Y-87952966D01*
X159280713Y-87949000D01*
X160759287Y-87949000D01*
X160799561Y-87952966D01*
G37*
G36*
X162740547Y-87762326D02*
G01*
X162914156Y-87814990D01*
X162914158Y-87814991D01*
X163074155Y-87900511D01*
X163214397Y-88015603D01*
X163275812Y-88090439D01*
X163329489Y-88155844D01*
X163415010Y-88315843D01*
X163467674Y-88489452D01*
X163481000Y-88624756D01*
X163481000Y-89175243D01*
X163467674Y-89310548D01*
X163415010Y-89484157D01*
X163329489Y-89644156D01*
X163296661Y-89684157D01*
X163214397Y-89784397D01*
X163117729Y-89863729D01*
X163074156Y-89899489D01*
X162914157Y-89985010D01*
X162740548Y-90037674D01*
X162560000Y-90055456D01*
X162379453Y-90037674D01*
X162205844Y-89985010D01*
X162045845Y-89899489D01*
X162002272Y-89863729D01*
X161905604Y-89784397D01*
X161790513Y-89644157D01*
X161790512Y-89644155D01*
X161704990Y-89484157D01*
X161652326Y-89310548D01*
X161639000Y-89175244D01*
X161639000Y-88624757D01*
X161652326Y-88489453D01*
X161704990Y-88315844D01*
X161724561Y-88279230D01*
X161790511Y-88155845D01*
X161905603Y-88015603D01*
X162002271Y-87936271D01*
X162045844Y-87900511D01*
X162205843Y-87814990D01*
X162379452Y-87762326D01*
X162560000Y-87744544D01*
X162740547Y-87762326D01*
G37*
G36*
X168863674Y-88668465D02*
G01*
X168901367Y-88679899D01*
X168936103Y-88698466D01*
X168966548Y-88723452D01*
X168991534Y-88753897D01*
X169010101Y-88788633D01*
X169021535Y-88826326D01*
X169026000Y-88871661D01*
X169026000Y-89708339D01*
X169021535Y-89753674D01*
X169010101Y-89791367D01*
X168991534Y-89826103D01*
X168966548Y-89856548D01*
X168936103Y-89881534D01*
X168901367Y-89900101D01*
X168863674Y-89911535D01*
X168818339Y-89916000D01*
X167731661Y-89916000D01*
X167686326Y-89911535D01*
X167648633Y-89900101D01*
X167613897Y-89881534D01*
X167583452Y-89856548D01*
X167558466Y-89826103D01*
X167539899Y-89791367D01*
X167528465Y-89753674D01*
X167524000Y-89708339D01*
X167524000Y-88871661D01*
X167528465Y-88826326D01*
X167539899Y-88788633D01*
X167558466Y-88753897D01*
X167583452Y-88723452D01*
X167613897Y-88698466D01*
X167648633Y-88679899D01*
X167686326Y-88668465D01*
X167731661Y-88664000D01*
X168818339Y-88664000D01*
X168863674Y-88668465D01*
G37*
G36*
X157433674Y-88278465D02*
G01*
X157471367Y-88289899D01*
X157506103Y-88308466D01*
X157536548Y-88333452D01*
X157561534Y-88363897D01*
X157580101Y-88398633D01*
X157591535Y-88436326D01*
X157596000Y-88481661D01*
X157596000Y-89318339D01*
X157591535Y-89363674D01*
X157580101Y-89401367D01*
X157561534Y-89436103D01*
X157536548Y-89466548D01*
X157506103Y-89491534D01*
X157471367Y-89510101D01*
X157433674Y-89521535D01*
X157388339Y-89526000D01*
X156301661Y-89526000D01*
X156256326Y-89521535D01*
X156218633Y-89510101D01*
X156183897Y-89491534D01*
X156153452Y-89466548D01*
X156128466Y-89436103D01*
X156109899Y-89401367D01*
X156098465Y-89363674D01*
X156094000Y-89318339D01*
X156094000Y-88481661D01*
X156098465Y-88436326D01*
X156109899Y-88398633D01*
X156128466Y-88363897D01*
X156153452Y-88333452D01*
X156183897Y-88308466D01*
X156218633Y-88289899D01*
X156256326Y-88278465D01*
X156301661Y-88274000D01*
X157388339Y-88274000D01*
X157433674Y-88278465D01*
G37*
G36*
X168863674Y-86618465D02*
G01*
X168901367Y-86629899D01*
X168936103Y-86648466D01*
X168966548Y-86673452D01*
X168991534Y-86703897D01*
X169010101Y-86738633D01*
X169021535Y-86776326D01*
X169026000Y-86821661D01*
X169026000Y-87658339D01*
X169021535Y-87703674D01*
X169010101Y-87741367D01*
X168991534Y-87776103D01*
X168966548Y-87806548D01*
X168936103Y-87831534D01*
X168901367Y-87850101D01*
X168863674Y-87861535D01*
X168818339Y-87866000D01*
X167731661Y-87866000D01*
X167686326Y-87861535D01*
X167648633Y-87850101D01*
X167613897Y-87831534D01*
X167583452Y-87806548D01*
X167558466Y-87776103D01*
X167539899Y-87741367D01*
X167528465Y-87703674D01*
X167524000Y-87658339D01*
X167524000Y-86821661D01*
X167528465Y-86776326D01*
X167539899Y-86738633D01*
X167558466Y-86703897D01*
X167583452Y-86673452D01*
X167613897Y-86648466D01*
X167648633Y-86629899D01*
X167686326Y-86618465D01*
X167731661Y-86614000D01*
X168818339Y-86614000D01*
X168863674Y-86618465D01*
G37*
G36*
X157433674Y-86228465D02*
G01*
X157471367Y-86239899D01*
X157506103Y-86258466D01*
X157536548Y-86283452D01*
X157561534Y-86313897D01*
X157580101Y-86348633D01*
X157591535Y-86386326D01*
X157596000Y-86431661D01*
X157596000Y-87268339D01*
X157591535Y-87313674D01*
X157580101Y-87351367D01*
X157561534Y-87386103D01*
X157536548Y-87416548D01*
X157506103Y-87441534D01*
X157471367Y-87460101D01*
X157433674Y-87471535D01*
X157388339Y-87476000D01*
X156301661Y-87476000D01*
X156256326Y-87471535D01*
X156218633Y-87460101D01*
X156183897Y-87441534D01*
X156153452Y-87416548D01*
X156128466Y-87386103D01*
X156109899Y-87351367D01*
X156098465Y-87313674D01*
X156094000Y-87268339D01*
X156094000Y-86431661D01*
X156098465Y-86386326D01*
X156109899Y-86348633D01*
X156128466Y-86313897D01*
X156153452Y-86283452D01*
X156183897Y-86258466D01*
X156218633Y-86239899D01*
X156256326Y-86228465D01*
X156301661Y-86224000D01*
X157388339Y-86224000D01*
X157433674Y-86228465D01*
G37*
G36*
X161071000Y-79791000D02*
G01*
X158969000Y-79791000D01*
X158969000Y-77689000D01*
X161071000Y-77689000D01*
X161071000Y-79791000D01*
G37*
G36*
X165326564Y-77729389D02*
G01*
X165517833Y-77808615D01*
X165517835Y-77808616D01*
X165689973Y-77923635D01*
X165836365Y-78070027D01*
X165951385Y-78242167D01*
X166030611Y-78433436D01*
X166071000Y-78636484D01*
X166071000Y-78843516D01*
X166030611Y-79046564D01*
X165951385Y-79237833D01*
X165951384Y-79237835D01*
X165836365Y-79409973D01*
X165689973Y-79556365D01*
X165517835Y-79671384D01*
X165517834Y-79671385D01*
X165517833Y-79671385D01*
X165326564Y-79750611D01*
X165123516Y-79791000D01*
X164916484Y-79791000D01*
X164713436Y-79750611D01*
X164522167Y-79671385D01*
X164522166Y-79671385D01*
X164522165Y-79671384D01*
X164350027Y-79556365D01*
X164203635Y-79409973D01*
X164088616Y-79237835D01*
X164088615Y-79237833D01*
X164009389Y-79046564D01*
X163969000Y-78843516D01*
X163969000Y-78636484D01*
X164009389Y-78433436D01*
X164088615Y-78242167D01*
X164203635Y-78070027D01*
X164350027Y-77923635D01*
X164522165Y-77808616D01*
X164522167Y-77808615D01*
X164713436Y-77729389D01*
X164916484Y-77689000D01*
X165123516Y-77689000D01*
X165326564Y-77729389D01*
G37*
G36*
X155198604Y-72738347D02*
G01*
X155235144Y-72749432D01*
X155268821Y-72767433D01*
X155298341Y-72791659D01*
X155322567Y-72821179D01*
X155340568Y-72854856D01*
X155351653Y-72891396D01*
X155356000Y-72935538D01*
X155356000Y-74384462D01*
X155351653Y-74428604D01*
X155340568Y-74465144D01*
X155322567Y-74498821D01*
X155298341Y-74528341D01*
X155268821Y-74552567D01*
X155235144Y-74570568D01*
X155198604Y-74581653D01*
X155154462Y-74586000D01*
X154205538Y-74586000D01*
X154161396Y-74581653D01*
X154124856Y-74570568D01*
X154091179Y-74552567D01*
X154061659Y-74528341D01*
X154037433Y-74498821D01*
X154019432Y-74465144D01*
X154008347Y-74428604D01*
X154004000Y-74384462D01*
X154004000Y-72935538D01*
X154008347Y-72891396D01*
X154019432Y-72854856D01*
X154037433Y-72821179D01*
X154061659Y-72791659D01*
X154091179Y-72767433D01*
X154124856Y-72749432D01*
X154161396Y-72738347D01*
X154205538Y-72734000D01*
X155154462Y-72734000D01*
X155198604Y-72738347D01*
G37*
G36*
X157998604Y-72738347D02*
G01*
X158035144Y-72749432D01*
X158068821Y-72767433D01*
X158098341Y-72791659D01*
X158122567Y-72821179D01*
X158140568Y-72854856D01*
X158151653Y-72891396D01*
X158156000Y-72935538D01*
X158156000Y-74384462D01*
X158151653Y-74428604D01*
X158140568Y-74465144D01*
X158122567Y-74498821D01*
X158098341Y-74528341D01*
X158068821Y-74552567D01*
X158035144Y-74570568D01*
X157998604Y-74581653D01*
X157954462Y-74586000D01*
X157005538Y-74586000D01*
X156961396Y-74581653D01*
X156924856Y-74570568D01*
X156891179Y-74552567D01*
X156861659Y-74528341D01*
X156837433Y-74498821D01*
X156819432Y-74465144D01*
X156808347Y-74428604D01*
X156804000Y-74384462D01*
X156804000Y-72935538D01*
X156808347Y-72891396D01*
X156819432Y-72854856D01*
X156837433Y-72821179D01*
X156861659Y-72791659D01*
X156891179Y-72767433D01*
X156924856Y-72749432D01*
X156961396Y-72738347D01*
X157005538Y-72734000D01*
X157954462Y-72734000D01*
X157998604Y-72738347D01*
G37*
G36*
X170698604Y-72738347D02*
G01*
X170735144Y-72749432D01*
X170768821Y-72767433D01*
X170798341Y-72791659D01*
X170822567Y-72821179D01*
X170840568Y-72854856D01*
X170851653Y-72891396D01*
X170856000Y-72935538D01*
X170856000Y-74384462D01*
X170851653Y-74428604D01*
X170840568Y-74465144D01*
X170822567Y-74498821D01*
X170798341Y-74528341D01*
X170768821Y-74552567D01*
X170735144Y-74570568D01*
X170698604Y-74581653D01*
X170654462Y-74586000D01*
X169705538Y-74586000D01*
X169661396Y-74581653D01*
X169624856Y-74570568D01*
X169591179Y-74552567D01*
X169561659Y-74528341D01*
X169537433Y-74498821D01*
X169519432Y-74465144D01*
X169508347Y-74428604D01*
X169504000Y-74384462D01*
X169504000Y-72935538D01*
X169508347Y-72891396D01*
X169519432Y-72854856D01*
X169537433Y-72821179D01*
X169561659Y-72791659D01*
X169591179Y-72767433D01*
X169624856Y-72749432D01*
X169661396Y-72738347D01*
X169705538Y-72734000D01*
X170654462Y-72734000D01*
X170698604Y-72738347D01*
G37*
G36*
X167898604Y-72738347D02*
G01*
X167935144Y-72749432D01*
X167968821Y-72767433D01*
X167998341Y-72791659D01*
X168022567Y-72821179D01*
X168040568Y-72854856D01*
X168051653Y-72891396D01*
X168056000Y-72935538D01*
X168056000Y-74384462D01*
X168051653Y-74428604D01*
X168040568Y-74465144D01*
X168022567Y-74498821D01*
X167998341Y-74528341D01*
X167968821Y-74552567D01*
X167935144Y-74570568D01*
X167898604Y-74581653D01*
X167854462Y-74586000D01*
X166905538Y-74586000D01*
X166861396Y-74581653D01*
X166824856Y-74570568D01*
X166791179Y-74552567D01*
X166761659Y-74528341D01*
X166737433Y-74498821D01*
X166719432Y-74465144D01*
X166708347Y-74428604D01*
X166704000Y-74384462D01*
X166704000Y-72935538D01*
X166708347Y-72891396D01*
X166719432Y-72854856D01*
X166737433Y-72821179D01*
X166761659Y-72791659D01*
X166791179Y-72767433D01*
X166824856Y-72749432D01*
X166861396Y-72738347D01*
X166905538Y-72734000D01*
X167854462Y-72734000D01*
X167898604Y-72738347D01*
G37*
G36*
X170360547Y-67442326D02*
G01*
X170534156Y-67494990D01*
X170534158Y-67494991D01*
X170694155Y-67580511D01*
X170834397Y-67695603D01*
X170913729Y-67792271D01*
X170949489Y-67835844D01*
X171035010Y-67995843D01*
X171087674Y-68169452D01*
X171101000Y-68304756D01*
X171101000Y-68855243D01*
X171087674Y-68990548D01*
X171035010Y-69164157D01*
X170949489Y-69324156D01*
X170913729Y-69367729D01*
X170834397Y-69464397D01*
X170747810Y-69535456D01*
X170694156Y-69579489D01*
X170534157Y-69665010D01*
X170360548Y-69717674D01*
X170180000Y-69735456D01*
X169999453Y-69717674D01*
X169825844Y-69665010D01*
X169665845Y-69579489D01*
X169612191Y-69535456D01*
X169525604Y-69464397D01*
X169410513Y-69324157D01*
X169410512Y-69324155D01*
X169324990Y-69164157D01*
X169272326Y-68990548D01*
X169259000Y-68855244D01*
X169259000Y-68304757D01*
X169272326Y-68169453D01*
X169324990Y-67995844D01*
X169410511Y-67835845D01*
X169443339Y-67795844D01*
X169525603Y-67695603D01*
X169651388Y-67592375D01*
X169665844Y-67580511D01*
X169825843Y-67494990D01*
X169999452Y-67442326D01*
X170180000Y-67424544D01*
X170360547Y-67442326D01*
G37*
G36*
X160200547Y-67442326D02*
G01*
X160374156Y-67494990D01*
X160374158Y-67494991D01*
X160534155Y-67580511D01*
X160674397Y-67695603D01*
X160753729Y-67792271D01*
X160789489Y-67835844D01*
X160875010Y-67995843D01*
X160927674Y-68169452D01*
X160941000Y-68304756D01*
X160941000Y-68855243D01*
X160927674Y-68990548D01*
X160875010Y-69164157D01*
X160789489Y-69324156D01*
X160753729Y-69367729D01*
X160674397Y-69464397D01*
X160587810Y-69535456D01*
X160534156Y-69579489D01*
X160374157Y-69665010D01*
X160200548Y-69717674D01*
X160020000Y-69735456D01*
X159839453Y-69717674D01*
X159665844Y-69665010D01*
X159505845Y-69579489D01*
X159452191Y-69535456D01*
X159365604Y-69464397D01*
X159250513Y-69324157D01*
X159250512Y-69324155D01*
X159164990Y-69164157D01*
X159112326Y-68990548D01*
X159099000Y-68855244D01*
X159099000Y-68304757D01*
X159112326Y-68169453D01*
X159164990Y-67995844D01*
X159250511Y-67835845D01*
X159283339Y-67795844D01*
X159365603Y-67695603D01*
X159491388Y-67592375D01*
X159505844Y-67580511D01*
X159665843Y-67494990D01*
X159839452Y-67442326D01*
X160020000Y-67424544D01*
X160200547Y-67442326D01*
G37*
G36*
X165879561Y-67432966D02*
G01*
X165912383Y-67442923D01*
X165942632Y-67459092D01*
X165969148Y-67480852D01*
X165990908Y-67507368D01*
X166007077Y-67537617D01*
X166017034Y-67570439D01*
X166021000Y-67610713D01*
X166021000Y-69549287D01*
X166017034Y-69589561D01*
X166007077Y-69622383D01*
X165990908Y-69652632D01*
X165969148Y-69679148D01*
X165942632Y-69700908D01*
X165912383Y-69717077D01*
X165879561Y-69727034D01*
X165839287Y-69731000D01*
X164360713Y-69731000D01*
X164320439Y-69727034D01*
X164287617Y-69717077D01*
X164257368Y-69700908D01*
X164230852Y-69679148D01*
X164209092Y-69652632D01*
X164192923Y-69622383D01*
X164182966Y-69589561D01*
X164179000Y-69549287D01*
X164179000Y-67610713D01*
X164182966Y-67570439D01*
X164192923Y-67537617D01*
X164209092Y-67507368D01*
X164230852Y-67480852D01*
X164257368Y-67459092D01*
X164287617Y-67442923D01*
X164320439Y-67432966D01*
X164360713Y-67429000D01*
X165839287Y-67429000D01*
X165879561Y-67432966D01*
G37*
G36*
X155719561Y-67432966D02*
G01*
X155752383Y-67442923D01*
X155782632Y-67459092D01*
X155809148Y-67480852D01*
X155830908Y-67507368D01*
X155847077Y-67537617D01*
X155857034Y-67570439D01*
X155861000Y-67610713D01*
X155861000Y-69549287D01*
X155857034Y-69589561D01*
X155847077Y-69622383D01*
X155830908Y-69652632D01*
X155809148Y-69679148D01*
X155782632Y-69700908D01*
X155752383Y-69717077D01*
X155719561Y-69727034D01*
X155679287Y-69731000D01*
X154200713Y-69731000D01*
X154160439Y-69727034D01*
X154127617Y-69717077D01*
X154097368Y-69700908D01*
X154070852Y-69679148D01*
X154049092Y-69652632D01*
X154032923Y-69622383D01*
X154022966Y-69589561D01*
X154019000Y-69549287D01*
X154019000Y-67610713D01*
X154022966Y-67570439D01*
X154032923Y-67537617D01*
X154049092Y-67507368D01*
X154070852Y-67480852D01*
X154097368Y-67459092D01*
X154127617Y-67442923D01*
X154160439Y-67432966D01*
X154200713Y-67429000D01*
X155679287Y-67429000D01*
X155719561Y-67432966D01*
G37*
G36*
X167820547Y-67242326D02*
G01*
X167994156Y-67294990D01*
X167994158Y-67294991D01*
X168154155Y-67380511D01*
X168294397Y-67495603D01*
X168355812Y-67570439D01*
X168409489Y-67635844D01*
X168495010Y-67795843D01*
X168547674Y-67969452D01*
X168561000Y-68104756D01*
X168561000Y-68655243D01*
X168547674Y-68790548D01*
X168495010Y-68964157D01*
X168409489Y-69124156D01*
X168376661Y-69164157D01*
X168294397Y-69264397D01*
X168221579Y-69324156D01*
X168154156Y-69379489D01*
X167994157Y-69465010D01*
X167820548Y-69517674D01*
X167640000Y-69535456D01*
X167459453Y-69517674D01*
X167285844Y-69465010D01*
X167125845Y-69379489D01*
X167058422Y-69324156D01*
X166985604Y-69264397D01*
X166870513Y-69124157D01*
X166870512Y-69124155D01*
X166784990Y-68964157D01*
X166732326Y-68790548D01*
X166719000Y-68655244D01*
X166719000Y-68104757D01*
X166732326Y-67969453D01*
X166784990Y-67795844D01*
X166870511Y-67635845D01*
X166891136Y-67610713D01*
X166985603Y-67495603D01*
X167082271Y-67416271D01*
X167125844Y-67380511D01*
X167285843Y-67294990D01*
X167459452Y-67242326D01*
X167640000Y-67224544D01*
X167820547Y-67242326D01*
G37*
G36*
X157660547Y-67242326D02*
G01*
X157834156Y-67294990D01*
X157834158Y-67294991D01*
X157994155Y-67380511D01*
X158134397Y-67495603D01*
X158195812Y-67570439D01*
X158249489Y-67635844D01*
X158335010Y-67795843D01*
X158387674Y-67969452D01*
X158401000Y-68104756D01*
X158401000Y-68655243D01*
X158387674Y-68790548D01*
X158335010Y-68964157D01*
X158249489Y-69124156D01*
X158216661Y-69164157D01*
X158134397Y-69264397D01*
X158061579Y-69324156D01*
X157994156Y-69379489D01*
X157834157Y-69465010D01*
X157660548Y-69517674D01*
X157480000Y-69535456D01*
X157299453Y-69517674D01*
X157125844Y-69465010D01*
X156965845Y-69379489D01*
X156898422Y-69324156D01*
X156825604Y-69264397D01*
X156710513Y-69124157D01*
X156710512Y-69124155D01*
X156624990Y-68964157D01*
X156572326Y-68790548D01*
X156559000Y-68655244D01*
X156559000Y-68104757D01*
X156572326Y-67969453D01*
X156624990Y-67795844D01*
X156710511Y-67635845D01*
X156731136Y-67610713D01*
X156825603Y-67495603D01*
X156922271Y-67416271D01*
X156965844Y-67380511D01*
X157125843Y-67294990D01*
X157299452Y-67242326D01*
X157480000Y-67224544D01*
X157660547Y-67242326D01*
G37*
G36*
X170360547Y-59822326D02*
G01*
X170534156Y-59874990D01*
X170534158Y-59874991D01*
X170694155Y-59960511D01*
X170834397Y-60075603D01*
X170913729Y-60172271D01*
X170949489Y-60215844D01*
X171035010Y-60375843D01*
X171087674Y-60549452D01*
X171101000Y-60684756D01*
X171101000Y-61235243D01*
X171087674Y-61370548D01*
X171035010Y-61544157D01*
X170949489Y-61704156D01*
X170913729Y-61747729D01*
X170834397Y-61844397D01*
X170747810Y-61915456D01*
X170694156Y-61959489D01*
X170534157Y-62045010D01*
X170360548Y-62097674D01*
X170180000Y-62115456D01*
X169999453Y-62097674D01*
X169825844Y-62045010D01*
X169665845Y-61959489D01*
X169612191Y-61915456D01*
X169525604Y-61844397D01*
X169410513Y-61704157D01*
X169410512Y-61704155D01*
X169324990Y-61544157D01*
X169272326Y-61370548D01*
X169259000Y-61235244D01*
X169259000Y-60684757D01*
X169272326Y-60549453D01*
X169324990Y-60375844D01*
X169410511Y-60215845D01*
X169443339Y-60175844D01*
X169525603Y-60075603D01*
X169651388Y-59972375D01*
X169665844Y-59960511D01*
X169825843Y-59874990D01*
X169999452Y-59822326D01*
X170180000Y-59804544D01*
X170360547Y-59822326D01*
G37*
G36*
X160200547Y-59822326D02*
G01*
X160374156Y-59874990D01*
X160374158Y-59874991D01*
X160534155Y-59960511D01*
X160674397Y-60075603D01*
X160753729Y-60172271D01*
X160789489Y-60215844D01*
X160875010Y-60375843D01*
X160927674Y-60549452D01*
X160941000Y-60684756D01*
X160941000Y-61235243D01*
X160927674Y-61370548D01*
X160875010Y-61544157D01*
X160789489Y-61704156D01*
X160753729Y-61747729D01*
X160674397Y-61844397D01*
X160587810Y-61915456D01*
X160534156Y-61959489D01*
X160374157Y-62045010D01*
X160200548Y-62097674D01*
X160020000Y-62115456D01*
X159839453Y-62097674D01*
X159665844Y-62045010D01*
X159505845Y-61959489D01*
X159452191Y-61915456D01*
X159365604Y-61844397D01*
X159250513Y-61704157D01*
X159250512Y-61704155D01*
X159164990Y-61544157D01*
X159112326Y-61370548D01*
X159099000Y-61235244D01*
X159099000Y-60684757D01*
X159112326Y-60549453D01*
X159164990Y-60375844D01*
X159250511Y-60215845D01*
X159283339Y-60175844D01*
X159365603Y-60075603D01*
X159491388Y-59972375D01*
X159505844Y-59960511D01*
X159665843Y-59874990D01*
X159839452Y-59822326D01*
X160020000Y-59804544D01*
X160200547Y-59822326D01*
G37*
G36*
X165879561Y-59812966D02*
G01*
X165912383Y-59822923D01*
X165942632Y-59839092D01*
X165969148Y-59860852D01*
X165990908Y-59887368D01*
X166007077Y-59917617D01*
X166017034Y-59950439D01*
X166021000Y-59990713D01*
X166021000Y-61929287D01*
X166017034Y-61969561D01*
X166007077Y-62002383D01*
X165990908Y-62032632D01*
X165969148Y-62059148D01*
X165942632Y-62080908D01*
X165912383Y-62097077D01*
X165879561Y-62107034D01*
X165839287Y-62111000D01*
X164360713Y-62111000D01*
X164320439Y-62107034D01*
X164287617Y-62097077D01*
X164257368Y-62080908D01*
X164230852Y-62059148D01*
X164209092Y-62032632D01*
X164192923Y-62002383D01*
X164182966Y-61969561D01*
X164179000Y-61929287D01*
X164179000Y-59990713D01*
X164182966Y-59950439D01*
X164192923Y-59917617D01*
X164209092Y-59887368D01*
X164230852Y-59860852D01*
X164257368Y-59839092D01*
X164287617Y-59822923D01*
X164320439Y-59812966D01*
X164360713Y-59809000D01*
X165839287Y-59809000D01*
X165879561Y-59812966D01*
G37*
G36*
X155719561Y-59812966D02*
G01*
X155752383Y-59822923D01*
X155782632Y-59839092D01*
X155809148Y-59860852D01*
X155830908Y-59887368D01*
X155847077Y-59917617D01*
X155857034Y-59950439D01*
X155861000Y-59990713D01*
X155861000Y-61929287D01*
X155857034Y-61969561D01*
X155847077Y-62002383D01*
X155830908Y-62032632D01*
X155809148Y-62059148D01*
X155782632Y-62080908D01*
X155752383Y-62097077D01*
X155719561Y-62107034D01*
X155679287Y-62111000D01*
X154200713Y-62111000D01*
X154160439Y-62107034D01*
X154127617Y-62097077D01*
X154097368Y-62080908D01*
X154070852Y-62059148D01*
X154049092Y-62032632D01*
X154032923Y-62002383D01*
X154022966Y-61969561D01*
X154019000Y-61929287D01*
X154019000Y-59990713D01*
X154022966Y-59950439D01*
X154032923Y-59917617D01*
X154049092Y-59887368D01*
X154070852Y-59860852D01*
X154097368Y-59839092D01*
X154127617Y-59822923D01*
X154160439Y-59812966D01*
X154200713Y-59809000D01*
X155679287Y-59809000D01*
X155719561Y-59812966D01*
G37*
G36*
X157660547Y-59622326D02*
G01*
X157834156Y-59674990D01*
X157834158Y-59674991D01*
X157994155Y-59760511D01*
X158134397Y-59875603D01*
X158195812Y-59950439D01*
X158249489Y-60015844D01*
X158335010Y-60175843D01*
X158387674Y-60349452D01*
X158401000Y-60484756D01*
X158401000Y-61035243D01*
X158387674Y-61170548D01*
X158335010Y-61344157D01*
X158249489Y-61504156D01*
X158216661Y-61544157D01*
X158134397Y-61644397D01*
X158061579Y-61704156D01*
X157994156Y-61759489D01*
X157834157Y-61845010D01*
X157660548Y-61897674D01*
X157480000Y-61915456D01*
X157299453Y-61897674D01*
X157125844Y-61845010D01*
X156965845Y-61759489D01*
X156898422Y-61704156D01*
X156825604Y-61644397D01*
X156710513Y-61504157D01*
X156710512Y-61504155D01*
X156624990Y-61344157D01*
X156572326Y-61170548D01*
X156559000Y-61035244D01*
X156559000Y-60484757D01*
X156572326Y-60349453D01*
X156624990Y-60175844D01*
X156710511Y-60015845D01*
X156731136Y-59990713D01*
X156825603Y-59875603D01*
X156922271Y-59796271D01*
X156965844Y-59760511D01*
X157125843Y-59674990D01*
X157299452Y-59622326D01*
X157480000Y-59604544D01*
X157660547Y-59622326D01*
G37*
G36*
X167820547Y-59622326D02*
G01*
X167994156Y-59674990D01*
X167994158Y-59674991D01*
X168154155Y-59760511D01*
X168294397Y-59875603D01*
X168355812Y-59950439D01*
X168409489Y-60015844D01*
X168495010Y-60175843D01*
X168547674Y-60349452D01*
X168561000Y-60484756D01*
X168561000Y-61035243D01*
X168547674Y-61170548D01*
X168495010Y-61344157D01*
X168409489Y-61504156D01*
X168376661Y-61544157D01*
X168294397Y-61644397D01*
X168221579Y-61704156D01*
X168154156Y-61759489D01*
X167994157Y-61845010D01*
X167820548Y-61897674D01*
X167640000Y-61915456D01*
X167459453Y-61897674D01*
X167285844Y-61845010D01*
X167125845Y-61759489D01*
X167058422Y-61704156D01*
X166985604Y-61644397D01*
X166870513Y-61504157D01*
X166870512Y-61504155D01*
X166784990Y-61344157D01*
X166732326Y-61170548D01*
X166719000Y-61035244D01*
X166719000Y-60484757D01*
X166732326Y-60349453D01*
X166784990Y-60175844D01*
X166870511Y-60015845D01*
X166891136Y-59990713D01*
X166985603Y-59875603D01*
X167082271Y-59796271D01*
X167125844Y-59760511D01*
X167285843Y-59674990D01*
X167459452Y-59622326D01*
X167640000Y-59604544D01*
X167820547Y-59622326D01*
G37*
G36*
X162935256Y-51096298D02*
G01*
X163041579Y-51117447D01*
X163342042Y-51241903D01*
X163612451Y-51422585D01*
X163842415Y-51652549D01*
X164023097Y-51922958D01*
X164147553Y-52223421D01*
X164211000Y-52542391D01*
X164211000Y-52867609D01*
X164147553Y-53186579D01*
X164023097Y-53487042D01*
X163842415Y-53757451D01*
X163612451Y-53987415D01*
X163342042Y-54168097D01*
X163041579Y-54292553D01*
X162935256Y-54313702D01*
X162722611Y-54356000D01*
X162397389Y-54356000D01*
X162184744Y-54313702D01*
X162078421Y-54292553D01*
X161777958Y-54168097D01*
X161507549Y-53987415D01*
X161277585Y-53757451D01*
X161096903Y-53487042D01*
X160972447Y-53186579D01*
X160909000Y-52867609D01*
X160909000Y-52542391D01*
X160972447Y-52223421D01*
X161096903Y-51922958D01*
X161277585Y-51652549D01*
X161507549Y-51422585D01*
X161777958Y-51241903D01*
X162078421Y-51117447D01*
X162184744Y-51096298D01*
X162397389Y-51054000D01*
X162722611Y-51054000D01*
X162935256Y-51096298D01*
G37*
M02*
