G04 #@! TF.GenerationSoftware,KiCad,Pcbnew,(6.0.11-0)*
G04 #@! TF.CreationDate,2023-08-08T16:04:35+02:00*
G04 #@! TF.ProjectId,vm101-inout,766d3130-312d-4696-9e6f-75742e6b6963,rev?*
G04 #@! TF.SameCoordinates,Original*
G04 #@! TF.FileFunction,Legend,Bot*
G04 #@! TF.FilePolarity,Positive*
%FSLAX46Y46*%
G04 Gerber Fmt 4.6, Leading zero omitted, Abs format (unit mm)*
G04 Created by KiCad (PCBNEW (6.0.11-0)) date 2023-08-08 16:04:35*
%MOMM*%
%LPD*%
G01*
G04 APERTURE LIST*
%ADD10C,0.150000*%
%ADD11C,0.500000*%
%ADD12C,0.120000*%
%ADD13C,0.152400*%
%ADD14C,0.010000*%
G04 APERTURE END LIST*
D10*
X175761904Y-61700000D02*
X175857142Y-61652380D01*
X176000000Y-61652380D01*
X176142857Y-61700000D01*
X176238095Y-61795238D01*
X176285714Y-61890476D01*
X176333333Y-62080952D01*
X176333333Y-62223809D01*
X176285714Y-62414285D01*
X176238095Y-62509523D01*
X176142857Y-62604761D01*
X176000000Y-62652380D01*
X175904761Y-62652380D01*
X175761904Y-62604761D01*
X175714285Y-62557142D01*
X175714285Y-62223809D01*
X175904761Y-62223809D01*
X175285714Y-62652380D02*
X175285714Y-61652380D01*
X174714285Y-62652380D01*
X174714285Y-61652380D01*
X174238095Y-62652380D02*
X174238095Y-61652380D01*
X174000000Y-61652380D01*
X173857142Y-61700000D01*
X173761904Y-61795238D01*
X173714285Y-61890476D01*
X173666666Y-62080952D01*
X173666666Y-62223809D01*
X173714285Y-62414285D01*
X173761904Y-62509523D01*
X173857142Y-62604761D01*
X174000000Y-62652380D01*
X174238095Y-62652380D01*
D11*
X124400000Y-89571428D02*
X123923809Y-90904761D01*
X123447619Y-89571428D01*
X122685714Y-90904761D02*
X122685714Y-89571428D01*
X122685714Y-89761904D02*
X122590476Y-89666666D01*
X122400000Y-89571428D01*
X122114285Y-89571428D01*
X121923809Y-89666666D01*
X121828571Y-89857142D01*
X121828571Y-90904761D01*
X121828571Y-89857142D02*
X121733333Y-89666666D01*
X121542857Y-89571428D01*
X121257142Y-89571428D01*
X121066666Y-89666666D01*
X120971428Y-89857142D01*
X120971428Y-90904761D01*
X118971428Y-90904761D02*
X120114285Y-90904761D01*
X119542857Y-90904761D02*
X119542857Y-88904761D01*
X119733333Y-89190476D01*
X119923809Y-89380952D01*
X120114285Y-89476190D01*
X117733333Y-88904761D02*
X117542857Y-88904761D01*
X117352380Y-89000000D01*
X117257142Y-89095238D01*
X117161904Y-89285714D01*
X117066666Y-89666666D01*
X117066666Y-90142857D01*
X117161904Y-90523809D01*
X117257142Y-90714285D01*
X117352380Y-90809523D01*
X117542857Y-90904761D01*
X117733333Y-90904761D01*
X117923809Y-90809523D01*
X118019047Y-90714285D01*
X118114285Y-90523809D01*
X118209523Y-90142857D01*
X118209523Y-89666666D01*
X118114285Y-89285714D01*
X118019047Y-89095238D01*
X117923809Y-89000000D01*
X117733333Y-88904761D01*
X115161904Y-90904761D02*
X116304761Y-90904761D01*
X115733333Y-90904761D02*
X115733333Y-88904761D01*
X115923809Y-89190476D01*
X116114285Y-89380952D01*
X116304761Y-89476190D01*
X114304761Y-90142857D02*
X112780952Y-90142857D01*
X111923809Y-89095238D02*
X111828571Y-89000000D01*
X111638095Y-88904761D01*
X111161904Y-88904761D01*
X110971428Y-89000000D01*
X110876190Y-89095238D01*
X110780952Y-89285714D01*
X110780952Y-89476190D01*
X110876190Y-89761904D01*
X112019047Y-90904761D01*
X110780952Y-90904761D01*
X109542857Y-88904761D02*
X109352380Y-88904761D01*
X109161904Y-89000000D01*
X109066666Y-89095238D01*
X108971428Y-89285714D01*
X108876190Y-89666666D01*
X108876190Y-90142857D01*
X108971428Y-90523809D01*
X109066666Y-90714285D01*
X109161904Y-90809523D01*
X109352380Y-90904761D01*
X109542857Y-90904761D01*
X109733333Y-90809523D01*
X109828571Y-90714285D01*
X109923809Y-90523809D01*
X110019047Y-90142857D01*
X110019047Y-89666666D01*
X109923809Y-89285714D01*
X109828571Y-89095238D01*
X109733333Y-89000000D01*
X109542857Y-88904761D01*
X108114285Y-89095238D02*
X108019047Y-89000000D01*
X107828571Y-88904761D01*
X107352380Y-88904761D01*
X107161904Y-89000000D01*
X107066666Y-89095238D01*
X106971428Y-89285714D01*
X106971428Y-89476190D01*
X107066666Y-89761904D01*
X108209523Y-90904761D01*
X106971428Y-90904761D01*
X105066666Y-90904761D02*
X106209523Y-90904761D01*
X105638095Y-90904761D02*
X105638095Y-88904761D01*
X105828571Y-89190476D01*
X106019047Y-89380952D01*
X106209523Y-89476190D01*
X104209523Y-90142857D02*
X102685714Y-90142857D01*
X101352380Y-88904761D02*
X101161904Y-88904761D01*
X100971428Y-89000000D01*
X100876190Y-89095238D01*
X100780952Y-89285714D01*
X100685714Y-89666666D01*
X100685714Y-90142857D01*
X100780952Y-90523809D01*
X100876190Y-90714285D01*
X100971428Y-90809523D01*
X101161904Y-90904761D01*
X101352380Y-90904761D01*
X101542857Y-90809523D01*
X101638095Y-90714285D01*
X101733333Y-90523809D01*
X101828571Y-90142857D01*
X101828571Y-89666666D01*
X101733333Y-89285714D01*
X101638095Y-89095238D01*
X101542857Y-89000000D01*
X101352380Y-88904761D01*
X98780952Y-90904761D02*
X99923809Y-90904761D01*
X99352380Y-90904761D02*
X99352380Y-88904761D01*
X99542857Y-89190476D01*
X99733333Y-89380952D01*
X99923809Y-89476190D01*
X97923809Y-90142857D02*
X96400000Y-90142857D01*
X95066666Y-88904761D02*
X94876190Y-88904761D01*
X94685714Y-89000000D01*
X94590476Y-89095238D01*
X94495238Y-89285714D01*
X94400000Y-89666666D01*
X94400000Y-90142857D01*
X94495238Y-90523809D01*
X94590476Y-90714285D01*
X94685714Y-90809523D01*
X94876190Y-90904761D01*
X95066666Y-90904761D01*
X95257142Y-90809523D01*
X95352380Y-90714285D01*
X95447619Y-90523809D01*
X95542857Y-90142857D01*
X95542857Y-89666666D01*
X95447619Y-89285714D01*
X95352380Y-89095238D01*
X95257142Y-89000000D01*
X95066666Y-88904761D01*
X92495238Y-90904761D02*
X93638095Y-90904761D01*
X93066666Y-90904761D02*
X93066666Y-88904761D01*
X93257142Y-89190476D01*
X93447619Y-89380952D01*
X93638095Y-89476190D01*
D10*
X134490476Y-81957142D02*
X134538095Y-82004761D01*
X134680952Y-82052380D01*
X134776190Y-82052380D01*
X134919047Y-82004761D01*
X135014285Y-81909523D01*
X135061904Y-81814285D01*
X135109523Y-81623809D01*
X135109523Y-81480952D01*
X135061904Y-81290476D01*
X135014285Y-81195238D01*
X134919047Y-81100000D01*
X134776190Y-81052380D01*
X134680952Y-81052380D01*
X134538095Y-81100000D01*
X134490476Y-81147619D01*
X161252380Y-59828571D02*
X160252380Y-59828571D01*
X160966666Y-60161904D01*
X160252380Y-60495238D01*
X161252380Y-60495238D01*
X160252380Y-61161904D02*
X160252380Y-61352380D01*
X160300000Y-61447619D01*
X160395238Y-61542857D01*
X160585714Y-61590476D01*
X160919047Y-61590476D01*
X161109523Y-61542857D01*
X161204761Y-61447619D01*
X161252380Y-61352380D01*
X161252380Y-61161904D01*
X161204761Y-61066666D01*
X161109523Y-60971428D01*
X160919047Y-60923809D01*
X160585714Y-60923809D01*
X160395238Y-60971428D01*
X160300000Y-61066666D01*
X160252380Y-61161904D01*
X161204761Y-61971428D02*
X161252380Y-62114285D01*
X161252380Y-62352380D01*
X161204761Y-62447619D01*
X161157142Y-62495238D01*
X161061904Y-62542857D01*
X160966666Y-62542857D01*
X160871428Y-62495238D01*
X160823809Y-62447619D01*
X160776190Y-62352380D01*
X160728571Y-62161904D01*
X160680952Y-62066666D01*
X160633333Y-62019047D01*
X160538095Y-61971428D01*
X160442857Y-61971428D01*
X160347619Y-62019047D01*
X160300000Y-62066666D01*
X160252380Y-62161904D01*
X160252380Y-62400000D01*
X160300000Y-62542857D01*
X161252380Y-62971428D02*
X160252380Y-62971428D01*
X172523809Y-68852380D02*
X172523809Y-67852380D01*
X172190476Y-68566666D01*
X171857142Y-67852380D01*
X171857142Y-68852380D01*
X171238095Y-68852380D02*
X171333333Y-68804761D01*
X171380952Y-68757142D01*
X171428571Y-68661904D01*
X171428571Y-68376190D01*
X171380952Y-68280952D01*
X171333333Y-68233333D01*
X171238095Y-68185714D01*
X171095238Y-68185714D01*
X171000000Y-68233333D01*
X170952380Y-68280952D01*
X170904761Y-68376190D01*
X170904761Y-68661904D01*
X170952380Y-68757142D01*
X171000000Y-68804761D01*
X171095238Y-68852380D01*
X171238095Y-68852380D01*
X170476190Y-68185714D02*
X170476190Y-68852380D01*
X170476190Y-68280952D02*
X170428571Y-68233333D01*
X170333333Y-68185714D01*
X170190476Y-68185714D01*
X170095238Y-68233333D01*
X170047619Y-68328571D01*
X170047619Y-68852380D01*
X169571428Y-68852380D02*
X169571428Y-68185714D01*
X169571428Y-67852380D02*
X169619047Y-67900000D01*
X169571428Y-67947619D01*
X169523809Y-67900000D01*
X169571428Y-67852380D01*
X169571428Y-67947619D01*
X169238095Y-68185714D02*
X168857142Y-68185714D01*
X169095238Y-67852380D02*
X169095238Y-68709523D01*
X169047619Y-68804761D01*
X168952380Y-68852380D01*
X168857142Y-68852380D01*
X168380952Y-68852380D02*
X168476190Y-68804761D01*
X168523809Y-68757142D01*
X168571428Y-68661904D01*
X168571428Y-68376190D01*
X168523809Y-68280952D01*
X168476190Y-68233333D01*
X168380952Y-68185714D01*
X168238095Y-68185714D01*
X168142857Y-68233333D01*
X168095238Y-68280952D01*
X168047619Y-68376190D01*
X168047619Y-68661904D01*
X168095238Y-68757142D01*
X168142857Y-68804761D01*
X168238095Y-68852380D01*
X168380952Y-68852380D01*
X167619047Y-68852380D02*
X167619047Y-68185714D01*
X167619047Y-68376190D02*
X167571428Y-68280952D01*
X167523809Y-68233333D01*
X167428571Y-68185714D01*
X167333333Y-68185714D01*
X172938095Y-85928571D02*
X172604761Y-85928571D01*
X172461904Y-86452380D02*
X172938095Y-86452380D01*
X172938095Y-85452380D01*
X172461904Y-85452380D01*
X171366666Y-86547619D02*
X171461904Y-86500000D01*
X171557142Y-86404761D01*
X171700000Y-86261904D01*
X171795238Y-86214285D01*
X171890476Y-86214285D01*
X171842857Y-86452380D02*
X171938095Y-86404761D01*
X172033333Y-86309523D01*
X172080952Y-86119047D01*
X172080952Y-85785714D01*
X172033333Y-85595238D01*
X171938095Y-85500000D01*
X171842857Y-85452380D01*
X171652380Y-85452380D01*
X171557142Y-85500000D01*
X171461904Y-85595238D01*
X171414285Y-85785714D01*
X171414285Y-86119047D01*
X171461904Y-86309523D01*
X171557142Y-86404761D01*
X171652380Y-86452380D01*
X171842857Y-86452380D01*
X155438095Y-81766666D02*
X154961904Y-81766666D01*
X155533333Y-82052380D02*
X155200000Y-81052380D01*
X154866666Y-82052380D01*
X154533333Y-81052380D02*
X154533333Y-81861904D01*
X154485714Y-81957142D01*
X154438095Y-82004761D01*
X154342857Y-82052380D01*
X154152380Y-82052380D01*
X154057142Y-82004761D01*
X154009523Y-81957142D01*
X153961904Y-81861904D01*
X153961904Y-81052380D01*
X153580952Y-81052380D02*
X152914285Y-82052380D01*
X152914285Y-81052380D02*
X153580952Y-82052380D01*
X57928571Y-20852380D02*
X57928571Y-19852380D01*
X57452380Y-20852380D02*
X57452380Y-19852380D01*
X56880952Y-20852380D01*
X56880952Y-19852380D01*
X56404761Y-20852380D02*
X56404761Y-19852380D01*
X56023809Y-19852380D01*
X55928571Y-19900000D01*
X55880952Y-19947619D01*
X55833333Y-20042857D01*
X55833333Y-20185714D01*
X55880952Y-20280952D01*
X55928571Y-20328571D01*
X56023809Y-20376190D01*
X56404761Y-20376190D01*
X55404761Y-19852380D02*
X55404761Y-20661904D01*
X55357142Y-20757142D01*
X55309523Y-20804761D01*
X55214285Y-20852380D01*
X55023809Y-20852380D01*
X54928571Y-20804761D01*
X54880952Y-20757142D01*
X54833333Y-20661904D01*
X54833333Y-19852380D01*
X54500000Y-19852380D02*
X53928571Y-19852380D01*
X54214285Y-20852380D02*
X54214285Y-19852380D01*
X173085714Y-92671428D02*
X172323809Y-92671428D01*
X171371428Y-92052380D02*
X171847619Y-92052380D01*
X171895238Y-92528571D01*
X171847619Y-92480952D01*
X171752380Y-92433333D01*
X171514285Y-92433333D01*
X171419047Y-92480952D01*
X171371428Y-92528571D01*
X171323809Y-92623809D01*
X171323809Y-92861904D01*
X171371428Y-92957142D01*
X171419047Y-93004761D01*
X171514285Y-93052380D01*
X171752380Y-93052380D01*
X171847619Y-93004761D01*
X171895238Y-92957142D01*
X171038095Y-92052380D02*
X170704761Y-93052380D01*
X170371428Y-92052380D01*
X97128571Y-36047619D02*
X97128571Y-36380952D01*
X97652380Y-36523809D02*
X97652380Y-36047619D01*
X96652380Y-36047619D01*
X96652380Y-36523809D01*
X97747619Y-37619047D02*
X97700000Y-37523809D01*
X97604761Y-37428571D01*
X97461904Y-37285714D01*
X97414285Y-37190476D01*
X97414285Y-37095238D01*
X97652380Y-37142857D02*
X97604761Y-37047619D01*
X97509523Y-36952380D01*
X97319047Y-36904761D01*
X96985714Y-36904761D01*
X96795238Y-36952380D01*
X96700000Y-37047619D01*
X96652380Y-37142857D01*
X96652380Y-37333333D01*
X96700000Y-37428571D01*
X96795238Y-37523809D01*
X96985714Y-37571428D01*
X97319047Y-37571428D01*
X97509523Y-37523809D01*
X97604761Y-37428571D01*
X97652380Y-37333333D01*
X97652380Y-37142857D01*
X97271428Y-38000000D02*
X97271428Y-38761904D01*
X97128571Y-39571428D02*
X97176190Y-39714285D01*
X97223809Y-39761904D01*
X97319047Y-39809523D01*
X97461904Y-39809523D01*
X97557142Y-39761904D01*
X97604761Y-39714285D01*
X97652380Y-39619047D01*
X97652380Y-39238095D01*
X96652380Y-39238095D01*
X96652380Y-39571428D01*
X96700000Y-39666666D01*
X96747619Y-39714285D01*
X96842857Y-39761904D01*
X96938095Y-39761904D01*
X97033333Y-39714285D01*
X97080952Y-39666666D01*
X97128571Y-39571428D01*
X97128571Y-39238095D01*
X96985714Y-40142857D02*
X97652380Y-40380952D01*
X96985714Y-40619047D02*
X97652380Y-40380952D01*
X97890476Y-40285714D01*
X97938095Y-40238095D01*
X97985714Y-40142857D01*
X96985714Y-41000000D02*
X97985714Y-41000000D01*
X97033333Y-41000000D02*
X96985714Y-41095238D01*
X96985714Y-41285714D01*
X97033333Y-41380952D01*
X97080952Y-41428571D01*
X97176190Y-41476190D01*
X97461904Y-41476190D01*
X97557142Y-41428571D01*
X97604761Y-41380952D01*
X97652380Y-41285714D01*
X97652380Y-41095238D01*
X97604761Y-41000000D01*
X97652380Y-42333333D02*
X97128571Y-42333333D01*
X97033333Y-42285714D01*
X96985714Y-42190476D01*
X96985714Y-42000000D01*
X97033333Y-41904761D01*
X97604761Y-42333333D02*
X97652380Y-42238095D01*
X97652380Y-42000000D01*
X97604761Y-41904761D01*
X97509523Y-41857142D01*
X97414285Y-41857142D01*
X97319047Y-41904761D01*
X97271428Y-42000000D01*
X97271428Y-42238095D01*
X97223809Y-42333333D01*
X97604761Y-42761904D02*
X97652380Y-42857142D01*
X97652380Y-43047619D01*
X97604761Y-43142857D01*
X97509523Y-43190476D01*
X97461904Y-43190476D01*
X97366666Y-43142857D01*
X97319047Y-43047619D01*
X97319047Y-42904761D01*
X97271428Y-42809523D01*
X97176190Y-42761904D01*
X97128571Y-42761904D01*
X97033333Y-42809523D01*
X96985714Y-42904761D01*
X96985714Y-43047619D01*
X97033333Y-43142857D01*
X97604761Y-43571428D02*
X97652380Y-43666666D01*
X97652380Y-43857142D01*
X97604761Y-43952380D01*
X97509523Y-44000000D01*
X97461904Y-44000000D01*
X97366666Y-43952380D01*
X97319047Y-43857142D01*
X97319047Y-43714285D01*
X97271428Y-43619047D01*
X97176190Y-43571428D01*
X97128571Y-43571428D01*
X97033333Y-43619047D01*
X96985714Y-43714285D01*
X96985714Y-43857142D01*
X97033333Y-43952380D01*
X74823809Y-74452380D02*
X74823809Y-73452380D01*
X74490476Y-74166666D01*
X74157142Y-73452380D01*
X74157142Y-74452380D01*
X73538095Y-74452380D02*
X73633333Y-74404761D01*
X73680952Y-74357142D01*
X73728571Y-74261904D01*
X73728571Y-73976190D01*
X73680952Y-73880952D01*
X73633333Y-73833333D01*
X73538095Y-73785714D01*
X73395238Y-73785714D01*
X73300000Y-73833333D01*
X73252380Y-73880952D01*
X73204761Y-73976190D01*
X73204761Y-74261904D01*
X73252380Y-74357142D01*
X73300000Y-74404761D01*
X73395238Y-74452380D01*
X73538095Y-74452380D01*
X72776190Y-73785714D02*
X72776190Y-74452380D01*
X72776190Y-73880952D02*
X72728571Y-73833333D01*
X72633333Y-73785714D01*
X72490476Y-73785714D01*
X72395238Y-73833333D01*
X72347619Y-73928571D01*
X72347619Y-74452380D01*
X71871428Y-74452380D02*
X71871428Y-73785714D01*
X71871428Y-73452380D02*
X71919047Y-73500000D01*
X71871428Y-73547619D01*
X71823809Y-73500000D01*
X71871428Y-73452380D01*
X71871428Y-73547619D01*
X71538095Y-73785714D02*
X71157142Y-73785714D01*
X71395238Y-73452380D02*
X71395238Y-74309523D01*
X71347619Y-74404761D01*
X71252380Y-74452380D01*
X71157142Y-74452380D01*
X70680952Y-74452380D02*
X70776190Y-74404761D01*
X70823809Y-74357142D01*
X70871428Y-74261904D01*
X70871428Y-73976190D01*
X70823809Y-73880952D01*
X70776190Y-73833333D01*
X70680952Y-73785714D01*
X70538095Y-73785714D01*
X70442857Y-73833333D01*
X70395238Y-73880952D01*
X70347619Y-73976190D01*
X70347619Y-74261904D01*
X70395238Y-74357142D01*
X70442857Y-74404761D01*
X70538095Y-74452380D01*
X70680952Y-74452380D01*
X69919047Y-74452380D02*
X69919047Y-73785714D01*
X69919047Y-73976190D02*
X69871428Y-73880952D01*
X69823809Y-73833333D01*
X69728571Y-73785714D01*
X69633333Y-73785714D01*
X57495238Y-50852380D02*
X57495238Y-49852380D01*
X57114285Y-49852380D01*
X57019047Y-49900000D01*
X56971428Y-49947619D01*
X56923809Y-50042857D01*
X56923809Y-50185714D01*
X56971428Y-50280952D01*
X57019047Y-50328571D01*
X57114285Y-50376190D01*
X57495238Y-50376190D01*
X56161904Y-50328571D02*
X56495238Y-50328571D01*
X56495238Y-50852380D02*
X56495238Y-49852380D01*
X56019047Y-49852380D01*
X55161904Y-50852380D02*
X55638095Y-50852380D01*
X55638095Y-49852380D01*
X96038095Y-81766666D02*
X95561904Y-81766666D01*
X96133333Y-82052380D02*
X95800000Y-81052380D01*
X95466666Y-82052380D01*
X171876190Y-76557142D02*
X171923809Y-76604761D01*
X172066666Y-76652380D01*
X172161904Y-76652380D01*
X172304761Y-76604761D01*
X172400000Y-76509523D01*
X172447619Y-76414285D01*
X172495238Y-76223809D01*
X172495238Y-76080952D01*
X172447619Y-75890476D01*
X172400000Y-75795238D01*
X172304761Y-75700000D01*
X172161904Y-75652380D01*
X172066666Y-75652380D01*
X171923809Y-75700000D01*
X171876190Y-75747619D01*
X171590476Y-75652380D02*
X171019047Y-75652380D01*
X171304761Y-76652380D02*
X171304761Y-75652380D01*
X170209523Y-76652380D02*
X170685714Y-76652380D01*
X170685714Y-75652380D01*
X106504761Y-36038095D02*
X106552380Y-36180952D01*
X106552380Y-36419047D01*
X106504761Y-36514285D01*
X106457142Y-36561904D01*
X106361904Y-36609523D01*
X106266666Y-36609523D01*
X106171428Y-36561904D01*
X106123809Y-36514285D01*
X106076190Y-36419047D01*
X106028571Y-36228571D01*
X105980952Y-36133333D01*
X105933333Y-36085714D01*
X105838095Y-36038095D01*
X105742857Y-36038095D01*
X105647619Y-36085714D01*
X105600000Y-36133333D01*
X105552380Y-36228571D01*
X105552380Y-36466666D01*
X105600000Y-36609523D01*
X106552380Y-37038095D02*
X105552380Y-37038095D01*
X106552380Y-37466666D02*
X106028571Y-37466666D01*
X105933333Y-37419047D01*
X105885714Y-37323809D01*
X105885714Y-37180952D01*
X105933333Y-37085714D01*
X105980952Y-37038095D01*
X106552380Y-37942857D02*
X105885714Y-37942857D01*
X105552380Y-37942857D02*
X105600000Y-37895238D01*
X105647619Y-37942857D01*
X105600000Y-37990476D01*
X105552380Y-37942857D01*
X105647619Y-37942857D01*
X106504761Y-38800000D02*
X106552380Y-38704761D01*
X106552380Y-38514285D01*
X106504761Y-38419047D01*
X106409523Y-38371428D01*
X106028571Y-38371428D01*
X105933333Y-38419047D01*
X105885714Y-38514285D01*
X105885714Y-38704761D01*
X105933333Y-38800000D01*
X106028571Y-38847619D01*
X106123809Y-38847619D01*
X106219047Y-38371428D01*
X106552380Y-39419047D02*
X106504761Y-39323809D01*
X106409523Y-39276190D01*
X105552380Y-39276190D01*
X106552380Y-40228571D02*
X105552380Y-40228571D01*
X106504761Y-40228571D02*
X106552380Y-40133333D01*
X106552380Y-39942857D01*
X106504761Y-39847619D01*
X106457142Y-39800000D01*
X106361904Y-39752380D01*
X106076190Y-39752380D01*
X105980952Y-39800000D01*
X105933333Y-39847619D01*
X105885714Y-39942857D01*
X105885714Y-40133333D01*
X105933333Y-40228571D01*
X106171428Y-40704761D02*
X106171428Y-41466666D01*
X105600000Y-42466666D02*
X105552380Y-42371428D01*
X105552380Y-42228571D01*
X105600000Y-42085714D01*
X105695238Y-41990476D01*
X105790476Y-41942857D01*
X105980952Y-41895238D01*
X106123809Y-41895238D01*
X106314285Y-41942857D01*
X106409523Y-41990476D01*
X106504761Y-42085714D01*
X106552380Y-42228571D01*
X106552380Y-42323809D01*
X106504761Y-42466666D01*
X106457142Y-42514285D01*
X106123809Y-42514285D01*
X106123809Y-42323809D01*
X106552380Y-42942857D02*
X105552380Y-42942857D01*
X106552380Y-43514285D01*
X105552380Y-43514285D01*
X106552380Y-43990476D02*
X105552380Y-43990476D01*
X105552380Y-44228571D01*
X105600000Y-44371428D01*
X105695238Y-44466666D01*
X105790476Y-44514285D01*
X105980952Y-44561904D01*
X106123809Y-44561904D01*
X106314285Y-44514285D01*
X106409523Y-44466666D01*
X106504761Y-44371428D01*
X106552380Y-44228571D01*
X106552380Y-43990476D01*
X172885714Y-98071428D02*
X172123809Y-98071428D01*
X172504761Y-98452380D02*
X172504761Y-97690476D01*
X171171428Y-97452380D02*
X171647619Y-97452380D01*
X171695238Y-97928571D01*
X171647619Y-97880952D01*
X171552380Y-97833333D01*
X171314285Y-97833333D01*
X171219047Y-97880952D01*
X171171428Y-97928571D01*
X171123809Y-98023809D01*
X171123809Y-98261904D01*
X171171428Y-98357142D01*
X171219047Y-98404761D01*
X171314285Y-98452380D01*
X171552380Y-98452380D01*
X171647619Y-98404761D01*
X171695238Y-98357142D01*
X170838095Y-97452380D02*
X170504761Y-98452380D01*
X170171428Y-97452380D01*
X163804761Y-59714285D02*
X163852380Y-59857142D01*
X163852380Y-60095238D01*
X163804761Y-60190476D01*
X163757142Y-60238095D01*
X163661904Y-60285714D01*
X163566666Y-60285714D01*
X163471428Y-60238095D01*
X163423809Y-60190476D01*
X163376190Y-60095238D01*
X163328571Y-59904761D01*
X163280952Y-59809523D01*
X163233333Y-59761904D01*
X163138095Y-59714285D01*
X163042857Y-59714285D01*
X162947619Y-59761904D01*
X162900000Y-59809523D01*
X162852380Y-59904761D01*
X162852380Y-60142857D01*
X162900000Y-60285714D01*
X163757142Y-61285714D02*
X163804761Y-61238095D01*
X163852380Y-61095238D01*
X163852380Y-61000000D01*
X163804761Y-60857142D01*
X163709523Y-60761904D01*
X163614285Y-60714285D01*
X163423809Y-60666666D01*
X163280952Y-60666666D01*
X163090476Y-60714285D01*
X162995238Y-60761904D01*
X162900000Y-60857142D01*
X162852380Y-61000000D01*
X162852380Y-61095238D01*
X162900000Y-61238095D01*
X162947619Y-61285714D01*
X163852380Y-61714285D02*
X162852380Y-61714285D01*
X163852380Y-62285714D02*
X163280952Y-61857142D01*
X162852380Y-62285714D02*
X163423809Y-61714285D01*
X60042857Y-79500000D02*
X60138095Y-79452380D01*
X60280952Y-79452380D01*
X60423809Y-79500000D01*
X60519047Y-79595238D01*
X60566666Y-79690476D01*
X60614285Y-79880952D01*
X60614285Y-80023809D01*
X60566666Y-80214285D01*
X60519047Y-80309523D01*
X60423809Y-80404761D01*
X60280952Y-80452380D01*
X60185714Y-80452380D01*
X60042857Y-80404761D01*
X59995238Y-80357142D01*
X59995238Y-80023809D01*
X60185714Y-80023809D01*
X59566666Y-79928571D02*
X59233333Y-79928571D01*
X59090476Y-80452380D02*
X59566666Y-80452380D01*
X59566666Y-79452380D01*
X59090476Y-79452380D01*
X58661904Y-80452380D02*
X58661904Y-79452380D01*
X58090476Y-80452380D01*
X58090476Y-79452380D01*
X57138095Y-80452380D02*
X57614285Y-80452380D01*
X57614285Y-79452380D01*
X56614285Y-79452380D02*
X56423809Y-79452380D01*
X56328571Y-79500000D01*
X56233333Y-79595238D01*
X56185714Y-79785714D01*
X56185714Y-80119047D01*
X56233333Y-80309523D01*
X56328571Y-80404761D01*
X56423809Y-80452380D01*
X56614285Y-80452380D01*
X56709523Y-80404761D01*
X56804761Y-80309523D01*
X56852380Y-80119047D01*
X56852380Y-79785714D01*
X56804761Y-79595238D01*
X56709523Y-79500000D01*
X56614285Y-79452380D01*
X55185714Y-80357142D02*
X55233333Y-80404761D01*
X55376190Y-80452380D01*
X55471428Y-80452380D01*
X55614285Y-80404761D01*
X55709523Y-80309523D01*
X55757142Y-80214285D01*
X55804761Y-80023809D01*
X55804761Y-79880952D01*
X55757142Y-79690476D01*
X55709523Y-79595238D01*
X55614285Y-79500000D01*
X55471428Y-79452380D01*
X55376190Y-79452380D01*
X55233333Y-79500000D01*
X55185714Y-79547619D01*
X54757142Y-80452380D02*
X54757142Y-79452380D01*
X54185714Y-80452380D02*
X54614285Y-79880952D01*
X54185714Y-79452380D02*
X54757142Y-80023809D01*
X115328571Y-81528571D02*
X115185714Y-81576190D01*
X115138095Y-81623809D01*
X115090476Y-81719047D01*
X115090476Y-81861904D01*
X115138095Y-81957142D01*
X115185714Y-82004761D01*
X115280952Y-82052380D01*
X115661904Y-82052380D01*
X115661904Y-81052380D01*
X115328571Y-81052380D01*
X115233333Y-81100000D01*
X115185714Y-81147619D01*
X115138095Y-81242857D01*
X115138095Y-81338095D01*
X115185714Y-81433333D01*
X115233333Y-81480952D01*
X115328571Y-81528571D01*
X115661904Y-81528571D01*
X166357142Y-60433333D02*
X166404761Y-60385714D01*
X166452380Y-60242857D01*
X166452380Y-60147619D01*
X166404761Y-60004761D01*
X166309523Y-59909523D01*
X166214285Y-59861904D01*
X166023809Y-59814285D01*
X165880952Y-59814285D01*
X165690476Y-59861904D01*
X165595238Y-59909523D01*
X165500000Y-60004761D01*
X165452380Y-60147619D01*
X165452380Y-60242857D01*
X165500000Y-60385714D01*
X165547619Y-60433333D01*
X166404761Y-60814285D02*
X166452380Y-60957142D01*
X166452380Y-61195238D01*
X166404761Y-61290476D01*
X166357142Y-61338095D01*
X166261904Y-61385714D01*
X166166666Y-61385714D01*
X166071428Y-61338095D01*
X166023809Y-61290476D01*
X165976190Y-61195238D01*
X165928571Y-61004761D01*
X165880952Y-60909523D01*
X165833333Y-60861904D01*
X165738095Y-60814285D01*
X165642857Y-60814285D01*
X165547619Y-60861904D01*
X165500000Y-60909523D01*
X165452380Y-61004761D01*
X165452380Y-61242857D01*
X165500000Y-61385714D01*
X169071428Y-84814285D02*
X169100000Y-84842857D01*
X169185714Y-84871428D01*
X169242857Y-84871428D01*
X169328571Y-84842857D01*
X169385714Y-84785714D01*
X169414285Y-84728571D01*
X169442857Y-84614285D01*
X169442857Y-84528571D01*
X169414285Y-84414285D01*
X169385714Y-84357142D01*
X169328571Y-84300000D01*
X169242857Y-84271428D01*
X169185714Y-84271428D01*
X169100000Y-84300000D01*
X169071428Y-84328571D01*
X168500000Y-84871428D02*
X168842857Y-84871428D01*
X168671428Y-84871428D02*
X168671428Y-84271428D01*
X168728571Y-84357142D01*
X168785714Y-84414285D01*
X168842857Y-84442857D01*
X168128571Y-84271428D02*
X168071428Y-84271428D01*
X168014285Y-84300000D01*
X167985714Y-84328571D01*
X167957142Y-84385714D01*
X167928571Y-84500000D01*
X167928571Y-84642857D01*
X167957142Y-84757142D01*
X167985714Y-84814285D01*
X168014285Y-84842857D01*
X168071428Y-84871428D01*
X168128571Y-84871428D01*
X168185714Y-84842857D01*
X168214285Y-84814285D01*
X168242857Y-84757142D01*
X168271428Y-84642857D01*
X168271428Y-84500000D01*
X168242857Y-84385714D01*
X168214285Y-84328571D01*
X168185714Y-84300000D01*
X168128571Y-84271428D01*
X167728571Y-84271428D02*
X167357142Y-84271428D01*
X167557142Y-84500000D01*
X167471428Y-84500000D01*
X167414285Y-84528571D01*
X167385714Y-84557142D01*
X167357142Y-84614285D01*
X167357142Y-84757142D01*
X167385714Y-84814285D01*
X167414285Y-84842857D01*
X167471428Y-84871428D01*
X167642857Y-84871428D01*
X167700000Y-84842857D01*
X167728571Y-84814285D01*
X156271428Y-84514285D02*
X156300000Y-84542857D01*
X156385714Y-84571428D01*
X156442857Y-84571428D01*
X156528571Y-84542857D01*
X156585714Y-84485714D01*
X156614285Y-84428571D01*
X156642857Y-84314285D01*
X156642857Y-84228571D01*
X156614285Y-84114285D01*
X156585714Y-84057142D01*
X156528571Y-84000000D01*
X156442857Y-83971428D01*
X156385714Y-83971428D01*
X156300000Y-84000000D01*
X156271428Y-84028571D01*
X155700000Y-84571428D02*
X156042857Y-84571428D01*
X155871428Y-84571428D02*
X155871428Y-83971428D01*
X155928571Y-84057142D01*
X155985714Y-84114285D01*
X156042857Y-84142857D01*
X155328571Y-83971428D02*
X155271428Y-83971428D01*
X155214285Y-84000000D01*
X155185714Y-84028571D01*
X155157142Y-84085714D01*
X155128571Y-84200000D01*
X155128571Y-84342857D01*
X155157142Y-84457142D01*
X155185714Y-84514285D01*
X155214285Y-84542857D01*
X155271428Y-84571428D01*
X155328571Y-84571428D01*
X155385714Y-84542857D01*
X155414285Y-84514285D01*
X155442857Y-84457142D01*
X155471428Y-84342857D01*
X155471428Y-84200000D01*
X155442857Y-84085714D01*
X155414285Y-84028571D01*
X155385714Y-84000000D01*
X155328571Y-83971428D01*
X154614285Y-83971428D02*
X154728571Y-83971428D01*
X154785714Y-84000000D01*
X154814285Y-84028571D01*
X154871428Y-84114285D01*
X154900000Y-84228571D01*
X154900000Y-84457142D01*
X154871428Y-84514285D01*
X154842857Y-84542857D01*
X154785714Y-84571428D01*
X154671428Y-84571428D01*
X154614285Y-84542857D01*
X154585714Y-84514285D01*
X154557142Y-84457142D01*
X154557142Y-84314285D01*
X154585714Y-84257142D01*
X154614285Y-84228571D01*
X154671428Y-84200000D01*
X154785714Y-84200000D01*
X154842857Y-84228571D01*
X154871428Y-84257142D01*
X154900000Y-84314285D01*
D12*
X96320000Y-99890000D02*
X123680000Y-99890000D01*
X96320000Y-110000000D02*
X123680000Y-110000000D01*
X123680000Y-110000000D02*
X123680000Y-99890000D01*
X96320000Y-110000000D02*
X96320000Y-99890000D01*
D13*
X96329899Y-43474999D02*
G75*
G03*
X96329899Y-43474999I-381000J0D01*
G01*
X107637099Y-55525001D02*
G75*
G03*
X107637099Y-55525001I-381000J0D01*
G01*
D12*
X113897666Y-59879000D02*
X116496666Y-59879000D01*
X115196666Y-58360000D02*
X115196666Y-59119000D01*
X112661666Y-59880000D02*
X117731666Y-59880000D01*
X117731666Y-59880000D02*
X117731666Y-79170000D01*
X116496666Y-58360000D02*
X116496666Y-59879000D01*
X112661666Y-79170000D02*
X117731666Y-79170000D01*
X113897666Y-58360000D02*
X116496666Y-58360000D01*
X113897666Y-58360000D02*
X113897666Y-59879000D01*
X112661666Y-59880000D02*
X112661666Y-79170000D01*
X103000000Y-41400000D02*
X105000000Y-41400000D01*
X105000000Y-41400000D02*
X105000000Y-38600000D01*
X103000000Y-38600000D02*
X103000000Y-41400000D01*
X105000000Y-38600000D02*
X103000000Y-38600000D01*
X167260000Y-98850000D02*
X167260000Y-97600000D01*
X168795563Y-97360000D02*
X166010000Y-97360000D01*
X168795563Y-97360000D02*
X169860000Y-96295563D01*
X160204437Y-97360000D02*
X159140000Y-96295563D01*
X169860000Y-86640000D02*
X166010000Y-86640000D01*
X159140000Y-86640000D02*
X162990000Y-86640000D01*
X159140000Y-96295563D02*
X159140000Y-86640000D01*
X169860000Y-96295563D02*
X169860000Y-86640000D01*
X167885000Y-98225000D02*
X166635000Y-98225000D01*
X160204437Y-97360000D02*
X162990000Y-97360000D01*
X147140000Y-87504437D02*
X147140000Y-97160000D01*
X147140000Y-97160000D02*
X150990000Y-97160000D01*
X157860000Y-97160000D02*
X154010000Y-97160000D01*
X149115000Y-85575000D02*
X150365000Y-85575000D01*
X148204437Y-86440000D02*
X147140000Y-87504437D01*
X149740000Y-84950000D02*
X149740000Y-86200000D01*
X156795563Y-86440000D02*
X154010000Y-86440000D01*
X148204437Y-86440000D02*
X150990000Y-86440000D01*
X156795563Y-86440000D02*
X157860000Y-87504437D01*
X157860000Y-87504437D02*
X157860000Y-97160000D01*
X50000000Y-30000000D02*
X51000000Y-31000000D01*
X49800000Y-37500000D02*
X64800000Y-37500000D01*
X49800000Y-22500000D02*
X49800000Y-37500000D01*
X64800000Y-22500000D02*
X49800000Y-22500000D01*
X50000000Y-30000000D02*
X51000000Y-29000000D01*
X64800000Y-37500000D02*
X64800000Y-22500000D01*
X70540000Y-79250000D02*
X70540000Y-77210000D01*
X74430000Y-76160000D02*
X75030000Y-76160000D01*
X75030000Y-80880000D02*
X69010000Y-80880000D01*
X75030000Y-80300000D02*
X74430000Y-80300000D01*
X69010000Y-79250000D02*
X70010000Y-79250000D01*
X70010000Y-79500000D02*
X70540000Y-79250000D01*
X70010000Y-76960000D02*
X69010000Y-76960000D01*
X70540000Y-77210000D02*
X70010000Y-76960000D01*
X69010000Y-77210000D02*
X70010000Y-77210000D01*
X70010000Y-79500000D02*
X70010000Y-76960000D01*
X74430000Y-78700000D02*
X75030000Y-78700000D01*
X69010000Y-79500000D02*
X70010000Y-79500000D01*
X74430000Y-80300000D02*
X74430000Y-78700000D01*
X74000000Y-81170000D02*
X70000000Y-81170000D01*
X74430000Y-77760000D02*
X74430000Y-76160000D01*
X69010000Y-80880000D02*
X69010000Y-75580000D01*
X75030000Y-77760000D02*
X74430000Y-77760000D01*
X69010000Y-75580000D02*
X75030000Y-75580000D01*
X75030000Y-75580000D02*
X75030000Y-80880000D01*
X64800000Y-67420000D02*
X64800000Y-52420000D01*
X49800000Y-67420000D02*
X64800000Y-67420000D01*
X50000000Y-59920000D02*
X51000000Y-58920000D01*
X64800000Y-52420000D02*
X49800000Y-52420000D01*
X49800000Y-52420000D02*
X49800000Y-67420000D01*
X50000000Y-59920000D02*
X51000000Y-60920000D01*
X173510000Y-70880000D02*
X173510000Y-65580000D01*
X175040000Y-69250000D02*
X175040000Y-67210000D01*
X174510000Y-69500000D02*
X174510000Y-66960000D01*
X173510000Y-69250000D02*
X174510000Y-69250000D01*
X179530000Y-65580000D02*
X179530000Y-70880000D01*
X179530000Y-70300000D02*
X178930000Y-70300000D01*
X174510000Y-69500000D02*
X175040000Y-69250000D01*
X173510000Y-65580000D02*
X179530000Y-65580000D01*
X174510000Y-66960000D02*
X173510000Y-66960000D01*
X178930000Y-67760000D02*
X178930000Y-66160000D01*
X178930000Y-66160000D02*
X179530000Y-66160000D01*
X178930000Y-68700000D02*
X179530000Y-68700000D01*
X179530000Y-67760000D02*
X178930000Y-67760000D01*
X173510000Y-69500000D02*
X174510000Y-69500000D01*
X179530000Y-70880000D02*
X173510000Y-70880000D01*
X175040000Y-67210000D02*
X174510000Y-66960000D01*
X173510000Y-67210000D02*
X174510000Y-67210000D01*
X178500000Y-71170000D02*
X174500000Y-71170000D01*
X178930000Y-70300000D02*
X178930000Y-68700000D01*
X174510000Y-88500000D02*
X175040000Y-88250000D01*
X178500000Y-90170000D02*
X174500000Y-90170000D01*
X174510000Y-83420000D02*
X173510000Y-83420000D01*
X173510000Y-89880000D02*
X173510000Y-82040000D01*
X178930000Y-82620000D02*
X179530000Y-82620000D01*
X178930000Y-87700000D02*
X179530000Y-87700000D01*
X173510000Y-88250000D02*
X174510000Y-88250000D01*
X174510000Y-88500000D02*
X174510000Y-83420000D01*
X175040000Y-83670000D02*
X174510000Y-83420000D01*
X178930000Y-85160000D02*
X179530000Y-85160000D01*
X173510000Y-82040000D02*
X179530000Y-82040000D01*
X178930000Y-89300000D02*
X178930000Y-87700000D01*
X175040000Y-88250000D02*
X175040000Y-83670000D01*
X179530000Y-84220000D02*
X178930000Y-84220000D01*
X178930000Y-86760000D02*
X178930000Y-85160000D01*
X173510000Y-88500000D02*
X174510000Y-88500000D01*
X179530000Y-89880000D02*
X173510000Y-89880000D01*
X178930000Y-84220000D02*
X178930000Y-82620000D01*
X179530000Y-82040000D02*
X179530000Y-89880000D01*
X179530000Y-89300000D02*
X178930000Y-89300000D01*
X179530000Y-86760000D02*
X178930000Y-86760000D01*
X173510000Y-83670000D02*
X174510000Y-83670000D01*
X178500000Y-99670000D02*
X174500000Y-99670000D01*
X178930000Y-98800000D02*
X178930000Y-97200000D01*
X173510000Y-98000000D02*
X174510000Y-98000000D01*
X178930000Y-97200000D02*
X179530000Y-97200000D01*
X174510000Y-98000000D02*
X174510000Y-92920000D01*
X179530000Y-93720000D02*
X178930000Y-93720000D01*
X179530000Y-99380000D02*
X173510000Y-99380000D01*
X173510000Y-99380000D02*
X173510000Y-91540000D01*
X178930000Y-92120000D02*
X179530000Y-92120000D01*
X179530000Y-98800000D02*
X178930000Y-98800000D01*
X178930000Y-94660000D02*
X179530000Y-94660000D01*
X178930000Y-96260000D02*
X178930000Y-94660000D01*
X175040000Y-93170000D02*
X174510000Y-92920000D01*
X175040000Y-97750000D02*
X175040000Y-93170000D01*
X178930000Y-93720000D02*
X178930000Y-92120000D01*
X179530000Y-91540000D02*
X179530000Y-99380000D01*
X173510000Y-91540000D02*
X179530000Y-91540000D01*
X174510000Y-92920000D02*
X173510000Y-92920000D01*
X173510000Y-97750000D02*
X174510000Y-97750000D01*
X173510000Y-93170000D02*
X174510000Y-93170000D01*
X174510000Y-98000000D02*
X175040000Y-97750000D01*
X179530000Y-96260000D02*
X178930000Y-96260000D01*
X161720000Y-53570000D02*
X160120000Y-53570000D01*
X165200000Y-53570000D02*
X165200000Y-52970000D01*
X161170000Y-58990000D02*
X161170000Y-57990000D01*
X161170000Y-57460000D02*
X160920000Y-57990000D01*
X165750000Y-57460000D02*
X161170000Y-57460000D01*
X166000000Y-58990000D02*
X166000000Y-57990000D01*
X159540000Y-52970000D02*
X167380000Y-52970000D01*
X166000000Y-57990000D02*
X160920000Y-57990000D01*
X167380000Y-52970000D02*
X167380000Y-58990000D01*
X166800000Y-53570000D02*
X165200000Y-53570000D01*
X160920000Y-57990000D02*
X160920000Y-58990000D01*
X167380000Y-58990000D02*
X159540000Y-58990000D01*
X160120000Y-53570000D02*
X160120000Y-52970000D01*
X166000000Y-57990000D02*
X165750000Y-57460000D01*
X159540000Y-58990000D02*
X159540000Y-52970000D01*
X161720000Y-52970000D02*
X161720000Y-53570000D01*
X164260000Y-52970000D02*
X164260000Y-53570000D01*
X162660000Y-53570000D02*
X162660000Y-52970000D01*
X164260000Y-53570000D02*
X162660000Y-53570000D01*
X166800000Y-52970000D02*
X166800000Y-53570000D01*
X167670000Y-54000000D02*
X167670000Y-58000000D01*
X165750000Y-58990000D02*
X165750000Y-57990000D01*
X120100000Y-98000000D02*
X122900000Y-98000000D01*
X122900000Y-96000000D02*
X120100000Y-96000000D01*
X122900000Y-98000000D02*
X122900000Y-96000000D01*
X120100000Y-96000000D02*
X120100000Y-98000000D01*
D10*
X94500000Y-47500000D02*
X95000000Y-47500000D01*
X95000000Y-28000000D02*
X81000000Y-28000000D01*
X81000000Y-28000000D02*
X81000000Y-47500000D01*
X95000000Y-47500000D02*
X95000000Y-28000000D01*
X81000000Y-47500000D02*
X94500000Y-47500000D01*
X91535534Y-36500000D02*
G75*
G03*
X91535534Y-36500000I-3535534J0D01*
G01*
D12*
X136998332Y-59880000D02*
X136998332Y-79170000D01*
X133164332Y-59879000D02*
X135763332Y-59879000D01*
X134463332Y-58360000D02*
X134463332Y-59119000D01*
X131928332Y-59880000D02*
X136998332Y-59880000D01*
X133164332Y-58360000D02*
X135763332Y-58360000D01*
X131928332Y-59880000D02*
X131928332Y-79170000D01*
X133164332Y-58360000D02*
X133164332Y-59879000D01*
X135763332Y-58360000D02*
X135763332Y-59879000D01*
X131928332Y-79170000D02*
X136998332Y-79170000D01*
X152431000Y-59879000D02*
X155030000Y-59879000D01*
X155030000Y-58360000D02*
X155030000Y-59879000D01*
X151195000Y-59880000D02*
X151195000Y-79170000D01*
X151195000Y-59880000D02*
X156265000Y-59880000D01*
X152431000Y-58360000D02*
X152431000Y-59879000D01*
X152431000Y-58360000D02*
X155030000Y-58360000D01*
X153730000Y-58360000D02*
X153730000Y-59119000D01*
X156265000Y-59880000D02*
X156265000Y-79170000D01*
X151195000Y-79170000D02*
X156265000Y-79170000D01*
X94631000Y-58360000D02*
X94631000Y-59879000D01*
X93395000Y-59880000D02*
X93395000Y-79170000D01*
X98465000Y-59880000D02*
X98465000Y-79170000D01*
X95930000Y-58360000D02*
X95930000Y-59119000D01*
X94631000Y-59879000D02*
X97230000Y-59879000D01*
X94631000Y-58360000D02*
X97230000Y-58360000D01*
X97230000Y-58360000D02*
X97230000Y-59879000D01*
X93395000Y-59880000D02*
X98465000Y-59880000D01*
X93395000Y-79170000D02*
X98465000Y-79170000D01*
G36*
X104916697Y-84715013D02*
G01*
X105030793Y-84795519D01*
X105007121Y-84881945D01*
X104836853Y-84937725D01*
X104656276Y-84995249D01*
X104599000Y-85130610D01*
X104614740Y-85206662D01*
X104728744Y-85312346D01*
X104980000Y-85405898D01*
X105032385Y-85421706D01*
X105359594Y-85570316D01*
X105534184Y-85755214D01*
X105550611Y-85966097D01*
X105403333Y-86192667D01*
X105388875Y-86206637D01*
X105187610Y-86330562D01*
X104988296Y-86356352D01*
X104851538Y-86274968D01*
X104851204Y-86274419D01*
X104871703Y-86165498D01*
X104994708Y-86026272D01*
X105058699Y-85970306D01*
X105139918Y-85844600D01*
X105098353Y-85711138D01*
X105051292Y-85651837D01*
X104876284Y-85548956D01*
X104683827Y-85532003D01*
X104546371Y-85613759D01*
X104500530Y-85736463D01*
X104473296Y-85949466D01*
X104421763Y-86172153D01*
X104285584Y-86308554D01*
X104101731Y-86312069D01*
X103997536Y-86254232D01*
X103979928Y-86151414D01*
X104088307Y-85976015D01*
X104123735Y-85912738D01*
X104188790Y-85677038D01*
X104215307Y-85380289D01*
X104225025Y-85204030D01*
X104314912Y-84889804D01*
X104498536Y-84716119D01*
X104775483Y-84683487D01*
X104916697Y-84715013D01*
G37*
D14*
X104916697Y-84715013D02*
X105030793Y-84795519D01*
X105007121Y-84881945D01*
X104836853Y-84937725D01*
X104656276Y-84995249D01*
X104599000Y-85130610D01*
X104614740Y-85206662D01*
X104728744Y-85312346D01*
X104980000Y-85405898D01*
X105032385Y-85421706D01*
X105359594Y-85570316D01*
X105534184Y-85755214D01*
X105550611Y-85966097D01*
X105403333Y-86192667D01*
X105388875Y-86206637D01*
X105187610Y-86330562D01*
X104988296Y-86356352D01*
X104851538Y-86274968D01*
X104851204Y-86274419D01*
X104871703Y-86165498D01*
X104994708Y-86026272D01*
X105058699Y-85970306D01*
X105139918Y-85844600D01*
X105098353Y-85711138D01*
X105051292Y-85651837D01*
X104876284Y-85548956D01*
X104683827Y-85532003D01*
X104546371Y-85613759D01*
X104500530Y-85736463D01*
X104473296Y-85949466D01*
X104421763Y-86172153D01*
X104285584Y-86308554D01*
X104101731Y-86312069D01*
X103997536Y-86254232D01*
X103979928Y-86151414D01*
X104088307Y-85976015D01*
X104123735Y-85912738D01*
X104188790Y-85677038D01*
X104215307Y-85380289D01*
X104225025Y-85204030D01*
X104314912Y-84889804D01*
X104498536Y-84716119D01*
X104775483Y-84683487D01*
X104916697Y-84715013D01*
G36*
X109734006Y-84682984D02*
G01*
X109805465Y-84732167D01*
X109804138Y-84739255D01*
X109721946Y-84826385D01*
X109551465Y-84939895D01*
X109533850Y-84949980D01*
X109402918Y-85039477D01*
X109332298Y-85148395D01*
X109303491Y-85326681D01*
X109298000Y-85624284D01*
X109291242Y-85886538D01*
X109270839Y-86112695D01*
X109241555Y-86220889D01*
X109154977Y-86273392D01*
X109011796Y-86243243D01*
X108919394Y-86086833D01*
X108902381Y-85986904D01*
X108874573Y-85730651D01*
X108854281Y-85430667D01*
X108840753Y-85214137D01*
X108808065Y-85044918D01*
X108738460Y-84967907D01*
X108610144Y-84939237D01*
X108398187Y-84952216D01*
X108233402Y-85076653D01*
X108141310Y-85332014D01*
X108112666Y-85733047D01*
X108108331Y-86008526D01*
X108086475Y-86182928D01*
X108035374Y-86259998D01*
X107943333Y-86277333D01*
X107939249Y-86277319D01*
X107850632Y-86259427D01*
X107800977Y-86182755D01*
X107779457Y-86010494D01*
X107775248Y-85705833D01*
X107776501Y-85594645D01*
X107810178Y-85182386D01*
X107897704Y-84907722D01*
X108049861Y-84748703D01*
X108277429Y-84683375D01*
X108277988Y-84683322D01*
X108535823Y-84693218D01*
X108751749Y-84755518D01*
X108907734Y-84810256D01*
X109112517Y-84761976D01*
X109151338Y-84743793D01*
X109344928Y-84691465D01*
X109559823Y-84670306D01*
X109734006Y-84682984D01*
G37*
X109734006Y-84682984D02*
X109805465Y-84732167D01*
X109804138Y-84739255D01*
X109721946Y-84826385D01*
X109551465Y-84939895D01*
X109533850Y-84949980D01*
X109402918Y-85039477D01*
X109332298Y-85148395D01*
X109303491Y-85326681D01*
X109298000Y-85624284D01*
X109291242Y-85886538D01*
X109270839Y-86112695D01*
X109241555Y-86220889D01*
X109154977Y-86273392D01*
X109011796Y-86243243D01*
X108919394Y-86086833D01*
X108902381Y-85986904D01*
X108874573Y-85730651D01*
X108854281Y-85430667D01*
X108840753Y-85214137D01*
X108808065Y-85044918D01*
X108738460Y-84967907D01*
X108610144Y-84939237D01*
X108398187Y-84952216D01*
X108233402Y-85076653D01*
X108141310Y-85332014D01*
X108112666Y-85733047D01*
X108108331Y-86008526D01*
X108086475Y-86182928D01*
X108035374Y-86259998D01*
X107943333Y-86277333D01*
X107939249Y-86277319D01*
X107850632Y-86259427D01*
X107800977Y-86182755D01*
X107779457Y-86010494D01*
X107775248Y-85705833D01*
X107776501Y-85594645D01*
X107810178Y-85182386D01*
X107897704Y-84907722D01*
X108049861Y-84748703D01*
X108277429Y-84683375D01*
X108277988Y-84683322D01*
X108535823Y-84693218D01*
X108751749Y-84755518D01*
X108907734Y-84810256D01*
X109112517Y-84761976D01*
X109151338Y-84743793D01*
X109344928Y-84691465D01*
X109559823Y-84670306D01*
X109734006Y-84682984D01*
G36*
X121114678Y-84727845D02*
G01*
X121211893Y-84810158D01*
X121187683Y-84888059D01*
X121028731Y-84922667D01*
X120934796Y-84934199D01*
X120787112Y-85020139D01*
X120739440Y-85148636D01*
X120821496Y-85269900D01*
X120840265Y-85280940D01*
X121017643Y-85356777D01*
X121255727Y-85433564D01*
X121538339Y-85559008D01*
X121702341Y-85746173D01*
X121715777Y-85966589D01*
X121569460Y-86197873D01*
X121499175Y-86255500D01*
X121299914Y-86335380D01*
X121114210Y-86324749D01*
X121005138Y-86221018D01*
X121021696Y-86149306D01*
X121146673Y-86067146D01*
X121256202Y-86005556D01*
X121321574Y-85861837D01*
X121277051Y-85700781D01*
X121141001Y-85569556D01*
X120931792Y-85515333D01*
X120779556Y-85556200D01*
X120675721Y-85718578D01*
X120643333Y-86021199D01*
X120609186Y-86195016D01*
X120473407Y-86321685D01*
X120262333Y-86307951D01*
X120167764Y-86254748D01*
X120151014Y-86152076D01*
X120259640Y-85976015D01*
X120295068Y-85912738D01*
X120360123Y-85677038D01*
X120386640Y-85380289D01*
X120396359Y-85204030D01*
X120486246Y-84889804D01*
X120669869Y-84716119D01*
X120946816Y-84683487D01*
X121114678Y-84727845D01*
G37*
X121114678Y-84727845D02*
X121211893Y-84810158D01*
X121187683Y-84888059D01*
X121028731Y-84922667D01*
X120934796Y-84934199D01*
X120787112Y-85020139D01*
X120739440Y-85148636D01*
X120821496Y-85269900D01*
X120840265Y-85280940D01*
X121017643Y-85356777D01*
X121255727Y-85433564D01*
X121538339Y-85559008D01*
X121702341Y-85746173D01*
X121715777Y-85966589D01*
X121569460Y-86197873D01*
X121499175Y-86255500D01*
X121299914Y-86335380D01*
X121114210Y-86324749D01*
X121005138Y-86221018D01*
X121021696Y-86149306D01*
X121146673Y-86067146D01*
X121256202Y-86005556D01*
X121321574Y-85861837D01*
X121277051Y-85700781D01*
X121141001Y-85569556D01*
X120931792Y-85515333D01*
X120779556Y-85556200D01*
X120675721Y-85718578D01*
X120643333Y-86021199D01*
X120609186Y-86195016D01*
X120473407Y-86321685D01*
X120262333Y-86307951D01*
X120167764Y-86254748D01*
X120151014Y-86152076D01*
X120259640Y-85976015D01*
X120295068Y-85912738D01*
X120360123Y-85677038D01*
X120386640Y-85380289D01*
X120396359Y-85204030D01*
X120486246Y-84889804D01*
X120669869Y-84716119D01*
X120946816Y-84683487D01*
X121114678Y-84727845D01*
G36*
X112745812Y-84683389D02*
G01*
X112852834Y-84804471D01*
X112936508Y-84999318D01*
X112991099Y-85157751D01*
X113103142Y-85380788D01*
X113228957Y-85560703D01*
X113341035Y-85660288D01*
X113411869Y-85642333D01*
X113424540Y-85615046D01*
X113600403Y-85274116D01*
X113781092Y-84981678D01*
X113942495Y-84773333D01*
X114060500Y-84684682D01*
X114082946Y-84680965D01*
X114170055Y-84692595D01*
X114195077Y-84772692D01*
X114153558Y-84941464D01*
X114041044Y-85219118D01*
X113853084Y-85625862D01*
X113786069Y-85768866D01*
X113635005Y-86127433D01*
X113572789Y-86375300D01*
X113601547Y-86539063D01*
X113723400Y-86645323D01*
X113940472Y-86720679D01*
X113958679Y-86725585D01*
X114135836Y-86797346D01*
X114208666Y-86872421D01*
X114197489Y-86912026D01*
X114087811Y-86960032D01*
X113904770Y-86941911D01*
X113702618Y-86867728D01*
X113535607Y-86747549D01*
X113502006Y-86706231D01*
X113377538Y-86508744D01*
X113219707Y-86218435D01*
X113047652Y-85875515D01*
X112880514Y-85520195D01*
X112737433Y-85192685D01*
X112637548Y-84933197D01*
X112600000Y-84781941D01*
X112601223Y-84752630D01*
X112650316Y-84658599D01*
X112745812Y-84683389D01*
G37*
X112745812Y-84683389D02*
X112852834Y-84804471D01*
X112936508Y-84999318D01*
X112991099Y-85157751D01*
X113103142Y-85380788D01*
X113228957Y-85560703D01*
X113341035Y-85660288D01*
X113411869Y-85642333D01*
X113424540Y-85615046D01*
X113600403Y-85274116D01*
X113781092Y-84981678D01*
X113942495Y-84773333D01*
X114060500Y-84684682D01*
X114082946Y-84680965D01*
X114170055Y-84692595D01*
X114195077Y-84772692D01*
X114153558Y-84941464D01*
X114041044Y-85219118D01*
X113853084Y-85625862D01*
X113786069Y-85768866D01*
X113635005Y-86127433D01*
X113572789Y-86375300D01*
X113601547Y-86539063D01*
X113723400Y-86645323D01*
X113940472Y-86720679D01*
X113958679Y-86725585D01*
X114135836Y-86797346D01*
X114208666Y-86872421D01*
X114197489Y-86912026D01*
X114087811Y-86960032D01*
X113904770Y-86941911D01*
X113702618Y-86867728D01*
X113535607Y-86747549D01*
X113502006Y-86706231D01*
X113377538Y-86508744D01*
X113219707Y-86218435D01*
X113047652Y-85875515D01*
X112880514Y-85520195D01*
X112737433Y-85192685D01*
X112637548Y-84933197D01*
X112600000Y-84781941D01*
X112601223Y-84752630D01*
X112650316Y-84658599D01*
X112745812Y-84683389D01*
G36*
X117321406Y-84696497D02*
G01*
X117891666Y-84726807D01*
X117916010Y-85502070D01*
X117924870Y-85849233D01*
X117921129Y-86084632D01*
X117897797Y-86213068D01*
X117848745Y-86266612D01*
X117767844Y-86277333D01*
X117678632Y-86263122D01*
X117624365Y-86193006D01*
X117600593Y-86029191D01*
X117595333Y-85733925D01*
X117592931Y-85507592D01*
X117571122Y-85207022D01*
X117516281Y-85029195D01*
X117416026Y-84944336D01*
X117257975Y-84922667D01*
X117106835Y-84940581D01*
X116924653Y-85057802D01*
X116820588Y-85299514D01*
X116783644Y-85683352D01*
X116775270Y-85885569D01*
X116748975Y-86129965D01*
X116712606Y-86267183D01*
X116646476Y-86326290D01*
X116529462Y-86271077D01*
X116481635Y-86203991D01*
X116427553Y-85973632D01*
X116410000Y-85589633D01*
X116427973Y-85198394D01*
X116502376Y-84922176D01*
X116658953Y-84763240D01*
X116923398Y-84696407D01*
X117321406Y-84696497D01*
G37*
X117321406Y-84696497D02*
X117891666Y-84726807D01*
X117916010Y-85502070D01*
X117924870Y-85849233D01*
X117921129Y-86084632D01*
X117897797Y-86213068D01*
X117848745Y-86266612D01*
X117767844Y-86277333D01*
X117678632Y-86263122D01*
X117624365Y-86193006D01*
X117600593Y-86029191D01*
X117595333Y-85733925D01*
X117592931Y-85507592D01*
X117571122Y-85207022D01*
X117516281Y-85029195D01*
X117416026Y-84944336D01*
X117257975Y-84922667D01*
X117106835Y-84940581D01*
X116924653Y-85057802D01*
X116820588Y-85299514D01*
X116783644Y-85683352D01*
X116775270Y-85885569D01*
X116748975Y-86129965D01*
X116712606Y-86267183D01*
X116646476Y-86326290D01*
X116529462Y-86271077D01*
X116481635Y-86203991D01*
X116427553Y-85973632D01*
X116410000Y-85589633D01*
X116427973Y-85198394D01*
X116502376Y-84922176D01*
X116658953Y-84763240D01*
X116923398Y-84696407D01*
X117321406Y-84696497D01*
G36*
X124377917Y-83949000D02*
G01*
X124375357Y-85494167D01*
X124374484Y-85963996D01*
X124373479Y-86401123D01*
X124372465Y-86751451D01*
X124371523Y-86987470D01*
X124370732Y-87081667D01*
X124341036Y-87108190D01*
X124201982Y-87126340D01*
X124013392Y-87117492D01*
X123847364Y-87086779D01*
X123776000Y-87039333D01*
X123807753Y-86990123D01*
X123945333Y-86954667D01*
X123999250Y-86949559D01*
X124046109Y-86917073D01*
X124078208Y-86833498D01*
X124098332Y-86675184D01*
X124109262Y-86418485D01*
X124113779Y-86039750D01*
X124114666Y-85515333D01*
X124114066Y-85057039D01*
X124110244Y-84658743D01*
X124100411Y-84385893D01*
X124081786Y-84214842D01*
X124051586Y-84121942D01*
X124007029Y-84083544D01*
X123945333Y-84076000D01*
X123846864Y-84059146D01*
X123776000Y-83986222D01*
X123777968Y-83975522D01*
X123873852Y-83927263D01*
X124076958Y-83922722D01*
X124377917Y-83949000D01*
G37*
X124377917Y-83949000D02*
X124375357Y-85494167D01*
X124374484Y-85963996D01*
X124373479Y-86401123D01*
X124372465Y-86751451D01*
X124371523Y-86987470D01*
X124370732Y-87081667D01*
X124341036Y-87108190D01*
X124201982Y-87126340D01*
X124013392Y-87117492D01*
X123847364Y-87086779D01*
X123776000Y-87039333D01*
X123807753Y-86990123D01*
X123945333Y-86954667D01*
X123999250Y-86949559D01*
X124046109Y-86917073D01*
X124078208Y-86833498D01*
X124098332Y-86675184D01*
X124109262Y-86418485D01*
X124113779Y-86039750D01*
X124114666Y-85515333D01*
X124114066Y-85057039D01*
X124110244Y-84658743D01*
X124100411Y-84385893D01*
X124081786Y-84214842D01*
X124051586Y-84121942D01*
X124007029Y-84083544D01*
X123945333Y-84076000D01*
X123846864Y-84059146D01*
X123776000Y-83986222D01*
X123777968Y-83975522D01*
X123873852Y-83927263D01*
X124076958Y-83922722D01*
X124377917Y-83949000D01*
G36*
X101318166Y-83956395D02*
G01*
X101487766Y-83990025D01*
X101645705Y-84035588D01*
X101644758Y-84065347D01*
X101480444Y-84076000D01*
X101254666Y-84076000D01*
X101254666Y-85515333D01*
X101255267Y-85973627D01*
X101259089Y-86371924D01*
X101268922Y-86644773D01*
X101287547Y-86815824D01*
X101317747Y-86908724D01*
X101362304Y-86947122D01*
X101424000Y-86954667D01*
X101522421Y-86970543D01*
X101593333Y-87039333D01*
X101590774Y-87050445D01*
X101492867Y-87102734D01*
X101297000Y-87124000D01*
X101000666Y-87124000D01*
X101000666Y-83898993D01*
X101318166Y-83956395D01*
G37*
X101318166Y-83956395D02*
X101487766Y-83990025D01*
X101645705Y-84035588D01*
X101644758Y-84065347D01*
X101480444Y-84076000D01*
X101254666Y-84076000D01*
X101254666Y-85515333D01*
X101255267Y-85973627D01*
X101259089Y-86371924D01*
X101268922Y-86644773D01*
X101287547Y-86815824D01*
X101317747Y-86908724D01*
X101362304Y-86947122D01*
X101424000Y-86954667D01*
X101522421Y-86970543D01*
X101593333Y-87039333D01*
X101590774Y-87050445D01*
X101492867Y-87102734D01*
X101297000Y-87124000D01*
X101000666Y-87124000D01*
X101000666Y-83898993D01*
X101318166Y-83956395D01*
G36*
X110265975Y-84697100D02*
G01*
X110268405Y-84698058D01*
X110333007Y-84757288D01*
X110372868Y-84892006D01*
X110393063Y-85133405D01*
X110398666Y-85512676D01*
X110397358Y-85776198D01*
X110387555Y-86043256D01*
X110362464Y-86194549D01*
X110315468Y-86261949D01*
X110239951Y-86277333D01*
X110199204Y-86273795D01*
X110134838Y-86231604D01*
X110092467Y-86115953D01*
X110063431Y-85894899D01*
X110039067Y-85536500D01*
X110026121Y-85248665D01*
X110029909Y-84933348D01*
X110067316Y-84750486D01*
X110144090Y-84678823D01*
X110265975Y-84697100D01*
G37*
X110265975Y-84697100D02*
X110268405Y-84698058D01*
X110333007Y-84757288D01*
X110372868Y-84892006D01*
X110393063Y-85133405D01*
X110398666Y-85512676D01*
X110397358Y-85776198D01*
X110387555Y-86043256D01*
X110362464Y-86194549D01*
X110315468Y-86261949D01*
X110239951Y-86277333D01*
X110199204Y-86273795D01*
X110134838Y-86231604D01*
X110092467Y-86115953D01*
X110063431Y-85894899D01*
X110039067Y-85536500D01*
X110026121Y-85248665D01*
X110029909Y-84933348D01*
X110067316Y-84750486D01*
X110144090Y-84678823D01*
X110265975Y-84697100D01*
G36*
X77111252Y-90013000D02*
G01*
X77111651Y-90045339D01*
X77112929Y-90153455D01*
X77113185Y-90236186D01*
X77111634Y-90296426D01*
X77107490Y-90337073D01*
X77099964Y-90361023D01*
X77088271Y-90371171D01*
X77071624Y-90370414D01*
X77049236Y-90361648D01*
X77020321Y-90347769D01*
X77014142Y-90344808D01*
X76988413Y-90330311D01*
X76974976Y-90313065D01*
X76969834Y-90284308D01*
X76968990Y-90235283D01*
X76968952Y-90147257D01*
X76878276Y-90147257D01*
X76822498Y-90144815D01*
X76778640Y-90134908D01*
X76742218Y-90114886D01*
X76739503Y-90112929D01*
X76702546Y-90079869D01*
X76676826Y-90039931D01*
X76660606Y-89987657D01*
X76652148Y-89917588D01*
X76650083Y-89838430D01*
X76794857Y-89838430D01*
X76794882Y-89851697D01*
X76796261Y-89911584D01*
X76800687Y-89950732D01*
X76809461Y-89976153D01*
X76823886Y-89994857D01*
X76824784Y-89995750D01*
X76860237Y-90019952D01*
X76894596Y-90017567D01*
X76933403Y-89988260D01*
X76942895Y-89978244D01*
X76956876Y-89957708D01*
X76964760Y-89930997D01*
X76968245Y-89890499D01*
X76969029Y-89828603D01*
X76968350Y-89791130D01*
X76960983Y-89722980D01*
X76944168Y-89678330D01*
X76916234Y-89653926D01*
X76875509Y-89646514D01*
X76858350Y-89648094D01*
X76828660Y-89663766D01*
X76809031Y-89698691D01*
X76798188Y-89755901D01*
X76794857Y-89838430D01*
X76650083Y-89838430D01*
X76649714Y-89824267D01*
X76650253Y-89756169D01*
X76652707Y-89704587D01*
X76658158Y-89668816D01*
X76667686Y-89642015D01*
X76682371Y-89617338D01*
X76695852Y-89598480D01*
X76744799Y-89547568D01*
X76800256Y-89519918D01*
X76869928Y-89511165D01*
X76949664Y-89519890D01*
X77018595Y-89551185D01*
X77073113Y-89606381D01*
X77077223Y-89612224D01*
X77086808Y-89627753D01*
X77094151Y-89645498D01*
X77099612Y-89669290D01*
X77103550Y-89702958D01*
X77106323Y-89750333D01*
X77108292Y-89815245D01*
X77108528Y-89828603D01*
X77109815Y-89901524D01*
X77111252Y-90013000D01*
G37*
X77111252Y-90013000D02*
X77111651Y-90045339D01*
X77112929Y-90153455D01*
X77113185Y-90236186D01*
X77111634Y-90296426D01*
X77107490Y-90337073D01*
X77099964Y-90361023D01*
X77088271Y-90371171D01*
X77071624Y-90370414D01*
X77049236Y-90361648D01*
X77020321Y-90347769D01*
X77014142Y-90344808D01*
X76988413Y-90330311D01*
X76974976Y-90313065D01*
X76969834Y-90284308D01*
X76968990Y-90235283D01*
X76968952Y-90147257D01*
X76878276Y-90147257D01*
X76822498Y-90144815D01*
X76778640Y-90134908D01*
X76742218Y-90114886D01*
X76739503Y-90112929D01*
X76702546Y-90079869D01*
X76676826Y-90039931D01*
X76660606Y-89987657D01*
X76652148Y-89917588D01*
X76650083Y-89838430D01*
X76794857Y-89838430D01*
X76794882Y-89851697D01*
X76796261Y-89911584D01*
X76800687Y-89950732D01*
X76809461Y-89976153D01*
X76823886Y-89994857D01*
X76824784Y-89995750D01*
X76860237Y-90019952D01*
X76894596Y-90017567D01*
X76933403Y-89988260D01*
X76942895Y-89978244D01*
X76956876Y-89957708D01*
X76964760Y-89930997D01*
X76968245Y-89890499D01*
X76969029Y-89828603D01*
X76968350Y-89791130D01*
X76960983Y-89722980D01*
X76944168Y-89678330D01*
X76916234Y-89653926D01*
X76875509Y-89646514D01*
X76858350Y-89648094D01*
X76828660Y-89663766D01*
X76809031Y-89698691D01*
X76798188Y-89755901D01*
X76794857Y-89838430D01*
X76650083Y-89838430D01*
X76649714Y-89824267D01*
X76650253Y-89756169D01*
X76652707Y-89704587D01*
X76658158Y-89668816D01*
X76667686Y-89642015D01*
X76682371Y-89617338D01*
X76695852Y-89598480D01*
X76744799Y-89547568D01*
X76800256Y-89519918D01*
X76869928Y-89511165D01*
X76949664Y-89519890D01*
X77018595Y-89551185D01*
X77073113Y-89606381D01*
X77077223Y-89612224D01*
X77086808Y-89627753D01*
X77094151Y-89645498D01*
X77099612Y-89669290D01*
X77103550Y-89702958D01*
X77106323Y-89750333D01*
X77108292Y-89815245D01*
X77108528Y-89828603D01*
X77109815Y-89901524D01*
X77111252Y-90013000D01*
G36*
X71882829Y-89551097D02*
G01*
X71942753Y-89573355D01*
X71967673Y-89590080D01*
X71992910Y-89614043D01*
X72010912Y-89644526D01*
X72022858Y-89686023D01*
X72029930Y-89743032D01*
X72033308Y-89820047D01*
X72034171Y-89921565D01*
X72034002Y-89974027D01*
X72033153Y-90045715D01*
X72031711Y-90102925D01*
X72029814Y-90140809D01*
X72027597Y-90154514D01*
X72013172Y-90149981D01*
X71984054Y-90137670D01*
X71983181Y-90137272D01*
X71968060Y-90129356D01*
X71957891Y-90118495D01*
X71951691Y-90099471D01*
X71948478Y-90067069D01*
X71947270Y-90016071D01*
X71947086Y-89941261D01*
X71946714Y-89893804D01*
X71942750Y-89804615D01*
X71933673Y-89739287D01*
X71918524Y-89694393D01*
X71896345Y-89666507D01*
X71866175Y-89652203D01*
X71861990Y-89651206D01*
X71805480Y-89650427D01*
X71761410Y-89675744D01*
X71730972Y-89726502D01*
X71725544Y-89741175D01*
X71713171Y-89773649D01*
X71706905Y-89788572D01*
X71694036Y-89786516D01*
X71665933Y-89775357D01*
X71639721Y-89756927D01*
X71627771Y-89722098D01*
X71631336Y-89697151D01*
X71653235Y-89646547D01*
X71688644Y-89599128D01*
X71730052Y-89566334D01*
X71747400Y-89558752D01*
X71813089Y-89546076D01*
X71882829Y-89551097D01*
G37*
X71882829Y-89551097D02*
X71942753Y-89573355D01*
X71967673Y-89590080D01*
X71992910Y-89614043D01*
X72010912Y-89644526D01*
X72022858Y-89686023D01*
X72029930Y-89743032D01*
X72033308Y-89820047D01*
X72034171Y-89921565D01*
X72034002Y-89974027D01*
X72033153Y-90045715D01*
X72031711Y-90102925D01*
X72029814Y-90140809D01*
X72027597Y-90154514D01*
X72013172Y-90149981D01*
X71984054Y-90137670D01*
X71983181Y-90137272D01*
X71968060Y-90129356D01*
X71957891Y-90118495D01*
X71951691Y-90099471D01*
X71948478Y-90067069D01*
X71947270Y-90016071D01*
X71947086Y-89941261D01*
X71946714Y-89893804D01*
X71942750Y-89804615D01*
X71933673Y-89739287D01*
X71918524Y-89694393D01*
X71896345Y-89666507D01*
X71866175Y-89652203D01*
X71861990Y-89651206D01*
X71805480Y-89650427D01*
X71761410Y-89675744D01*
X71730972Y-89726502D01*
X71725544Y-89741175D01*
X71713171Y-89773649D01*
X71706905Y-89788572D01*
X71694036Y-89786516D01*
X71665933Y-89775357D01*
X71639721Y-89756927D01*
X71627771Y-89722098D01*
X71631336Y-89697151D01*
X71653235Y-89646547D01*
X71688644Y-89599128D01*
X71730052Y-89566334D01*
X71747400Y-89558752D01*
X71813089Y-89546076D01*
X71882829Y-89551097D01*
G36*
X75831020Y-89517822D02*
G01*
X75898810Y-89549680D01*
X75954366Y-89604770D01*
X75965881Y-89622016D01*
X75975432Y-89641562D01*
X75982206Y-89666198D01*
X75986819Y-89700711D01*
X75989888Y-89749889D01*
X75992029Y-89818519D01*
X75993859Y-89911389D01*
X75998404Y-90169007D01*
X75960225Y-90154491D01*
X75925268Y-90141156D01*
X75899097Y-90128323D01*
X75882013Y-90111780D01*
X75872086Y-90086465D01*
X75867386Y-90047316D01*
X75865982Y-89989268D01*
X75865943Y-89907261D01*
X75865744Y-89841895D01*
X75864559Y-89779173D01*
X75861729Y-89736334D01*
X75856609Y-89708220D01*
X75848553Y-89689675D01*
X75836914Y-89675543D01*
X75808303Y-89655600D01*
X75760239Y-89648083D01*
X75712688Y-89667079D01*
X75709550Y-89669511D01*
X75699769Y-89680748D01*
X75692553Y-89698770D01*
X75687299Y-89728026D01*
X75683402Y-89772962D01*
X75680256Y-89838028D01*
X75677257Y-89927670D01*
X75670000Y-90167697D01*
X75608314Y-90140044D01*
X75546629Y-90112391D01*
X75546629Y-89893246D01*
X75546884Y-89833711D01*
X75549086Y-89750892D01*
X75554661Y-89689227D01*
X75564941Y-89643748D01*
X75581258Y-89609484D01*
X75604943Y-89581466D01*
X75637328Y-89554723D01*
X75683907Y-89527780D01*
X75757287Y-89510191D01*
X75831020Y-89517822D01*
G37*
X75831020Y-89517822D02*
X75898810Y-89549680D01*
X75954366Y-89604770D01*
X75965881Y-89622016D01*
X75975432Y-89641562D01*
X75982206Y-89666198D01*
X75986819Y-89700711D01*
X75989888Y-89749889D01*
X75992029Y-89818519D01*
X75993859Y-89911389D01*
X75998404Y-90169007D01*
X75960225Y-90154491D01*
X75925268Y-90141156D01*
X75899097Y-90128323D01*
X75882013Y-90111780D01*
X75872086Y-90086465D01*
X75867386Y-90047316D01*
X75865982Y-89989268D01*
X75865943Y-89907261D01*
X75865744Y-89841895D01*
X75864559Y-89779173D01*
X75861729Y-89736334D01*
X75856609Y-89708220D01*
X75848553Y-89689675D01*
X75836914Y-89675543D01*
X75808303Y-89655600D01*
X75760239Y-89648083D01*
X75712688Y-89667079D01*
X75709550Y-89669511D01*
X75699769Y-89680748D01*
X75692553Y-89698770D01*
X75687299Y-89728026D01*
X75683402Y-89772962D01*
X75680256Y-89838028D01*
X75677257Y-89927670D01*
X75670000Y-90167697D01*
X75608314Y-90140044D01*
X75546629Y-90112391D01*
X75546629Y-89893246D01*
X75546884Y-89833711D01*
X75549086Y-89750892D01*
X75554661Y-89689227D01*
X75564941Y-89643748D01*
X75581258Y-89609484D01*
X75604943Y-89581466D01*
X75637328Y-89554723D01*
X75683907Y-89527780D01*
X75757287Y-89510191D01*
X75831020Y-89517822D01*
G36*
X72367495Y-89546220D02*
G01*
X72398599Y-89554121D01*
X72427559Y-89573817D01*
X72464831Y-89610484D01*
X72488801Y-89636378D01*
X72513770Y-89669997D01*
X72525031Y-89701506D01*
X72527657Y-89741485D01*
X72527657Y-89806917D01*
X72483035Y-89783842D01*
X72447673Y-89755724D01*
X72423451Y-89717848D01*
X72419291Y-89707551D01*
X72387594Y-89667637D01*
X72343554Y-89647624D01*
X72295531Y-89649572D01*
X72251886Y-89675543D01*
X72233420Y-89696635D01*
X72222663Y-89723619D01*
X72234178Y-89747634D01*
X72269981Y-89771791D01*
X72332090Y-89799199D01*
X72341515Y-89802985D01*
X72398058Y-89827759D01*
X72446580Y-89852189D01*
X72477451Y-89871486D01*
X72508371Y-89905953D01*
X72528927Y-89960957D01*
X72526744Y-90019983D01*
X72502424Y-90075845D01*
X72456568Y-90121355D01*
X72419438Y-90140727D01*
X72347711Y-90154292D01*
X72307852Y-90152462D01*
X72270953Y-90142568D01*
X72256797Y-90121806D01*
X72262091Y-90087613D01*
X72263631Y-90083092D01*
X72275842Y-90059116D01*
X72296174Y-90050042D01*
X72334908Y-90050649D01*
X72362257Y-90051474D01*
X72394257Y-90044392D01*
X72416182Y-90023219D01*
X72428670Y-89997152D01*
X72430062Y-89969845D01*
X72429998Y-89969685D01*
X72413807Y-89954930D01*
X72379155Y-89933457D01*
X72334321Y-89909458D01*
X72287582Y-89887125D01*
X72247217Y-89870652D01*
X72221504Y-89864229D01*
X72217679Y-89870518D01*
X72212864Y-89900115D01*
X72209566Y-89948447D01*
X72208343Y-90009372D01*
X72208058Y-90051542D01*
X72206718Y-90104653D01*
X72204528Y-90141025D01*
X72201769Y-90154514D01*
X72187344Y-90149981D01*
X72158226Y-90137670D01*
X72121257Y-90120826D01*
X72121257Y-89904721D01*
X72121493Y-89849327D01*
X72123729Y-89765207D01*
X72129423Y-89702800D01*
X72139903Y-89657358D01*
X72156497Y-89624133D01*
X72180531Y-89598378D01*
X72213333Y-89575344D01*
X72255124Y-89556335D01*
X72332287Y-89544914D01*
X72367495Y-89546220D01*
G37*
X72367495Y-89546220D02*
X72398599Y-89554121D01*
X72427559Y-89573817D01*
X72464831Y-89610484D01*
X72488801Y-89636378D01*
X72513770Y-89669997D01*
X72525031Y-89701506D01*
X72527657Y-89741485D01*
X72527657Y-89806917D01*
X72483035Y-89783842D01*
X72447673Y-89755724D01*
X72423451Y-89717848D01*
X72419291Y-89707551D01*
X72387594Y-89667637D01*
X72343554Y-89647624D01*
X72295531Y-89649572D01*
X72251886Y-89675543D01*
X72233420Y-89696635D01*
X72222663Y-89723619D01*
X72234178Y-89747634D01*
X72269981Y-89771791D01*
X72332090Y-89799199D01*
X72341515Y-89802985D01*
X72398058Y-89827759D01*
X72446580Y-89852189D01*
X72477451Y-89871486D01*
X72508371Y-89905953D01*
X72528927Y-89960957D01*
X72526744Y-90019983D01*
X72502424Y-90075845D01*
X72456568Y-90121355D01*
X72419438Y-90140727D01*
X72347711Y-90154292D01*
X72307852Y-90152462D01*
X72270953Y-90142568D01*
X72256797Y-90121806D01*
X72262091Y-90087613D01*
X72263631Y-90083092D01*
X72275842Y-90059116D01*
X72296174Y-90050042D01*
X72334908Y-90050649D01*
X72362257Y-90051474D01*
X72394257Y-90044392D01*
X72416182Y-90023219D01*
X72428670Y-89997152D01*
X72430062Y-89969845D01*
X72429998Y-89969685D01*
X72413807Y-89954930D01*
X72379155Y-89933457D01*
X72334321Y-89909458D01*
X72287582Y-89887125D01*
X72247217Y-89870652D01*
X72221504Y-89864229D01*
X72217679Y-89870518D01*
X72212864Y-89900115D01*
X72209566Y-89948447D01*
X72208343Y-90009372D01*
X72208058Y-90051542D01*
X72206718Y-90104653D01*
X72204528Y-90141025D01*
X72201769Y-90154514D01*
X72187344Y-90149981D01*
X72158226Y-90137670D01*
X72121257Y-90120826D01*
X72121257Y-89904721D01*
X72121493Y-89849327D01*
X72123729Y-89765207D01*
X72129423Y-89702800D01*
X72139903Y-89657358D01*
X72156497Y-89624133D01*
X72180531Y-89598378D01*
X72213333Y-89575344D01*
X72255124Y-89556335D01*
X72332287Y-89544914D01*
X72367495Y-89546220D01*
G36*
X74513933Y-84842371D02*
G01*
X74589856Y-84842865D01*
X74644491Y-84844135D01*
X74681500Y-84846547D01*
X74704547Y-84850467D01*
X74717296Y-84856262D01*
X74723411Y-84864299D01*
X74726556Y-84874943D01*
X74726646Y-84875325D01*
X74731814Y-84900347D01*
X74741209Y-84948681D01*
X74753867Y-85015260D01*
X74768825Y-85095014D01*
X74785119Y-85182875D01*
X74786448Y-85190064D01*
X74802691Y-85275340D01*
X74817805Y-85350242D01*
X74830808Y-85410219D01*
X74840715Y-85450717D01*
X74846544Y-85467184D01*
X74846575Y-85467210D01*
X74864943Y-85476320D01*
X74902640Y-85491457D01*
X74951543Y-85509358D01*
X74954297Y-85510330D01*
X75016817Y-85533959D01*
X75089543Y-85563595D01*
X75157294Y-85593062D01*
X75268703Y-85643626D01*
X75515399Y-85475160D01*
X75532775Y-85463311D01*
X75607202Y-85412947D01*
X75673614Y-85368612D01*
X75728039Y-85332916D01*
X75766506Y-85308471D01*
X75785042Y-85297889D01*
X75797743Y-85300315D01*
X75826579Y-85319110D01*
X75871143Y-85356330D01*
X75932670Y-85413020D01*
X76012398Y-85490227D01*
X76019532Y-85497255D01*
X76082796Y-85560222D01*
X76138990Y-85617268D01*
X76184677Y-85664817D01*
X76216414Y-85699297D01*
X76230764Y-85717131D01*
X76230810Y-85717217D01*
X76232633Y-85730795D01*
X76225910Y-85752820D01*
X76208946Y-85786304D01*
X76180044Y-85834261D01*
X76137508Y-85899704D01*
X76079644Y-85985645D01*
X76069783Y-86000151D01*
X76019913Y-86073635D01*
X75975905Y-86138687D01*
X75940380Y-86191417D01*
X75915959Y-86227936D01*
X75905264Y-86244356D01*
X75904458Y-86247834D01*
X75909518Y-86273785D01*
X75924677Y-86316159D01*
X75947463Y-86367728D01*
X75978429Y-86435170D01*
X76013004Y-86515195D01*
X76042366Y-86587629D01*
X76049645Y-86606377D01*
X76068710Y-86654246D01*
X76082715Y-86687596D01*
X76089041Y-86700114D01*
X76096025Y-86701050D01*
X76127413Y-86706461D01*
X76178787Y-86715806D01*
X76244802Y-86728069D01*
X76320113Y-86742232D01*
X76399375Y-86757280D01*
X76477243Y-86772195D01*
X76548370Y-86785961D01*
X76607412Y-86797562D01*
X76649022Y-86805980D01*
X76667857Y-86810199D01*
X76670980Y-86811389D01*
X76678591Y-86817805D01*
X76684254Y-86831465D01*
X76688251Y-86855999D01*
X76690866Y-86895038D01*
X76692384Y-86952213D01*
X76693086Y-87031154D01*
X76693257Y-87135492D01*
X76693257Y-87452799D01*
X76617057Y-87467839D01*
X76607840Y-87469642D01*
X76558891Y-87478980D01*
X76491205Y-87491669D01*
X76412478Y-87506273D01*
X76330400Y-87521355D01*
X76298078Y-87527422D01*
X76225855Y-87542181D01*
X76165666Y-87556137D01*
X76123040Y-87567952D01*
X76103510Y-87576287D01*
X76094660Y-87589905D01*
X76078548Y-87625938D01*
X76062065Y-87672572D01*
X76056263Y-87690034D01*
X76034906Y-87747358D01*
X76007359Y-87815201D01*
X75978107Y-87882355D01*
X75962463Y-87917430D01*
X75940174Y-87969822D01*
X75924857Y-88009058D01*
X75919162Y-88028563D01*
X75919478Y-88030036D01*
X75930281Y-88050729D01*
X75954638Y-88090665D01*
X75990081Y-88145972D01*
X76034136Y-88212781D01*
X76084332Y-88287220D01*
X76249501Y-88529623D01*
X76032503Y-88746983D01*
X76011516Y-88767899D01*
X75947342Y-88830505D01*
X75889990Y-88884495D01*
X75842820Y-88926826D01*
X75809192Y-88954457D01*
X75792467Y-88964343D01*
X75774303Y-88956821D01*
X75736265Y-88935227D01*
X75682726Y-88902151D01*
X75617884Y-88860191D01*
X75545940Y-88811943D01*
X75475275Y-88764291D01*
X75411526Y-88722328D01*
X75359513Y-88689165D01*
X75323279Y-88667378D01*
X75306867Y-88659543D01*
X75305905Y-88659614D01*
X75284103Y-88667338D01*
X75245440Y-88685323D01*
X75197612Y-88710013D01*
X75197110Y-88710284D01*
X75133587Y-88742099D01*
X75090060Y-88757642D01*
X75063052Y-88757685D01*
X75049090Y-88743000D01*
X75043180Y-88728544D01*
X75027229Y-88689831D01*
X75002660Y-88630316D01*
X74970779Y-88553165D01*
X74932893Y-88461541D01*
X74890310Y-88358607D01*
X74844337Y-88247526D01*
X74802667Y-88146472D01*
X74760268Y-88042780D01*
X74722756Y-87950119D01*
X74691388Y-87871642D01*
X74667425Y-87810500D01*
X74652123Y-87769843D01*
X74646743Y-87752825D01*
X74657018Y-87737219D01*
X74685563Y-87711162D01*
X74725971Y-87680887D01*
X74822979Y-87601684D01*
X74909793Y-87500475D01*
X74973322Y-87389116D01*
X75013177Y-87270893D01*
X75028965Y-87149095D01*
X75020296Y-87027010D01*
X74986778Y-86907925D01*
X74928021Y-86795129D01*
X74843632Y-86691911D01*
X74799631Y-86651713D01*
X74694211Y-86580638D01*
X74581410Y-86534301D01*
X74464525Y-86511599D01*
X74346853Y-86511428D01*
X74231690Y-86532687D01*
X74122335Y-86574270D01*
X74022083Y-86635076D01*
X73934233Y-86714001D01*
X73862080Y-86809941D01*
X73808922Y-86921795D01*
X73778057Y-87048457D01*
X73772392Y-87109507D01*
X73780185Y-87241776D01*
X73815284Y-87367266D01*
X73876649Y-87483759D01*
X73963243Y-87589039D01*
X74074029Y-87680887D01*
X74112931Y-87709930D01*
X74142104Y-87736272D01*
X74153257Y-87752800D01*
X74148810Y-87767209D01*
X74134378Y-87805815D01*
X74111173Y-87865201D01*
X74080452Y-87942215D01*
X74043474Y-88033703D01*
X74001496Y-88136516D01*
X73955778Y-88247502D01*
X73914178Y-88348072D01*
X73871222Y-88451947D01*
X73832829Y-88544819D01*
X73800305Y-88623525D01*
X73774958Y-88684899D01*
X73758095Y-88725779D01*
X73751025Y-88743000D01*
X73750943Y-88743204D01*
X73736798Y-88757745D01*
X73709659Y-88757579D01*
X73666023Y-88741927D01*
X73602388Y-88710013D01*
X73597379Y-88707326D01*
X73550125Y-88683150D01*
X73512811Y-88666037D01*
X73493133Y-88659543D01*
X73477005Y-88667218D01*
X73440959Y-88688871D01*
X73389092Y-88721928D01*
X73325445Y-88763810D01*
X73254060Y-88811943D01*
X73183724Y-88859131D01*
X73118670Y-88901267D01*
X73064820Y-88934578D01*
X73026374Y-88956469D01*
X73007534Y-88964343D01*
X73004325Y-88963343D01*
X72981954Y-88947584D01*
X72943733Y-88915033D01*
X72893021Y-88868733D01*
X72833181Y-88811726D01*
X72767571Y-88747058D01*
X72550648Y-88529772D01*
X72719601Y-88281253D01*
X72888553Y-88032733D01*
X72837183Y-87921595D01*
X72837031Y-87921266D01*
X72806183Y-87850418D01*
X72774661Y-87771523D01*
X72749266Y-87701600D01*
X72745423Y-87690322D01*
X72726047Y-87637967D01*
X72708574Y-87597283D01*
X72696388Y-87576287D01*
X72691426Y-87573322D01*
X72661634Y-87563375D01*
X72611047Y-87550505D01*
X72545194Y-87536053D01*
X72469600Y-87521355D01*
X72446957Y-87517210D01*
X72365038Y-87502116D01*
X72288600Y-87487899D01*
X72225337Y-87475995D01*
X72182943Y-87467839D01*
X72106743Y-87452799D01*
X72106743Y-87135492D01*
X72106760Y-87096476D01*
X72107082Y-87001292D01*
X72108033Y-86930255D01*
X72109896Y-86879734D01*
X72112955Y-86846098D01*
X72117494Y-86825718D01*
X72123795Y-86814962D01*
X72132143Y-86810199D01*
X72140224Y-86808270D01*
X72173172Y-86801445D01*
X72225736Y-86791022D01*
X72292569Y-86778018D01*
X72368328Y-86763449D01*
X72447665Y-86748333D01*
X72525237Y-86733685D01*
X72595698Y-86720523D01*
X72653702Y-86709863D01*
X72693904Y-86702721D01*
X72710959Y-86700114D01*
X72712112Y-86698541D01*
X72721385Y-86678119D01*
X72737432Y-86639045D01*
X72757635Y-86587629D01*
X72785672Y-86518353D01*
X72820186Y-86438290D01*
X72852538Y-86367728D01*
X72859952Y-86351889D01*
X72880755Y-86302293D01*
X72893219Y-86264038D01*
X72894863Y-86244356D01*
X72894015Y-86242962D01*
X72880548Y-86222420D01*
X72853850Y-86182516D01*
X72816539Y-86127140D01*
X72771234Y-86060177D01*
X72720552Y-85985517D01*
X72663445Y-85900692D01*
X72620607Y-85834800D01*
X72591460Y-85786478D01*
X72574317Y-85752733D01*
X72567495Y-85730572D01*
X72569306Y-85717002D01*
X72569915Y-85715984D01*
X72586297Y-85696210D01*
X72619695Y-85660175D01*
X72666671Y-85611451D01*
X72723786Y-85553612D01*
X72787603Y-85490227D01*
X72853802Y-85425905D01*
X72918648Y-85365447D01*
X72966299Y-85324655D01*
X72997990Y-85302484D01*
X73014958Y-85297889D01*
X73017175Y-85298921D01*
X73040524Y-85312837D01*
X73082912Y-85340030D01*
X73140369Y-85377889D01*
X73208923Y-85423803D01*
X73284601Y-85475160D01*
X73531298Y-85643626D01*
X73642706Y-85593062D01*
X73645943Y-85591597D01*
X73714343Y-85561965D01*
X73786907Y-85532493D01*
X73848457Y-85509358D01*
X73848729Y-85509262D01*
X73897595Y-85491367D01*
X73935212Y-85476253D01*
X73953457Y-85467184D01*
X73953752Y-85466855D01*
X73959946Y-85448282D01*
X73970139Y-85406045D01*
X73983348Y-85344696D01*
X73998590Y-85268789D01*
X74014881Y-85182875D01*
X74015449Y-85179796D01*
X74031713Y-85092128D01*
X74046608Y-85012741D01*
X74059171Y-84946701D01*
X74068438Y-84899079D01*
X74073444Y-84874943D01*
X74073764Y-84873605D01*
X74077060Y-84863273D01*
X74083738Y-84855506D01*
X74097462Y-84849940D01*
X74121895Y-84846207D01*
X74160702Y-84843942D01*
X74217546Y-84842778D01*
X74296090Y-84842348D01*
X74400000Y-84842286D01*
X74413056Y-84842286D01*
X74513933Y-84842371D01*
G37*
X74513933Y-84842371D02*
X74589856Y-84842865D01*
X74644491Y-84844135D01*
X74681500Y-84846547D01*
X74704547Y-84850467D01*
X74717296Y-84856262D01*
X74723411Y-84864299D01*
X74726556Y-84874943D01*
X74726646Y-84875325D01*
X74731814Y-84900347D01*
X74741209Y-84948681D01*
X74753867Y-85015260D01*
X74768825Y-85095014D01*
X74785119Y-85182875D01*
X74786448Y-85190064D01*
X74802691Y-85275340D01*
X74817805Y-85350242D01*
X74830808Y-85410219D01*
X74840715Y-85450717D01*
X74846544Y-85467184D01*
X74846575Y-85467210D01*
X74864943Y-85476320D01*
X74902640Y-85491457D01*
X74951543Y-85509358D01*
X74954297Y-85510330D01*
X75016817Y-85533959D01*
X75089543Y-85563595D01*
X75157294Y-85593062D01*
X75268703Y-85643626D01*
X75515399Y-85475160D01*
X75532775Y-85463311D01*
X75607202Y-85412947D01*
X75673614Y-85368612D01*
X75728039Y-85332916D01*
X75766506Y-85308471D01*
X75785042Y-85297889D01*
X75797743Y-85300315D01*
X75826579Y-85319110D01*
X75871143Y-85356330D01*
X75932670Y-85413020D01*
X76012398Y-85490227D01*
X76019532Y-85497255D01*
X76082796Y-85560222D01*
X76138990Y-85617268D01*
X76184677Y-85664817D01*
X76216414Y-85699297D01*
X76230764Y-85717131D01*
X76230810Y-85717217D01*
X76232633Y-85730795D01*
X76225910Y-85752820D01*
X76208946Y-85786304D01*
X76180044Y-85834261D01*
X76137508Y-85899704D01*
X76079644Y-85985645D01*
X76069783Y-86000151D01*
X76019913Y-86073635D01*
X75975905Y-86138687D01*
X75940380Y-86191417D01*
X75915959Y-86227936D01*
X75905264Y-86244356D01*
X75904458Y-86247834D01*
X75909518Y-86273785D01*
X75924677Y-86316159D01*
X75947463Y-86367728D01*
X75978429Y-86435170D01*
X76013004Y-86515195D01*
X76042366Y-86587629D01*
X76049645Y-86606377D01*
X76068710Y-86654246D01*
X76082715Y-86687596D01*
X76089041Y-86700114D01*
X76096025Y-86701050D01*
X76127413Y-86706461D01*
X76178787Y-86715806D01*
X76244802Y-86728069D01*
X76320113Y-86742232D01*
X76399375Y-86757280D01*
X76477243Y-86772195D01*
X76548370Y-86785961D01*
X76607412Y-86797562D01*
X76649022Y-86805980D01*
X76667857Y-86810199D01*
X76670980Y-86811389D01*
X76678591Y-86817805D01*
X76684254Y-86831465D01*
X76688251Y-86855999D01*
X76690866Y-86895038D01*
X76692384Y-86952213D01*
X76693086Y-87031154D01*
X76693257Y-87135492D01*
X76693257Y-87452799D01*
X76617057Y-87467839D01*
X76607840Y-87469642D01*
X76558891Y-87478980D01*
X76491205Y-87491669D01*
X76412478Y-87506273D01*
X76330400Y-87521355D01*
X76298078Y-87527422D01*
X76225855Y-87542181D01*
X76165666Y-87556137D01*
X76123040Y-87567952D01*
X76103510Y-87576287D01*
X76094660Y-87589905D01*
X76078548Y-87625938D01*
X76062065Y-87672572D01*
X76056263Y-87690034D01*
X76034906Y-87747358D01*
X76007359Y-87815201D01*
X75978107Y-87882355D01*
X75962463Y-87917430D01*
X75940174Y-87969822D01*
X75924857Y-88009058D01*
X75919162Y-88028563D01*
X75919478Y-88030036D01*
X75930281Y-88050729D01*
X75954638Y-88090665D01*
X75990081Y-88145972D01*
X76034136Y-88212781D01*
X76084332Y-88287220D01*
X76249501Y-88529623D01*
X76032503Y-88746983D01*
X76011516Y-88767899D01*
X75947342Y-88830505D01*
X75889990Y-88884495D01*
X75842820Y-88926826D01*
X75809192Y-88954457D01*
X75792467Y-88964343D01*
X75774303Y-88956821D01*
X75736265Y-88935227D01*
X75682726Y-88902151D01*
X75617884Y-88860191D01*
X75545940Y-88811943D01*
X75475275Y-88764291D01*
X75411526Y-88722328D01*
X75359513Y-88689165D01*
X75323279Y-88667378D01*
X75306867Y-88659543D01*
X75305905Y-88659614D01*
X75284103Y-88667338D01*
X75245440Y-88685323D01*
X75197612Y-88710013D01*
X75197110Y-88710284D01*
X75133587Y-88742099D01*
X75090060Y-88757642D01*
X75063052Y-88757685D01*
X75049090Y-88743000D01*
X75043180Y-88728544D01*
X75027229Y-88689831D01*
X75002660Y-88630316D01*
X74970779Y-88553165D01*
X74932893Y-88461541D01*
X74890310Y-88358607D01*
X74844337Y-88247526D01*
X74802667Y-88146472D01*
X74760268Y-88042780D01*
X74722756Y-87950119D01*
X74691388Y-87871642D01*
X74667425Y-87810500D01*
X74652123Y-87769843D01*
X74646743Y-87752825D01*
X74657018Y-87737219D01*
X74685563Y-87711162D01*
X74725971Y-87680887D01*
X74822979Y-87601684D01*
X74909793Y-87500475D01*
X74973322Y-87389116D01*
X75013177Y-87270893D01*
X75028965Y-87149095D01*
X75020296Y-87027010D01*
X74986778Y-86907925D01*
X74928021Y-86795129D01*
X74843632Y-86691911D01*
X74799631Y-86651713D01*
X74694211Y-86580638D01*
X74581410Y-86534301D01*
X74464525Y-86511599D01*
X74346853Y-86511428D01*
X74231690Y-86532687D01*
X74122335Y-86574270D01*
X74022083Y-86635076D01*
X73934233Y-86714001D01*
X73862080Y-86809941D01*
X73808922Y-86921795D01*
X73778057Y-87048457D01*
X73772392Y-87109507D01*
X73780185Y-87241776D01*
X73815284Y-87367266D01*
X73876649Y-87483759D01*
X73963243Y-87589039D01*
X74074029Y-87680887D01*
X74112931Y-87709930D01*
X74142104Y-87736272D01*
X74153257Y-87752800D01*
X74148810Y-87767209D01*
X74134378Y-87805815D01*
X74111173Y-87865201D01*
X74080452Y-87942215D01*
X74043474Y-88033703D01*
X74001496Y-88136516D01*
X73955778Y-88247502D01*
X73914178Y-88348072D01*
X73871222Y-88451947D01*
X73832829Y-88544819D01*
X73800305Y-88623525D01*
X73774958Y-88684899D01*
X73758095Y-88725779D01*
X73751025Y-88743000D01*
X73750943Y-88743204D01*
X73736798Y-88757745D01*
X73709659Y-88757579D01*
X73666023Y-88741927D01*
X73602388Y-88710013D01*
X73597379Y-88707326D01*
X73550125Y-88683150D01*
X73512811Y-88666037D01*
X73493133Y-88659543D01*
X73477005Y-88667218D01*
X73440959Y-88688871D01*
X73389092Y-88721928D01*
X73325445Y-88763810D01*
X73254060Y-88811943D01*
X73183724Y-88859131D01*
X73118670Y-88901267D01*
X73064820Y-88934578D01*
X73026374Y-88956469D01*
X73007534Y-88964343D01*
X73004325Y-88963343D01*
X72981954Y-88947584D01*
X72943733Y-88915033D01*
X72893021Y-88868733D01*
X72833181Y-88811726D01*
X72767571Y-88747058D01*
X72550648Y-88529772D01*
X72719601Y-88281253D01*
X72888553Y-88032733D01*
X72837183Y-87921595D01*
X72837031Y-87921266D01*
X72806183Y-87850418D01*
X72774661Y-87771523D01*
X72749266Y-87701600D01*
X72745423Y-87690322D01*
X72726047Y-87637967D01*
X72708574Y-87597283D01*
X72696388Y-87576287D01*
X72691426Y-87573322D01*
X72661634Y-87563375D01*
X72611047Y-87550505D01*
X72545194Y-87536053D01*
X72469600Y-87521355D01*
X72446957Y-87517210D01*
X72365038Y-87502116D01*
X72288600Y-87487899D01*
X72225337Y-87475995D01*
X72182943Y-87467839D01*
X72106743Y-87452799D01*
X72106743Y-87135492D01*
X72106760Y-87096476D01*
X72107082Y-87001292D01*
X72108033Y-86930255D01*
X72109896Y-86879734D01*
X72112955Y-86846098D01*
X72117494Y-86825718D01*
X72123795Y-86814962D01*
X72132143Y-86810199D01*
X72140224Y-86808270D01*
X72173172Y-86801445D01*
X72225736Y-86791022D01*
X72292569Y-86778018D01*
X72368328Y-86763449D01*
X72447665Y-86748333D01*
X72525237Y-86733685D01*
X72595698Y-86720523D01*
X72653702Y-86709863D01*
X72693904Y-86702721D01*
X72710959Y-86700114D01*
X72712112Y-86698541D01*
X72721385Y-86678119D01*
X72737432Y-86639045D01*
X72757635Y-86587629D01*
X72785672Y-86518353D01*
X72820186Y-86438290D01*
X72852538Y-86367728D01*
X72859952Y-86351889D01*
X72880755Y-86302293D01*
X72893219Y-86264038D01*
X72894863Y-86244356D01*
X72894015Y-86242962D01*
X72880548Y-86222420D01*
X72853850Y-86182516D01*
X72816539Y-86127140D01*
X72771234Y-86060177D01*
X72720552Y-85985517D01*
X72663445Y-85900692D01*
X72620607Y-85834800D01*
X72591460Y-85786478D01*
X72574317Y-85752733D01*
X72567495Y-85730572D01*
X72569306Y-85717002D01*
X72569915Y-85715984D01*
X72586297Y-85696210D01*
X72619695Y-85660175D01*
X72666671Y-85611451D01*
X72723786Y-85553612D01*
X72787603Y-85490227D01*
X72853802Y-85425905D01*
X72918648Y-85365447D01*
X72966299Y-85324655D01*
X72997990Y-85302484D01*
X73014958Y-85297889D01*
X73017175Y-85298921D01*
X73040524Y-85312837D01*
X73082912Y-85340030D01*
X73140369Y-85377889D01*
X73208923Y-85423803D01*
X73284601Y-85475160D01*
X73531298Y-85643626D01*
X73642706Y-85593062D01*
X73645943Y-85591597D01*
X73714343Y-85561965D01*
X73786907Y-85532493D01*
X73848457Y-85509358D01*
X73848729Y-85509262D01*
X73897595Y-85491367D01*
X73935212Y-85476253D01*
X73953457Y-85467184D01*
X73953752Y-85466855D01*
X73959946Y-85448282D01*
X73970139Y-85406045D01*
X73983348Y-85344696D01*
X73998590Y-85268789D01*
X74014881Y-85182875D01*
X74015449Y-85179796D01*
X74031713Y-85092128D01*
X74046608Y-85012741D01*
X74059171Y-84946701D01*
X74068438Y-84899079D01*
X74073444Y-84874943D01*
X74073764Y-84873605D01*
X74077060Y-84863273D01*
X74083738Y-84855506D01*
X74097462Y-84849940D01*
X74121895Y-84846207D01*
X74160702Y-84843942D01*
X74217546Y-84842778D01*
X74296090Y-84842348D01*
X74400000Y-84842286D01*
X74413056Y-84842286D01*
X74513933Y-84842371D01*
G36*
X74007691Y-89566467D02*
G01*
X74012273Y-89569003D01*
X74049704Y-89598057D01*
X74083170Y-89635410D01*
X74089007Y-89643852D01*
X74100165Y-89663553D01*
X74108136Y-89686935D01*
X74113618Y-89719067D01*
X74117307Y-89765019D01*
X74119899Y-89829859D01*
X74122092Y-89918657D01*
X74122402Y-89933669D01*
X74123400Y-90030999D01*
X74121994Y-90099934D01*
X74118164Y-90140948D01*
X74111889Y-90154514D01*
X74092898Y-90150452D01*
X74060638Y-90138144D01*
X74053041Y-90134545D01*
X74041176Y-90126398D01*
X74032994Y-90113004D01*
X74027643Y-90089608D01*
X74024269Y-90051455D01*
X74022019Y-89993790D01*
X74020040Y-89911857D01*
X74019498Y-89887907D01*
X74017403Y-89812266D01*
X74014683Y-89759328D01*
X74010515Y-89724075D01*
X74004079Y-89701487D01*
X73994550Y-89686544D01*
X73981106Y-89674227D01*
X73941305Y-89652634D01*
X73892341Y-89648476D01*
X73848529Y-89664999D01*
X73817008Y-89699210D01*
X73804914Y-89748114D01*
X73804578Y-89761407D01*
X73797972Y-89785472D01*
X73778470Y-89789144D01*
X73740283Y-89774813D01*
X73731438Y-89770217D01*
X73707534Y-89743186D01*
X73707061Y-89702994D01*
X73729836Y-89647409D01*
X73750727Y-89617117D01*
X73804142Y-89574084D01*
X73870074Y-89549755D01*
X73940574Y-89546443D01*
X74007691Y-89566467D01*
G37*
X74007691Y-89566467D02*
X74012273Y-89569003D01*
X74049704Y-89598057D01*
X74083170Y-89635410D01*
X74089007Y-89643852D01*
X74100165Y-89663553D01*
X74108136Y-89686935D01*
X74113618Y-89719067D01*
X74117307Y-89765019D01*
X74119899Y-89829859D01*
X74122092Y-89918657D01*
X74122402Y-89933669D01*
X74123400Y-90030999D01*
X74121994Y-90099934D01*
X74118164Y-90140948D01*
X74111889Y-90154514D01*
X74092898Y-90150452D01*
X74060638Y-90138144D01*
X74053041Y-90134545D01*
X74041176Y-90126398D01*
X74032994Y-90113004D01*
X74027643Y-90089608D01*
X74024269Y-90051455D01*
X74022019Y-89993790D01*
X74020040Y-89911857D01*
X74019498Y-89887907D01*
X74017403Y-89812266D01*
X74014683Y-89759328D01*
X74010515Y-89724075D01*
X74004079Y-89701487D01*
X73994550Y-89686544D01*
X73981106Y-89674227D01*
X73941305Y-89652634D01*
X73892341Y-89648476D01*
X73848529Y-89664999D01*
X73817008Y-89699210D01*
X73804914Y-89748114D01*
X73804578Y-89761407D01*
X73797972Y-89785472D01*
X73778470Y-89789144D01*
X73740283Y-89774813D01*
X73731438Y-89770217D01*
X73707534Y-89743186D01*
X73707061Y-89702994D01*
X73729836Y-89647409D01*
X73750727Y-89617117D01*
X73804142Y-89574084D01*
X73870074Y-89549755D01*
X73940574Y-89546443D01*
X74007691Y-89566467D01*
G36*
X75078543Y-89349444D02*
G01*
X75125714Y-89369342D01*
X75125714Y-89766509D01*
X75125519Y-89869498D01*
X75124998Y-89962141D01*
X75124199Y-90040700D01*
X75123172Y-90101439D01*
X75121963Y-90140623D01*
X75120623Y-90154514D01*
X75120099Y-90154468D01*
X75102287Y-90149420D01*
X75069823Y-90138580D01*
X75024114Y-90122646D01*
X75024114Y-89918173D01*
X75023824Y-89837832D01*
X75022474Y-89779562D01*
X75019369Y-89739909D01*
X75013812Y-89713618D01*
X75005107Y-89695436D01*
X74992556Y-89680107D01*
X74983999Y-89671955D01*
X74937728Y-89649375D01*
X74886728Y-89651375D01*
X74839993Y-89678073D01*
X74833189Y-89684698D01*
X74822293Y-89698456D01*
X74814836Y-89716642D01*
X74810169Y-89744177D01*
X74807642Y-89785981D01*
X74806602Y-89846973D01*
X74806400Y-89932073D01*
X74806303Y-89975234D01*
X74805674Y-90046224D01*
X74804556Y-90103076D01*
X74803063Y-90140828D01*
X74801309Y-90154514D01*
X74800785Y-90154468D01*
X74782973Y-90149420D01*
X74750509Y-90138580D01*
X74704800Y-90122646D01*
X74704823Y-89917237D01*
X74704857Y-89898951D01*
X74706778Y-89803626D01*
X74712678Y-89731543D01*
X74724001Y-89677813D01*
X74742187Y-89637549D01*
X74768679Y-89605861D01*
X74804918Y-89577861D01*
X74840263Y-89560333D01*
X74896773Y-89546785D01*
X74952356Y-89546015D01*
X74995086Y-89559195D01*
X74998298Y-89561015D01*
X75008205Y-89560820D01*
X75014975Y-89545572D01*
X75019861Y-89510613D01*
X75024114Y-89451289D01*
X75031371Y-89329547D01*
X75078543Y-89349444D01*
G37*
X75078543Y-89349444D02*
X75125714Y-89369342D01*
X75125714Y-89766509D01*
X75125519Y-89869498D01*
X75124998Y-89962141D01*
X75124199Y-90040700D01*
X75123172Y-90101439D01*
X75121963Y-90140623D01*
X75120623Y-90154514D01*
X75120099Y-90154468D01*
X75102287Y-90149420D01*
X75069823Y-90138580D01*
X75024114Y-90122646D01*
X75024114Y-89918173D01*
X75023824Y-89837832D01*
X75022474Y-89779562D01*
X75019369Y-89739909D01*
X75013812Y-89713618D01*
X75005107Y-89695436D01*
X74992556Y-89680107D01*
X74983999Y-89671955D01*
X74937728Y-89649375D01*
X74886728Y-89651375D01*
X74839993Y-89678073D01*
X74833189Y-89684698D01*
X74822293Y-89698456D01*
X74814836Y-89716642D01*
X74810169Y-89744177D01*
X74807642Y-89785981D01*
X74806602Y-89846973D01*
X74806400Y-89932073D01*
X74806303Y-89975234D01*
X74805674Y-90046224D01*
X74804556Y-90103076D01*
X74803063Y-90140828D01*
X74801309Y-90154514D01*
X74800785Y-90154468D01*
X74782973Y-90149420D01*
X74750509Y-90138580D01*
X74704800Y-90122646D01*
X74704823Y-89917237D01*
X74704857Y-89898951D01*
X74706778Y-89803626D01*
X74712678Y-89731543D01*
X74724001Y-89677813D01*
X74742187Y-89637549D01*
X74768679Y-89605861D01*
X74804918Y-89577861D01*
X74840263Y-89560333D01*
X74896773Y-89546785D01*
X74952356Y-89546015D01*
X74995086Y-89559195D01*
X74998298Y-89561015D01*
X75008205Y-89560820D01*
X75014975Y-89545572D01*
X75019861Y-89510613D01*
X75024114Y-89451289D01*
X75031371Y-89329547D01*
X75078543Y-89349444D01*
G36*
X77665701Y-89850935D02*
G01*
X77664914Y-89921119D01*
X77662210Y-89970022D01*
X77656606Y-90004178D01*
X77647119Y-90030124D01*
X77632768Y-90054397D01*
X77629237Y-90059433D01*
X77591878Y-90099143D01*
X77549311Y-90129092D01*
X77527452Y-90138810D01*
X77448908Y-90155020D01*
X77371231Y-90144535D01*
X77299645Y-90108707D01*
X77239374Y-90048887D01*
X77234286Y-90040873D01*
X77217730Y-89994342D01*
X77206573Y-89929552D01*
X77201160Y-89854727D01*
X77201768Y-89785513D01*
X77348248Y-89785513D01*
X77349402Y-89881399D01*
X77349866Y-89887569D01*
X77356629Y-89940478D01*
X77368671Y-89974029D01*
X77389005Y-89997016D01*
X77423097Y-90018548D01*
X77456814Y-90019680D01*
X77491543Y-89994857D01*
X77497584Y-89988325D01*
X77509417Y-89968779D01*
X77516404Y-89940386D01*
X77519727Y-89896430D01*
X77520571Y-89830192D01*
X77519125Y-89768150D01*
X77511907Y-89709042D01*
X77497006Y-89671686D01*
X77472636Y-89652152D01*
X77437008Y-89646514D01*
X77423440Y-89647635D01*
X77385430Y-89668194D01*
X77360312Y-89714299D01*
X77348248Y-89785513D01*
X77201768Y-89785513D01*
X77201833Y-89778096D01*
X77208937Y-89707882D01*
X77222815Y-89652312D01*
X77240649Y-89615301D01*
X77290855Y-89557733D01*
X77358885Y-89521962D01*
X77442158Y-89509665D01*
X77464398Y-89510331D01*
X77529891Y-89523947D01*
X77583687Y-89558249D01*
X77633057Y-89617338D01*
X77635995Y-89621722D01*
X77649287Y-89645299D01*
X77657932Y-89671949D01*
X77662904Y-89708159D01*
X77665174Y-89760413D01*
X77665678Y-89830192D01*
X77665714Y-89835200D01*
X77665701Y-89850935D01*
G37*
X77665701Y-89850935D02*
X77664914Y-89921119D01*
X77662210Y-89970022D01*
X77656606Y-90004178D01*
X77647119Y-90030124D01*
X77632768Y-90054397D01*
X77629237Y-90059433D01*
X77591878Y-90099143D01*
X77549311Y-90129092D01*
X77527452Y-90138810D01*
X77448908Y-90155020D01*
X77371231Y-90144535D01*
X77299645Y-90108707D01*
X77239374Y-90048887D01*
X77234286Y-90040873D01*
X77217730Y-89994342D01*
X77206573Y-89929552D01*
X77201160Y-89854727D01*
X77201768Y-89785513D01*
X77348248Y-89785513D01*
X77349402Y-89881399D01*
X77349866Y-89887569D01*
X77356629Y-89940478D01*
X77368671Y-89974029D01*
X77389005Y-89997016D01*
X77423097Y-90018548D01*
X77456814Y-90019680D01*
X77491543Y-89994857D01*
X77497584Y-89988325D01*
X77509417Y-89968779D01*
X77516404Y-89940386D01*
X77519727Y-89896430D01*
X77520571Y-89830192D01*
X77519125Y-89768150D01*
X77511907Y-89709042D01*
X77497006Y-89671686D01*
X77472636Y-89652152D01*
X77437008Y-89646514D01*
X77423440Y-89647635D01*
X77385430Y-89668194D01*
X77360312Y-89714299D01*
X77348248Y-89785513D01*
X77201768Y-89785513D01*
X77201833Y-89778096D01*
X77208937Y-89707882D01*
X77222815Y-89652312D01*
X77240649Y-89615301D01*
X77290855Y-89557733D01*
X77358885Y-89521962D01*
X77442158Y-89509665D01*
X77464398Y-89510331D01*
X77529891Y-89523947D01*
X77583687Y-89558249D01*
X77633057Y-89617338D01*
X77635995Y-89621722D01*
X77649287Y-89645299D01*
X77657932Y-89671949D01*
X77662904Y-89708159D01*
X77665174Y-89760413D01*
X77665678Y-89830192D01*
X77665714Y-89835200D01*
X77665701Y-89850935D01*
G36*
X74489483Y-89560569D02*
G01*
X74539376Y-89589661D01*
X74561325Y-89612327D01*
X74603504Y-89680082D01*
X74617714Y-89753950D01*
X74617714Y-89804770D01*
X74570999Y-89785128D01*
X74538692Y-89765308D01*
X74513231Y-89724160D01*
X74510616Y-89715675D01*
X74482478Y-89672451D01*
X74440067Y-89649103D01*
X74391370Y-89648100D01*
X74344373Y-89671914D01*
X74337357Y-89678056D01*
X74313893Y-89704745D01*
X74310019Y-89728014D01*
X74327768Y-89750862D01*
X74369179Y-89776287D01*
X74436286Y-89807288D01*
X74440824Y-89809252D01*
X74515322Y-89843990D01*
X74566203Y-89874763D01*
X74597525Y-89905488D01*
X74613343Y-89940082D01*
X74617714Y-89982462D01*
X74611986Y-90029446D01*
X74583062Y-90089585D01*
X74532178Y-90132788D01*
X74495374Y-90145759D01*
X74443434Y-90152856D01*
X74392999Y-90151340D01*
X74356983Y-90140632D01*
X74353158Y-90137966D01*
X74342998Y-90119337D01*
X74350048Y-90086505D01*
X74362297Y-90060735D01*
X74381939Y-90050006D01*
X74419191Y-90050539D01*
X74470908Y-90047462D01*
X74504701Y-90026212D01*
X74516114Y-89986877D01*
X74516104Y-89985747D01*
X74509187Y-89962913D01*
X74485659Y-89941963D01*
X74439914Y-89917815D01*
X74377704Y-89888741D01*
X74336499Y-89872925D01*
X74312712Y-89873944D01*
X74301597Y-89894837D01*
X74298408Y-89938641D01*
X74298400Y-90008393D01*
X74298044Y-90051452D01*
X74296413Y-90104626D01*
X74293761Y-90141022D01*
X74290422Y-90154514D01*
X74289530Y-90154423D01*
X74270237Y-90147110D01*
X74238284Y-90131678D01*
X74194124Y-90108842D01*
X74199371Y-89903078D01*
X74199736Y-89889432D01*
X74203904Y-89793651D01*
X74211268Y-89721462D01*
X74223330Y-89668058D01*
X74241593Y-89628633D01*
X74267560Y-89598380D01*
X74302733Y-89572493D01*
X74303384Y-89572087D01*
X74360256Y-89550968D01*
X74426033Y-89547400D01*
X74489483Y-89560569D01*
G37*
X74489483Y-89560569D02*
X74539376Y-89589661D01*
X74561325Y-89612327D01*
X74603504Y-89680082D01*
X74617714Y-89753950D01*
X74617714Y-89804770D01*
X74570999Y-89785128D01*
X74538692Y-89765308D01*
X74513231Y-89724160D01*
X74510616Y-89715675D01*
X74482478Y-89672451D01*
X74440067Y-89649103D01*
X74391370Y-89648100D01*
X74344373Y-89671914D01*
X74337357Y-89678056D01*
X74313893Y-89704745D01*
X74310019Y-89728014D01*
X74327768Y-89750862D01*
X74369179Y-89776287D01*
X74436286Y-89807288D01*
X74440824Y-89809252D01*
X74515322Y-89843990D01*
X74566203Y-89874763D01*
X74597525Y-89905488D01*
X74613343Y-89940082D01*
X74617714Y-89982462D01*
X74611986Y-90029446D01*
X74583062Y-90089585D01*
X74532178Y-90132788D01*
X74495374Y-90145759D01*
X74443434Y-90152856D01*
X74392999Y-90151340D01*
X74356983Y-90140632D01*
X74353158Y-90137966D01*
X74342998Y-90119337D01*
X74350048Y-90086505D01*
X74362297Y-90060735D01*
X74381939Y-90050006D01*
X74419191Y-90050539D01*
X74470908Y-90047462D01*
X74504701Y-90026212D01*
X74516114Y-89986877D01*
X74516104Y-89985747D01*
X74509187Y-89962913D01*
X74485659Y-89941963D01*
X74439914Y-89917815D01*
X74377704Y-89888741D01*
X74336499Y-89872925D01*
X74312712Y-89873944D01*
X74301597Y-89894837D01*
X74298408Y-89938641D01*
X74298400Y-90008393D01*
X74298044Y-90051452D01*
X74296413Y-90104626D01*
X74293761Y-90141022D01*
X74290422Y-90154514D01*
X74289530Y-90154423D01*
X74270237Y-90147110D01*
X74238284Y-90131678D01*
X74194124Y-90108842D01*
X74199371Y-89903078D01*
X74199736Y-89889432D01*
X74203904Y-89793651D01*
X74211268Y-89721462D01*
X74223330Y-89668058D01*
X74241593Y-89628633D01*
X74267560Y-89598380D01*
X74302733Y-89572493D01*
X74303384Y-89572087D01*
X74360256Y-89550968D01*
X74426033Y-89547400D01*
X74489483Y-89560569D01*
G36*
X73053941Y-89549282D02*
G01*
X73085774Y-89561758D01*
X73122743Y-89578602D01*
X73122743Y-90065196D01*
X73076812Y-90111127D01*
X73066320Y-90121427D01*
X73037255Y-90144320D01*
X73007943Y-90151735D01*
X72964326Y-90148321D01*
X72946568Y-90146114D01*
X72900767Y-90141445D01*
X72868743Y-90139585D01*
X72859244Y-90139869D01*
X72820274Y-90142948D01*
X72773160Y-90148321D01*
X72758085Y-90150168D01*
X72720110Y-90150893D01*
X72692325Y-90139429D01*
X72660674Y-90111127D01*
X72614743Y-90065196D01*
X72614743Y-89805055D01*
X72615101Y-89728180D01*
X72616216Y-89654886D01*
X72617952Y-89596850D01*
X72620167Y-89558663D01*
X72622721Y-89544914D01*
X72623256Y-89544951D01*
X72641808Y-89551793D01*
X72673153Y-89566868D01*
X72715608Y-89588822D01*
X72719604Y-89817240D01*
X72723600Y-90045657D01*
X72810686Y-90045657D01*
X72814657Y-89795286D01*
X72815916Y-89727227D01*
X72817718Y-89654482D01*
X72819671Y-89596730D01*
X72821612Y-89558648D01*
X72823377Y-89544914D01*
X72823885Y-89544962D01*
X72841482Y-89550015D01*
X72873834Y-89560849D01*
X72919543Y-89576783D01*
X72919765Y-89796706D01*
X72919988Y-89834909D01*
X72921531Y-89909146D01*
X72924292Y-89971145D01*
X72927977Y-90015308D01*
X72932292Y-90036041D01*
X72947732Y-90047131D01*
X72979241Y-90050556D01*
X73013886Y-90045657D01*
X73017857Y-89795286D01*
X73019278Y-89731663D01*
X73022225Y-89656356D01*
X73026079Y-89597286D01*
X73030542Y-89558718D01*
X73035317Y-89544914D01*
X73053941Y-89549282D01*
G37*
X73053941Y-89549282D02*
X73085774Y-89561758D01*
X73122743Y-89578602D01*
X73122743Y-90065196D01*
X73076812Y-90111127D01*
X73066320Y-90121427D01*
X73037255Y-90144320D01*
X73007943Y-90151735D01*
X72964326Y-90148321D01*
X72946568Y-90146114D01*
X72900767Y-90141445D01*
X72868743Y-90139585D01*
X72859244Y-90139869D01*
X72820274Y-90142948D01*
X72773160Y-90148321D01*
X72758085Y-90150168D01*
X72720110Y-90150893D01*
X72692325Y-90139429D01*
X72660674Y-90111127D01*
X72614743Y-90065196D01*
X72614743Y-89805055D01*
X72615101Y-89728180D01*
X72616216Y-89654886D01*
X72617952Y-89596850D01*
X72620167Y-89558663D01*
X72622721Y-89544914D01*
X72623256Y-89544951D01*
X72641808Y-89551793D01*
X72673153Y-89566868D01*
X72715608Y-89588822D01*
X72719604Y-89817240D01*
X72723600Y-90045657D01*
X72810686Y-90045657D01*
X72814657Y-89795286D01*
X72815916Y-89727227D01*
X72817718Y-89654482D01*
X72819671Y-89596730D01*
X72821612Y-89558648D01*
X72823377Y-89544914D01*
X72823885Y-89544962D01*
X72841482Y-89550015D01*
X72873834Y-89560849D01*
X72919543Y-89576783D01*
X72919765Y-89796706D01*
X72919988Y-89834909D01*
X72921531Y-89909146D01*
X72924292Y-89971145D01*
X72927977Y-90015308D01*
X72932292Y-90036041D01*
X72947732Y-90047131D01*
X72979241Y-90050556D01*
X73013886Y-90045657D01*
X73017857Y-89795286D01*
X73019278Y-89731663D01*
X73022225Y-89656356D01*
X73026079Y-89597286D01*
X73030542Y-89558718D01*
X73035317Y-89544914D01*
X73053941Y-89549282D01*
G36*
X71540307Y-89891305D02*
G01*
X71536762Y-89967521D01*
X71527483Y-90023294D01*
X71510375Y-90064613D01*
X71483344Y-90097467D01*
X71444292Y-90127846D01*
X71419445Y-90141660D01*
X71379615Y-90150965D01*
X71323665Y-90150230D01*
X71292385Y-90147283D01*
X71254653Y-90138283D01*
X71224494Y-90118720D01*
X71189408Y-90082267D01*
X71184720Y-90076943D01*
X71153177Y-90035969D01*
X71138128Y-90000283D01*
X71134286Y-89957966D01*
X71134286Y-89895779D01*
X71177742Y-89912182D01*
X71209424Y-89931356D01*
X71236962Y-89976347D01*
X71242711Y-89990752D01*
X71274855Y-90031546D01*
X71318611Y-90052081D01*
X71366254Y-90050235D01*
X71410057Y-90023886D01*
X71425111Y-90007455D01*
X71438763Y-89982667D01*
X71434493Y-89960144D01*
X71409916Y-89936964D01*
X71362651Y-89910202D01*
X71290314Y-89876934D01*
X71141543Y-89811816D01*
X71137595Y-89747308D01*
X71139079Y-89706220D01*
X71236010Y-89706220D01*
X71243368Y-89731657D01*
X71276848Y-89758814D01*
X71337614Y-89789714D01*
X71347669Y-89794190D01*
X71395751Y-89815017D01*
X71431726Y-89829665D01*
X71448444Y-89835200D01*
X71450977Y-89831126D01*
X71451993Y-89806247D01*
X71448369Y-89766257D01*
X71439242Y-89727152D01*
X71410773Y-89677884D01*
X71369678Y-89650122D01*
X71320590Y-89646364D01*
X71268144Y-89669109D01*
X71253609Y-89680481D01*
X71236010Y-89706220D01*
X71139079Y-89706220D01*
X71139338Y-89699064D01*
X71161281Y-89638096D01*
X71188979Y-89604497D01*
X71246405Y-89566966D01*
X71314527Y-89548006D01*
X71384947Y-89549507D01*
X71449267Y-89573355D01*
X71463426Y-89582513D01*
X71495904Y-89610849D01*
X71518116Y-89646695D01*
X71531804Y-89695384D01*
X71538715Y-89762249D01*
X71539628Y-89806247D01*
X71540590Y-89852622D01*
X71540307Y-89891305D01*
G37*
X71540307Y-89891305D02*
X71536762Y-89967521D01*
X71527483Y-90023294D01*
X71510375Y-90064613D01*
X71483344Y-90097467D01*
X71444292Y-90127846D01*
X71419445Y-90141660D01*
X71379615Y-90150965D01*
X71323665Y-90150230D01*
X71292385Y-90147283D01*
X71254653Y-90138283D01*
X71224494Y-90118720D01*
X71189408Y-90082267D01*
X71184720Y-90076943D01*
X71153177Y-90035969D01*
X71138128Y-90000283D01*
X71134286Y-89957966D01*
X71134286Y-89895779D01*
X71177742Y-89912182D01*
X71209424Y-89931356D01*
X71236962Y-89976347D01*
X71242711Y-89990752D01*
X71274855Y-90031546D01*
X71318611Y-90052081D01*
X71366254Y-90050235D01*
X71410057Y-90023886D01*
X71425111Y-90007455D01*
X71438763Y-89982667D01*
X71434493Y-89960144D01*
X71409916Y-89936964D01*
X71362651Y-89910202D01*
X71290314Y-89876934D01*
X71141543Y-89811816D01*
X71137595Y-89747308D01*
X71139079Y-89706220D01*
X71236010Y-89706220D01*
X71243368Y-89731657D01*
X71276848Y-89758814D01*
X71337614Y-89789714D01*
X71347669Y-89794190D01*
X71395751Y-89815017D01*
X71431726Y-89829665D01*
X71448444Y-89835200D01*
X71450977Y-89831126D01*
X71451993Y-89806247D01*
X71448369Y-89766257D01*
X71439242Y-89727152D01*
X71410773Y-89677884D01*
X71369678Y-89650122D01*
X71320590Y-89646364D01*
X71268144Y-89669109D01*
X71253609Y-89680481D01*
X71236010Y-89706220D01*
X71139079Y-89706220D01*
X71139338Y-89699064D01*
X71161281Y-89638096D01*
X71188979Y-89604497D01*
X71246405Y-89566966D01*
X71314527Y-89548006D01*
X71384947Y-89549507D01*
X71449267Y-89573355D01*
X71463426Y-89582513D01*
X71495904Y-89610849D01*
X71518116Y-89646695D01*
X71531804Y-89695384D01*
X71538715Y-89762249D01*
X71539628Y-89806247D01*
X71540590Y-89852622D01*
X71540307Y-89891305D01*
G36*
X76557684Y-89904078D02*
G01*
X76555078Y-89927387D01*
X76535660Y-90010352D01*
X76500573Y-90073448D01*
X76447212Y-90121808D01*
X76444196Y-90123804D01*
X76376362Y-90152185D01*
X76305535Y-90154711D01*
X76237289Y-90133097D01*
X76177196Y-90089062D01*
X76130829Y-90024322D01*
X76130050Y-90022761D01*
X76114643Y-89982558D01*
X76103357Y-89936866D01*
X76097370Y-89893972D01*
X76097861Y-89862160D01*
X76106007Y-89849714D01*
X76113244Y-89850471D01*
X76147851Y-89864235D01*
X76187078Y-89889546D01*
X76220448Y-89918845D01*
X76237483Y-89944572D01*
X76255192Y-89979471D01*
X76291485Y-90011212D01*
X76333630Y-90023886D01*
X76349077Y-90020221D01*
X76379569Y-90001774D01*
X76406128Y-89976166D01*
X76417486Y-89952934D01*
X76417482Y-89952848D01*
X76404596Y-89942179D01*
X76370241Y-89922933D01*
X76319593Y-89897813D01*
X76257829Y-89869524D01*
X76257489Y-89869374D01*
X76190388Y-89839498D01*
X76145411Y-89817973D01*
X76118145Y-89801437D01*
X76104178Y-89786531D01*
X76099097Y-89769893D01*
X76098490Y-89748162D01*
X76102712Y-89707013D01*
X76246000Y-89707013D01*
X76260791Y-89719949D01*
X76297644Y-89739333D01*
X76298725Y-89739881D01*
X76342205Y-89760587D01*
X76381102Y-89777105D01*
X76405778Y-89784093D01*
X76415676Y-89774753D01*
X76417486Y-89742748D01*
X76409966Y-89702915D01*
X76383897Y-89666717D01*
X76346154Y-89647950D01*
X76304077Y-89649845D01*
X76265005Y-89675632D01*
X76249647Y-89693451D01*
X76246000Y-89707013D01*
X76102712Y-89707013D01*
X76103833Y-89696086D01*
X76130251Y-89625335D01*
X76174473Y-89569735D01*
X76231697Y-89531239D01*
X76297120Y-89511797D01*
X76365937Y-89513359D01*
X76433347Y-89537878D01*
X76494544Y-89587302D01*
X76528450Y-89636212D01*
X76552806Y-89706027D01*
X76556767Y-89742748D01*
X76562299Y-89794055D01*
X76557684Y-89904078D01*
G37*
X76557684Y-89904078D02*
X76555078Y-89927387D01*
X76535660Y-90010352D01*
X76500573Y-90073448D01*
X76447212Y-90121808D01*
X76444196Y-90123804D01*
X76376362Y-90152185D01*
X76305535Y-90154711D01*
X76237289Y-90133097D01*
X76177196Y-90089062D01*
X76130829Y-90024322D01*
X76130050Y-90022761D01*
X76114643Y-89982558D01*
X76103357Y-89936866D01*
X76097370Y-89893972D01*
X76097861Y-89862160D01*
X76106007Y-89849714D01*
X76113244Y-89850471D01*
X76147851Y-89864235D01*
X76187078Y-89889546D01*
X76220448Y-89918845D01*
X76237483Y-89944572D01*
X76255192Y-89979471D01*
X76291485Y-90011212D01*
X76333630Y-90023886D01*
X76349077Y-90020221D01*
X76379569Y-90001774D01*
X76406128Y-89976166D01*
X76417486Y-89952934D01*
X76417482Y-89952848D01*
X76404596Y-89942179D01*
X76370241Y-89922933D01*
X76319593Y-89897813D01*
X76257829Y-89869524D01*
X76257489Y-89869374D01*
X76190388Y-89839498D01*
X76145411Y-89817973D01*
X76118145Y-89801437D01*
X76104178Y-89786531D01*
X76099097Y-89769893D01*
X76098490Y-89748162D01*
X76102712Y-89707013D01*
X76246000Y-89707013D01*
X76260791Y-89719949D01*
X76297644Y-89739333D01*
X76298725Y-89739881D01*
X76342205Y-89760587D01*
X76381102Y-89777105D01*
X76405778Y-89784093D01*
X76415676Y-89774753D01*
X76417486Y-89742748D01*
X76409966Y-89702915D01*
X76383897Y-89666717D01*
X76346154Y-89647950D01*
X76304077Y-89649845D01*
X76265005Y-89675632D01*
X76249647Y-89693451D01*
X76246000Y-89707013D01*
X76102712Y-89707013D01*
X76103833Y-89696086D01*
X76130251Y-89625335D01*
X76174473Y-89569735D01*
X76231697Y-89531239D01*
X76297120Y-89511797D01*
X76365937Y-89513359D01*
X76433347Y-89537878D01*
X76494544Y-89587302D01*
X76528450Y-89636212D01*
X76552806Y-89706027D01*
X76556767Y-89742748D01*
X76562299Y-89794055D01*
X76557684Y-89904078D01*
G36*
X73629537Y-89906313D02*
G01*
X73621345Y-89983462D01*
X73603519Y-90041276D01*
X73573975Y-90085422D01*
X73530625Y-90121568D01*
X73489332Y-90142463D01*
X73419987Y-90154090D01*
X73350736Y-90141377D01*
X73288145Y-90105945D01*
X73238779Y-90049418D01*
X73232818Y-90038995D01*
X73224945Y-90020733D01*
X73219106Y-89997429D01*
X73214999Y-89965085D01*
X73212325Y-89919704D01*
X73210781Y-89857287D01*
X73210734Y-89851748D01*
X73311429Y-89851748D01*
X73311772Y-89904577D01*
X73313942Y-89952362D01*
X73319307Y-89983209D01*
X73329217Y-90003935D01*
X73345021Y-90021356D01*
X73348724Y-90024705D01*
X73396299Y-90049419D01*
X73446635Y-90046890D01*
X73493517Y-90017288D01*
X73507477Y-90001953D01*
X73519160Y-89981622D01*
X73525686Y-89953514D01*
X73528524Y-89910550D01*
X73529143Y-89845647D01*
X73528837Y-89796122D01*
X73526722Y-89747782D01*
X73521390Y-89716587D01*
X73511460Y-89695647D01*
X73495550Y-89678073D01*
X73486204Y-89670159D01*
X73437776Y-89648843D01*
X73387040Y-89652198D01*
X73342987Y-89680107D01*
X73333504Y-89691173D01*
X73321939Y-89712009D01*
X73315252Y-89741106D01*
X73312173Y-89785381D01*
X73311429Y-89851748D01*
X73210734Y-89851748D01*
X73210067Y-89773837D01*
X73209883Y-89665358D01*
X73209829Y-89328601D01*
X73257000Y-89348362D01*
X73269472Y-89353770D01*
X73289324Y-89365985D01*
X73300687Y-89384482D01*
X73306933Y-89416829D01*
X73311429Y-89470593D01*
X73315535Y-89518866D01*
X73320963Y-89550557D01*
X73328739Y-89562383D01*
X73340457Y-89559212D01*
X73370318Y-89548067D01*
X73423684Y-89545304D01*
X73481093Y-89555625D01*
X73530625Y-89577861D01*
X73557876Y-89598443D01*
X73592865Y-89638600D01*
X73615274Y-89690086D01*
X73627190Y-89758568D01*
X73630542Y-89845647D01*
X73630698Y-89849714D01*
X73629537Y-89906313D01*
G37*
X73629537Y-89906313D02*
X73621345Y-89983462D01*
X73603519Y-90041276D01*
X73573975Y-90085422D01*
X73530625Y-90121568D01*
X73489332Y-90142463D01*
X73419987Y-90154090D01*
X73350736Y-90141377D01*
X73288145Y-90105945D01*
X73238779Y-90049418D01*
X73232818Y-90038995D01*
X73224945Y-90020733D01*
X73219106Y-89997429D01*
X73214999Y-89965085D01*
X73212325Y-89919704D01*
X73210781Y-89857287D01*
X73210734Y-89851748D01*
X73311429Y-89851748D01*
X73311772Y-89904577D01*
X73313942Y-89952362D01*
X73319307Y-89983209D01*
X73329217Y-90003935D01*
X73345021Y-90021356D01*
X73348724Y-90024705D01*
X73396299Y-90049419D01*
X73446635Y-90046890D01*
X73493517Y-90017288D01*
X73507477Y-90001953D01*
X73519160Y-89981622D01*
X73525686Y-89953514D01*
X73528524Y-89910550D01*
X73529143Y-89845647D01*
X73528837Y-89796122D01*
X73526722Y-89747782D01*
X73521390Y-89716587D01*
X73511460Y-89695647D01*
X73495550Y-89678073D01*
X73486204Y-89670159D01*
X73437776Y-89648843D01*
X73387040Y-89652198D01*
X73342987Y-89680107D01*
X73333504Y-89691173D01*
X73321939Y-89712009D01*
X73315252Y-89741106D01*
X73312173Y-89785381D01*
X73311429Y-89851748D01*
X73210734Y-89851748D01*
X73210067Y-89773837D01*
X73209883Y-89665358D01*
X73209829Y-89328601D01*
X73257000Y-89348362D01*
X73269472Y-89353770D01*
X73289324Y-89365985D01*
X73300687Y-89384482D01*
X73306933Y-89416829D01*
X73311429Y-89470593D01*
X73315535Y-89518866D01*
X73320963Y-89550557D01*
X73328739Y-89562383D01*
X73340457Y-89559212D01*
X73370318Y-89548067D01*
X73423684Y-89545304D01*
X73481093Y-89555625D01*
X73530625Y-89577861D01*
X73557876Y-89598443D01*
X73592865Y-89638600D01*
X73615274Y-89690086D01*
X73627190Y-89758568D01*
X73630542Y-89845647D01*
X73630698Y-89849714D01*
X73629537Y-89906313D01*
D12*
X50000000Y-89920000D02*
X51000000Y-88920000D01*
X49800000Y-97420000D02*
X64800000Y-97420000D01*
X64800000Y-97420000D02*
X64800000Y-82420000D01*
X50000000Y-89920000D02*
X51000000Y-90920000D01*
X49800000Y-82420000D02*
X49800000Y-97420000D01*
X64800000Y-82420000D02*
X49800000Y-82420000D01*
X179530000Y-80380000D02*
X173510000Y-80380000D01*
X173510000Y-78750000D02*
X174510000Y-78750000D01*
X179530000Y-79800000D02*
X178930000Y-79800000D01*
X179530000Y-74720000D02*
X178930000Y-74720000D01*
X178930000Y-77260000D02*
X178930000Y-75660000D01*
X173510000Y-80380000D02*
X173510000Y-72540000D01*
X174510000Y-79000000D02*
X175040000Y-78750000D01*
X175040000Y-74170000D02*
X174510000Y-73920000D01*
X173510000Y-74170000D02*
X174510000Y-74170000D01*
X178930000Y-79800000D02*
X178930000Y-78200000D01*
X178930000Y-75660000D02*
X179530000Y-75660000D01*
X179530000Y-77260000D02*
X178930000Y-77260000D01*
X174510000Y-73920000D02*
X173510000Y-73920000D01*
X173510000Y-79000000D02*
X174510000Y-79000000D01*
X179530000Y-72540000D02*
X179530000Y-80380000D01*
X173510000Y-72540000D02*
X179530000Y-72540000D01*
X178930000Y-73120000D02*
X179530000Y-73120000D01*
X178930000Y-74720000D02*
X178930000Y-73120000D01*
X178930000Y-78200000D02*
X179530000Y-78200000D01*
X178500000Y-80670000D02*
X174500000Y-80670000D01*
X175040000Y-78750000D02*
X175040000Y-74170000D01*
X174510000Y-79000000D02*
X174510000Y-73920000D01*
X98470000Y-37130000D02*
X101130000Y-37130000D01*
X98470000Y-41000000D02*
X98470000Y-42330000D01*
X98470000Y-39730000D02*
X98470000Y-37130000D01*
X98470000Y-39730000D02*
X101130000Y-39730000D01*
X101130000Y-39730000D02*
X101130000Y-37130000D01*
X98470000Y-42330000D02*
X99800000Y-42330000D01*
M02*
