G04 #@! TF.GenerationSoftware,KiCad,Pcbnew,(5.1.5-0-10_14)*
G04 #@! TF.CreationDate,2020-11-05T18:46:50+01:00*
G04 #@! TF.ProjectId,vm000-powerdist,766d3030-302d-4706-9f77-657264697374,rev?*
G04 #@! TF.SameCoordinates,Original*
G04 #@! TF.FileFunction,Paste,Top*
G04 #@! TF.FilePolarity,Positive*
%FSLAX46Y46*%
G04 Gerber Fmt 4.6, Leading zero omitted, Abs format (unit mm)*
G04 Created by KiCad (PCBNEW (5.1.5-0-10_14)) date 2020-11-05 18:46:50*
%MOMM*%
%LPD*%
G04 APERTURE LIST*
%ADD10C,0.100000*%
G04 APERTURE END LIST*
D10*
G36*
X168749505Y-86666204D02*
G01*
X168773773Y-86669804D01*
X168797572Y-86675765D01*
X168820671Y-86684030D01*
X168842850Y-86694520D01*
X168863893Y-86707132D01*
X168883599Y-86721747D01*
X168901777Y-86738223D01*
X168918253Y-86756401D01*
X168932868Y-86776107D01*
X168945480Y-86797150D01*
X168955970Y-86819329D01*
X168964235Y-86842428D01*
X168970196Y-86866227D01*
X168973796Y-86890495D01*
X168975000Y-86914999D01*
X168975000Y-87565001D01*
X168973796Y-87589505D01*
X168970196Y-87613773D01*
X168964235Y-87637572D01*
X168955970Y-87660671D01*
X168945480Y-87682850D01*
X168932868Y-87703893D01*
X168918253Y-87723599D01*
X168901777Y-87741777D01*
X168883599Y-87758253D01*
X168863893Y-87772868D01*
X168842850Y-87785480D01*
X168820671Y-87795970D01*
X168797572Y-87804235D01*
X168773773Y-87810196D01*
X168749505Y-87813796D01*
X168725001Y-87815000D01*
X167824999Y-87815000D01*
X167800495Y-87813796D01*
X167776227Y-87810196D01*
X167752428Y-87804235D01*
X167729329Y-87795970D01*
X167707150Y-87785480D01*
X167686107Y-87772868D01*
X167666401Y-87758253D01*
X167648223Y-87741777D01*
X167631747Y-87723599D01*
X167617132Y-87703893D01*
X167604520Y-87682850D01*
X167594030Y-87660671D01*
X167585765Y-87637572D01*
X167579804Y-87613773D01*
X167576204Y-87589505D01*
X167575000Y-87565001D01*
X167575000Y-86914999D01*
X167576204Y-86890495D01*
X167579804Y-86866227D01*
X167585765Y-86842428D01*
X167594030Y-86819329D01*
X167604520Y-86797150D01*
X167617132Y-86776107D01*
X167631747Y-86756401D01*
X167648223Y-86738223D01*
X167666401Y-86721747D01*
X167686107Y-86707132D01*
X167707150Y-86694520D01*
X167729329Y-86684030D01*
X167752428Y-86675765D01*
X167776227Y-86669804D01*
X167800495Y-86666204D01*
X167824999Y-86665000D01*
X168725001Y-86665000D01*
X168749505Y-86666204D01*
G37*
G36*
X168749505Y-88716204D02*
G01*
X168773773Y-88719804D01*
X168797572Y-88725765D01*
X168820671Y-88734030D01*
X168842850Y-88744520D01*
X168863893Y-88757132D01*
X168883599Y-88771747D01*
X168901777Y-88788223D01*
X168918253Y-88806401D01*
X168932868Y-88826107D01*
X168945480Y-88847150D01*
X168955970Y-88869329D01*
X168964235Y-88892428D01*
X168970196Y-88916227D01*
X168973796Y-88940495D01*
X168975000Y-88964999D01*
X168975000Y-89615001D01*
X168973796Y-89639505D01*
X168970196Y-89663773D01*
X168964235Y-89687572D01*
X168955970Y-89710671D01*
X168945480Y-89732850D01*
X168932868Y-89753893D01*
X168918253Y-89773599D01*
X168901777Y-89791777D01*
X168883599Y-89808253D01*
X168863893Y-89822868D01*
X168842850Y-89835480D01*
X168820671Y-89845970D01*
X168797572Y-89854235D01*
X168773773Y-89860196D01*
X168749505Y-89863796D01*
X168725001Y-89865000D01*
X167824999Y-89865000D01*
X167800495Y-89863796D01*
X167776227Y-89860196D01*
X167752428Y-89854235D01*
X167729329Y-89845970D01*
X167707150Y-89835480D01*
X167686107Y-89822868D01*
X167666401Y-89808253D01*
X167648223Y-89791777D01*
X167631747Y-89773599D01*
X167617132Y-89753893D01*
X167604520Y-89732850D01*
X167594030Y-89710671D01*
X167585765Y-89687572D01*
X167579804Y-89663773D01*
X167576204Y-89639505D01*
X167575000Y-89615001D01*
X167575000Y-88964999D01*
X167576204Y-88940495D01*
X167579804Y-88916227D01*
X167585765Y-88892428D01*
X167594030Y-88869329D01*
X167604520Y-88847150D01*
X167617132Y-88826107D01*
X167631747Y-88806401D01*
X167648223Y-88788223D01*
X167666401Y-88771747D01*
X167686107Y-88757132D01*
X167707150Y-88744520D01*
X167729329Y-88734030D01*
X167752428Y-88725765D01*
X167776227Y-88719804D01*
X167800495Y-88716204D01*
X167824999Y-88715000D01*
X168725001Y-88715000D01*
X168749505Y-88716204D01*
G37*
G36*
X157319505Y-86276204D02*
G01*
X157343773Y-86279804D01*
X157367572Y-86285765D01*
X157390671Y-86294030D01*
X157412850Y-86304520D01*
X157433893Y-86317132D01*
X157453599Y-86331747D01*
X157471777Y-86348223D01*
X157488253Y-86366401D01*
X157502868Y-86386107D01*
X157515480Y-86407150D01*
X157525970Y-86429329D01*
X157534235Y-86452428D01*
X157540196Y-86476227D01*
X157543796Y-86500495D01*
X157545000Y-86524999D01*
X157545000Y-87175001D01*
X157543796Y-87199505D01*
X157540196Y-87223773D01*
X157534235Y-87247572D01*
X157525970Y-87270671D01*
X157515480Y-87292850D01*
X157502868Y-87313893D01*
X157488253Y-87333599D01*
X157471777Y-87351777D01*
X157453599Y-87368253D01*
X157433893Y-87382868D01*
X157412850Y-87395480D01*
X157390671Y-87405970D01*
X157367572Y-87414235D01*
X157343773Y-87420196D01*
X157319505Y-87423796D01*
X157295001Y-87425000D01*
X156394999Y-87425000D01*
X156370495Y-87423796D01*
X156346227Y-87420196D01*
X156322428Y-87414235D01*
X156299329Y-87405970D01*
X156277150Y-87395480D01*
X156256107Y-87382868D01*
X156236401Y-87368253D01*
X156218223Y-87351777D01*
X156201747Y-87333599D01*
X156187132Y-87313893D01*
X156174520Y-87292850D01*
X156164030Y-87270671D01*
X156155765Y-87247572D01*
X156149804Y-87223773D01*
X156146204Y-87199505D01*
X156145000Y-87175001D01*
X156145000Y-86524999D01*
X156146204Y-86500495D01*
X156149804Y-86476227D01*
X156155765Y-86452428D01*
X156164030Y-86429329D01*
X156174520Y-86407150D01*
X156187132Y-86386107D01*
X156201747Y-86366401D01*
X156218223Y-86348223D01*
X156236401Y-86331747D01*
X156256107Y-86317132D01*
X156277150Y-86304520D01*
X156299329Y-86294030D01*
X156322428Y-86285765D01*
X156346227Y-86279804D01*
X156370495Y-86276204D01*
X156394999Y-86275000D01*
X157295001Y-86275000D01*
X157319505Y-86276204D01*
G37*
G36*
X157319505Y-88326204D02*
G01*
X157343773Y-88329804D01*
X157367572Y-88335765D01*
X157390671Y-88344030D01*
X157412850Y-88354520D01*
X157433893Y-88367132D01*
X157453599Y-88381747D01*
X157471777Y-88398223D01*
X157488253Y-88416401D01*
X157502868Y-88436107D01*
X157515480Y-88457150D01*
X157525970Y-88479329D01*
X157534235Y-88502428D01*
X157540196Y-88526227D01*
X157543796Y-88550495D01*
X157545000Y-88574999D01*
X157545000Y-89225001D01*
X157543796Y-89249505D01*
X157540196Y-89273773D01*
X157534235Y-89297572D01*
X157525970Y-89320671D01*
X157515480Y-89342850D01*
X157502868Y-89363893D01*
X157488253Y-89383599D01*
X157471777Y-89401777D01*
X157453599Y-89418253D01*
X157433893Y-89432868D01*
X157412850Y-89445480D01*
X157390671Y-89455970D01*
X157367572Y-89464235D01*
X157343773Y-89470196D01*
X157319505Y-89473796D01*
X157295001Y-89475000D01*
X156394999Y-89475000D01*
X156370495Y-89473796D01*
X156346227Y-89470196D01*
X156322428Y-89464235D01*
X156299329Y-89455970D01*
X156277150Y-89445480D01*
X156256107Y-89432868D01*
X156236401Y-89418253D01*
X156218223Y-89401777D01*
X156201747Y-89383599D01*
X156187132Y-89363893D01*
X156174520Y-89342850D01*
X156164030Y-89320671D01*
X156155765Y-89297572D01*
X156149804Y-89273773D01*
X156146204Y-89249505D01*
X156145000Y-89225001D01*
X156145000Y-88574999D01*
X156146204Y-88550495D01*
X156149804Y-88526227D01*
X156155765Y-88502428D01*
X156164030Y-88479329D01*
X156174520Y-88457150D01*
X156187132Y-88436107D01*
X156201747Y-88416401D01*
X156218223Y-88398223D01*
X156236401Y-88381747D01*
X156256107Y-88367132D01*
X156277150Y-88354520D01*
X156299329Y-88344030D01*
X156322428Y-88335765D01*
X156346227Y-88329804D01*
X156370495Y-88326204D01*
X156394999Y-88325000D01*
X157295001Y-88325000D01*
X157319505Y-88326204D01*
G37*
G36*
X170579504Y-103266204D02*
G01*
X170603773Y-103269804D01*
X170627571Y-103275765D01*
X170650671Y-103284030D01*
X170672849Y-103294520D01*
X170693893Y-103307133D01*
X170713598Y-103321747D01*
X170731777Y-103338223D01*
X170748253Y-103356402D01*
X170762867Y-103376107D01*
X170775480Y-103397151D01*
X170785970Y-103419329D01*
X170794235Y-103442429D01*
X170800196Y-103466227D01*
X170803796Y-103490496D01*
X170805000Y-103515000D01*
X170805000Y-104765000D01*
X170803796Y-104789504D01*
X170800196Y-104813773D01*
X170794235Y-104837571D01*
X170785970Y-104860671D01*
X170775480Y-104882849D01*
X170762867Y-104903893D01*
X170748253Y-104923598D01*
X170731777Y-104941777D01*
X170713598Y-104958253D01*
X170693893Y-104972867D01*
X170672849Y-104985480D01*
X170650671Y-104995970D01*
X170627571Y-105004235D01*
X170603773Y-105010196D01*
X170579504Y-105013796D01*
X170555000Y-105015000D01*
X169805000Y-105015000D01*
X169780496Y-105013796D01*
X169756227Y-105010196D01*
X169732429Y-105004235D01*
X169709329Y-104995970D01*
X169687151Y-104985480D01*
X169666107Y-104972867D01*
X169646402Y-104958253D01*
X169628223Y-104941777D01*
X169611747Y-104923598D01*
X169597133Y-104903893D01*
X169584520Y-104882849D01*
X169574030Y-104860671D01*
X169565765Y-104837571D01*
X169559804Y-104813773D01*
X169556204Y-104789504D01*
X169555000Y-104765000D01*
X169555000Y-103515000D01*
X169556204Y-103490496D01*
X169559804Y-103466227D01*
X169565765Y-103442429D01*
X169574030Y-103419329D01*
X169584520Y-103397151D01*
X169597133Y-103376107D01*
X169611747Y-103356402D01*
X169628223Y-103338223D01*
X169646402Y-103321747D01*
X169666107Y-103307133D01*
X169687151Y-103294520D01*
X169709329Y-103284030D01*
X169732429Y-103275765D01*
X169756227Y-103269804D01*
X169780496Y-103266204D01*
X169805000Y-103265000D01*
X170555000Y-103265000D01*
X170579504Y-103266204D01*
G37*
G36*
X167779504Y-103266204D02*
G01*
X167803773Y-103269804D01*
X167827571Y-103275765D01*
X167850671Y-103284030D01*
X167872849Y-103294520D01*
X167893893Y-103307133D01*
X167913598Y-103321747D01*
X167931777Y-103338223D01*
X167948253Y-103356402D01*
X167962867Y-103376107D01*
X167975480Y-103397151D01*
X167985970Y-103419329D01*
X167994235Y-103442429D01*
X168000196Y-103466227D01*
X168003796Y-103490496D01*
X168005000Y-103515000D01*
X168005000Y-104765000D01*
X168003796Y-104789504D01*
X168000196Y-104813773D01*
X167994235Y-104837571D01*
X167985970Y-104860671D01*
X167975480Y-104882849D01*
X167962867Y-104903893D01*
X167948253Y-104923598D01*
X167931777Y-104941777D01*
X167913598Y-104958253D01*
X167893893Y-104972867D01*
X167872849Y-104985480D01*
X167850671Y-104995970D01*
X167827571Y-105004235D01*
X167803773Y-105010196D01*
X167779504Y-105013796D01*
X167755000Y-105015000D01*
X167005000Y-105015000D01*
X166980496Y-105013796D01*
X166956227Y-105010196D01*
X166932429Y-105004235D01*
X166909329Y-104995970D01*
X166887151Y-104985480D01*
X166866107Y-104972867D01*
X166846402Y-104958253D01*
X166828223Y-104941777D01*
X166811747Y-104923598D01*
X166797133Y-104903893D01*
X166784520Y-104882849D01*
X166774030Y-104860671D01*
X166765765Y-104837571D01*
X166759804Y-104813773D01*
X166756204Y-104789504D01*
X166755000Y-104765000D01*
X166755000Y-103515000D01*
X166756204Y-103490496D01*
X166759804Y-103466227D01*
X166765765Y-103442429D01*
X166774030Y-103419329D01*
X166784520Y-103397151D01*
X166797133Y-103376107D01*
X166811747Y-103356402D01*
X166828223Y-103338223D01*
X166846402Y-103321747D01*
X166866107Y-103307133D01*
X166887151Y-103294520D01*
X166909329Y-103284030D01*
X166932429Y-103275765D01*
X166956227Y-103269804D01*
X166980496Y-103266204D01*
X167005000Y-103265000D01*
X167755000Y-103265000D01*
X167779504Y-103266204D01*
G37*
G36*
X170579504Y-72786204D02*
G01*
X170603773Y-72789804D01*
X170627571Y-72795765D01*
X170650671Y-72804030D01*
X170672849Y-72814520D01*
X170693893Y-72827133D01*
X170713598Y-72841747D01*
X170731777Y-72858223D01*
X170748253Y-72876402D01*
X170762867Y-72896107D01*
X170775480Y-72917151D01*
X170785970Y-72939329D01*
X170794235Y-72962429D01*
X170800196Y-72986227D01*
X170803796Y-73010496D01*
X170805000Y-73035000D01*
X170805000Y-74285000D01*
X170803796Y-74309504D01*
X170800196Y-74333773D01*
X170794235Y-74357571D01*
X170785970Y-74380671D01*
X170775480Y-74402849D01*
X170762867Y-74423893D01*
X170748253Y-74443598D01*
X170731777Y-74461777D01*
X170713598Y-74478253D01*
X170693893Y-74492867D01*
X170672849Y-74505480D01*
X170650671Y-74515970D01*
X170627571Y-74524235D01*
X170603773Y-74530196D01*
X170579504Y-74533796D01*
X170555000Y-74535000D01*
X169805000Y-74535000D01*
X169780496Y-74533796D01*
X169756227Y-74530196D01*
X169732429Y-74524235D01*
X169709329Y-74515970D01*
X169687151Y-74505480D01*
X169666107Y-74492867D01*
X169646402Y-74478253D01*
X169628223Y-74461777D01*
X169611747Y-74443598D01*
X169597133Y-74423893D01*
X169584520Y-74402849D01*
X169574030Y-74380671D01*
X169565765Y-74357571D01*
X169559804Y-74333773D01*
X169556204Y-74309504D01*
X169555000Y-74285000D01*
X169555000Y-73035000D01*
X169556204Y-73010496D01*
X169559804Y-72986227D01*
X169565765Y-72962429D01*
X169574030Y-72939329D01*
X169584520Y-72917151D01*
X169597133Y-72896107D01*
X169611747Y-72876402D01*
X169628223Y-72858223D01*
X169646402Y-72841747D01*
X169666107Y-72827133D01*
X169687151Y-72814520D01*
X169709329Y-72804030D01*
X169732429Y-72795765D01*
X169756227Y-72789804D01*
X169780496Y-72786204D01*
X169805000Y-72785000D01*
X170555000Y-72785000D01*
X170579504Y-72786204D01*
G37*
G36*
X167779504Y-72786204D02*
G01*
X167803773Y-72789804D01*
X167827571Y-72795765D01*
X167850671Y-72804030D01*
X167872849Y-72814520D01*
X167893893Y-72827133D01*
X167913598Y-72841747D01*
X167931777Y-72858223D01*
X167948253Y-72876402D01*
X167962867Y-72896107D01*
X167975480Y-72917151D01*
X167985970Y-72939329D01*
X167994235Y-72962429D01*
X168000196Y-72986227D01*
X168003796Y-73010496D01*
X168005000Y-73035000D01*
X168005000Y-74285000D01*
X168003796Y-74309504D01*
X168000196Y-74333773D01*
X167994235Y-74357571D01*
X167985970Y-74380671D01*
X167975480Y-74402849D01*
X167962867Y-74423893D01*
X167948253Y-74443598D01*
X167931777Y-74461777D01*
X167913598Y-74478253D01*
X167893893Y-74492867D01*
X167872849Y-74505480D01*
X167850671Y-74515970D01*
X167827571Y-74524235D01*
X167803773Y-74530196D01*
X167779504Y-74533796D01*
X167755000Y-74535000D01*
X167005000Y-74535000D01*
X166980496Y-74533796D01*
X166956227Y-74530196D01*
X166932429Y-74524235D01*
X166909329Y-74515970D01*
X166887151Y-74505480D01*
X166866107Y-74492867D01*
X166846402Y-74478253D01*
X166828223Y-74461777D01*
X166811747Y-74443598D01*
X166797133Y-74423893D01*
X166784520Y-74402849D01*
X166774030Y-74380671D01*
X166765765Y-74357571D01*
X166759804Y-74333773D01*
X166756204Y-74309504D01*
X166755000Y-74285000D01*
X166755000Y-73035000D01*
X166756204Y-73010496D01*
X166759804Y-72986227D01*
X166765765Y-72962429D01*
X166774030Y-72939329D01*
X166784520Y-72917151D01*
X166797133Y-72896107D01*
X166811747Y-72876402D01*
X166828223Y-72858223D01*
X166846402Y-72841747D01*
X166866107Y-72827133D01*
X166887151Y-72814520D01*
X166909329Y-72804030D01*
X166932429Y-72795765D01*
X166956227Y-72789804D01*
X166980496Y-72786204D01*
X167005000Y-72785000D01*
X167755000Y-72785000D01*
X167779504Y-72786204D01*
G37*
G36*
X157879504Y-103266204D02*
G01*
X157903773Y-103269804D01*
X157927571Y-103275765D01*
X157950671Y-103284030D01*
X157972849Y-103294520D01*
X157993893Y-103307133D01*
X158013598Y-103321747D01*
X158031777Y-103338223D01*
X158048253Y-103356402D01*
X158062867Y-103376107D01*
X158075480Y-103397151D01*
X158085970Y-103419329D01*
X158094235Y-103442429D01*
X158100196Y-103466227D01*
X158103796Y-103490496D01*
X158105000Y-103515000D01*
X158105000Y-104765000D01*
X158103796Y-104789504D01*
X158100196Y-104813773D01*
X158094235Y-104837571D01*
X158085970Y-104860671D01*
X158075480Y-104882849D01*
X158062867Y-104903893D01*
X158048253Y-104923598D01*
X158031777Y-104941777D01*
X158013598Y-104958253D01*
X157993893Y-104972867D01*
X157972849Y-104985480D01*
X157950671Y-104995970D01*
X157927571Y-105004235D01*
X157903773Y-105010196D01*
X157879504Y-105013796D01*
X157855000Y-105015000D01*
X157105000Y-105015000D01*
X157080496Y-105013796D01*
X157056227Y-105010196D01*
X157032429Y-105004235D01*
X157009329Y-104995970D01*
X156987151Y-104985480D01*
X156966107Y-104972867D01*
X156946402Y-104958253D01*
X156928223Y-104941777D01*
X156911747Y-104923598D01*
X156897133Y-104903893D01*
X156884520Y-104882849D01*
X156874030Y-104860671D01*
X156865765Y-104837571D01*
X156859804Y-104813773D01*
X156856204Y-104789504D01*
X156855000Y-104765000D01*
X156855000Y-103515000D01*
X156856204Y-103490496D01*
X156859804Y-103466227D01*
X156865765Y-103442429D01*
X156874030Y-103419329D01*
X156884520Y-103397151D01*
X156897133Y-103376107D01*
X156911747Y-103356402D01*
X156928223Y-103338223D01*
X156946402Y-103321747D01*
X156966107Y-103307133D01*
X156987151Y-103294520D01*
X157009329Y-103284030D01*
X157032429Y-103275765D01*
X157056227Y-103269804D01*
X157080496Y-103266204D01*
X157105000Y-103265000D01*
X157855000Y-103265000D01*
X157879504Y-103266204D01*
G37*
G36*
X155079504Y-103266204D02*
G01*
X155103773Y-103269804D01*
X155127571Y-103275765D01*
X155150671Y-103284030D01*
X155172849Y-103294520D01*
X155193893Y-103307133D01*
X155213598Y-103321747D01*
X155231777Y-103338223D01*
X155248253Y-103356402D01*
X155262867Y-103376107D01*
X155275480Y-103397151D01*
X155285970Y-103419329D01*
X155294235Y-103442429D01*
X155300196Y-103466227D01*
X155303796Y-103490496D01*
X155305000Y-103515000D01*
X155305000Y-104765000D01*
X155303796Y-104789504D01*
X155300196Y-104813773D01*
X155294235Y-104837571D01*
X155285970Y-104860671D01*
X155275480Y-104882849D01*
X155262867Y-104903893D01*
X155248253Y-104923598D01*
X155231777Y-104941777D01*
X155213598Y-104958253D01*
X155193893Y-104972867D01*
X155172849Y-104985480D01*
X155150671Y-104995970D01*
X155127571Y-105004235D01*
X155103773Y-105010196D01*
X155079504Y-105013796D01*
X155055000Y-105015000D01*
X154305000Y-105015000D01*
X154280496Y-105013796D01*
X154256227Y-105010196D01*
X154232429Y-105004235D01*
X154209329Y-104995970D01*
X154187151Y-104985480D01*
X154166107Y-104972867D01*
X154146402Y-104958253D01*
X154128223Y-104941777D01*
X154111747Y-104923598D01*
X154097133Y-104903893D01*
X154084520Y-104882849D01*
X154074030Y-104860671D01*
X154065765Y-104837571D01*
X154059804Y-104813773D01*
X154056204Y-104789504D01*
X154055000Y-104765000D01*
X154055000Y-103515000D01*
X154056204Y-103490496D01*
X154059804Y-103466227D01*
X154065765Y-103442429D01*
X154074030Y-103419329D01*
X154084520Y-103397151D01*
X154097133Y-103376107D01*
X154111747Y-103356402D01*
X154128223Y-103338223D01*
X154146402Y-103321747D01*
X154166107Y-103307133D01*
X154187151Y-103294520D01*
X154209329Y-103284030D01*
X154232429Y-103275765D01*
X154256227Y-103269804D01*
X154280496Y-103266204D01*
X154305000Y-103265000D01*
X155055000Y-103265000D01*
X155079504Y-103266204D01*
G37*
G36*
X157879504Y-72786204D02*
G01*
X157903773Y-72789804D01*
X157927571Y-72795765D01*
X157950671Y-72804030D01*
X157972849Y-72814520D01*
X157993893Y-72827133D01*
X158013598Y-72841747D01*
X158031777Y-72858223D01*
X158048253Y-72876402D01*
X158062867Y-72896107D01*
X158075480Y-72917151D01*
X158085970Y-72939329D01*
X158094235Y-72962429D01*
X158100196Y-72986227D01*
X158103796Y-73010496D01*
X158105000Y-73035000D01*
X158105000Y-74285000D01*
X158103796Y-74309504D01*
X158100196Y-74333773D01*
X158094235Y-74357571D01*
X158085970Y-74380671D01*
X158075480Y-74402849D01*
X158062867Y-74423893D01*
X158048253Y-74443598D01*
X158031777Y-74461777D01*
X158013598Y-74478253D01*
X157993893Y-74492867D01*
X157972849Y-74505480D01*
X157950671Y-74515970D01*
X157927571Y-74524235D01*
X157903773Y-74530196D01*
X157879504Y-74533796D01*
X157855000Y-74535000D01*
X157105000Y-74535000D01*
X157080496Y-74533796D01*
X157056227Y-74530196D01*
X157032429Y-74524235D01*
X157009329Y-74515970D01*
X156987151Y-74505480D01*
X156966107Y-74492867D01*
X156946402Y-74478253D01*
X156928223Y-74461777D01*
X156911747Y-74443598D01*
X156897133Y-74423893D01*
X156884520Y-74402849D01*
X156874030Y-74380671D01*
X156865765Y-74357571D01*
X156859804Y-74333773D01*
X156856204Y-74309504D01*
X156855000Y-74285000D01*
X156855000Y-73035000D01*
X156856204Y-73010496D01*
X156859804Y-72986227D01*
X156865765Y-72962429D01*
X156874030Y-72939329D01*
X156884520Y-72917151D01*
X156897133Y-72896107D01*
X156911747Y-72876402D01*
X156928223Y-72858223D01*
X156946402Y-72841747D01*
X156966107Y-72827133D01*
X156987151Y-72814520D01*
X157009329Y-72804030D01*
X157032429Y-72795765D01*
X157056227Y-72789804D01*
X157080496Y-72786204D01*
X157105000Y-72785000D01*
X157855000Y-72785000D01*
X157879504Y-72786204D01*
G37*
G36*
X155079504Y-72786204D02*
G01*
X155103773Y-72789804D01*
X155127571Y-72795765D01*
X155150671Y-72804030D01*
X155172849Y-72814520D01*
X155193893Y-72827133D01*
X155213598Y-72841747D01*
X155231777Y-72858223D01*
X155248253Y-72876402D01*
X155262867Y-72896107D01*
X155275480Y-72917151D01*
X155285970Y-72939329D01*
X155294235Y-72962429D01*
X155300196Y-72986227D01*
X155303796Y-73010496D01*
X155305000Y-73035000D01*
X155305000Y-74285000D01*
X155303796Y-74309504D01*
X155300196Y-74333773D01*
X155294235Y-74357571D01*
X155285970Y-74380671D01*
X155275480Y-74402849D01*
X155262867Y-74423893D01*
X155248253Y-74443598D01*
X155231777Y-74461777D01*
X155213598Y-74478253D01*
X155193893Y-74492867D01*
X155172849Y-74505480D01*
X155150671Y-74515970D01*
X155127571Y-74524235D01*
X155103773Y-74530196D01*
X155079504Y-74533796D01*
X155055000Y-74535000D01*
X154305000Y-74535000D01*
X154280496Y-74533796D01*
X154256227Y-74530196D01*
X154232429Y-74524235D01*
X154209329Y-74515970D01*
X154187151Y-74505480D01*
X154166107Y-74492867D01*
X154146402Y-74478253D01*
X154128223Y-74461777D01*
X154111747Y-74443598D01*
X154097133Y-74423893D01*
X154084520Y-74402849D01*
X154074030Y-74380671D01*
X154065765Y-74357571D01*
X154059804Y-74333773D01*
X154056204Y-74309504D01*
X154055000Y-74285000D01*
X154055000Y-73035000D01*
X154056204Y-73010496D01*
X154059804Y-72986227D01*
X154065765Y-72962429D01*
X154074030Y-72939329D01*
X154084520Y-72917151D01*
X154097133Y-72896107D01*
X154111747Y-72876402D01*
X154128223Y-72858223D01*
X154146402Y-72841747D01*
X154166107Y-72827133D01*
X154187151Y-72814520D01*
X154209329Y-72804030D01*
X154232429Y-72795765D01*
X154256227Y-72789804D01*
X154280496Y-72786204D01*
X154305000Y-72785000D01*
X155055000Y-72785000D01*
X155079504Y-72786204D01*
G37*
M02*
